<?xml version="1.0" encoding="UTF-8"?>
<svg version="1.1" xmlns="http://www.w3.org/2000/svg" width="420" height="594">
<path d="M0 0 C2.88049714 2.16037286 4.00588493 4.14118825 4.56835938 7.70410156 C4.64260697 13.91519866 3.11406294 18.73998898 0.75 24.4375 C0.00219682 26.31624416 -0.74518846 28.19515471 -1.4921875 30.07421875 C-1.87342773 31.0182959 -2.25466797 31.96237305 -2.64746094 32.93505859 C-4.2828785 37.0178083 -5.82564563 41.13402163 -7.375 45.25 C-9.94443645 52.02191611 -12.55893547 58.77583545 -15.19140625 65.5234375 C-15.65108795 66.7023481 -15.65108795 66.7023481 -16.12005615 67.90507507 C-17.65682163 71.84545516 -19.19591514 75.78490047 -20.73876953 79.72290039 C-23.84734586 87.67592147 -26.85473042 95.64227054 -29.65161133 103.71142578 C-30.71660281 106.59701062 -31.92728079 109.34943578 -33.25 112.125 C-35.54918098 117.00357465 -37.23106 122.00685741 -38.87280273 127.1315918 C-40.42735156 131.90849565 -42.336026 136.38962542 -44.49536133 140.91821289 C-45.66316171 143.49582715 -46.65815194 146.06390027 -47.6015625 148.73046875 C-49.82929874 154.94021191 -52.18604593 161.09587641 -54.5625 167.25 C-55.00190918 168.38969238 -55.44131836 169.52938477 -55.89404297 170.70361328 C-57.1780493 174.03208421 -58.46377764 177.35988489 -59.75 180.6875 C-60.08467285 181.55455566 -60.4193457 182.42161133 -60.76416016 183.31494141 C-64.38216603 192.68454954 -68.06547566 202.02538631 -71.83374023 211.33569336 C-73.43472301 215.31104474 -74.98671218 219.29074858 -76.4140625 223.33203125 C-76.6730835 224.05825684 -76.93210449 224.78448242 -77.19897461 225.53271484 C-77.88810949 227.48507382 -78.55996733 229.44350729 -79.23046875 231.40234375 C-80.91434557 235.04280752 -82.68500815 237.12310775 -85.75 239.6875 C-90.02228789 240.95336308 -92.24047262 240.84885034 -96.5 239.5 C-101.19650499 236.88079529 -101.19650499 236.88079529 -102.75 233.6875 C-103.93193282 227.68934896 -103.72959242 224.39605842 -101.1875 218.6875 C-100.61918156 217.36931235 -100.0528364 216.05027252 -99.48828125 214.73046875 C-99.19646973 214.06063965 -98.9046582 213.39081055 -98.60400391 212.70068359 C-97.24961424 209.50791709 -96.06662646 206.25621237 -94.875 203 C-92.5993093 196.85464931 -90.19938361 190.76555723 -87.75 184.6875 C-83.31439633 173.66827262 -79.10809308 162.58887028 -75.1875 151.375 C-73.73550001 147.26870702 -72.17410501 143.31164245 -70.3125 139.375 C-68.22414753 134.92590126 -66.53402772 130.393381 -64.9375 125.75 C-62.78856699 119.51107252 -60.47712031 113.36608125 -58 107.25 C-54.81500517 99.38423895 -51.72469668 91.48654556 -48.6875 83.5625 C-48.26202881 82.45269775 -47.83655762 81.34289551 -47.39819336 80.19946289 C-46.5665015 78.02981103 -45.73487519 75.86013405 -44.90332031 73.69042969 C-42.4827995 67.38805754 -40.02911465 61.09859048 -37.57666016 54.80859375 C-36.4266363 51.85779421 -35.27894718 48.90608879 -34.13134766 45.9543457 C-33.54654325 44.45021582 -32.9615838 42.94614622 -32.37646484 41.44213867 C-30.60557332 36.89004566 -28.83761679 32.33683453 -27.07446289 27.78173828 C-26.48763494 26.27210601 -25.8970324 24.76393507 -25.30249023 23.25732422 C-23.87965194 19.64749392 -22.51123944 16.03570504 -21.2578125 12.36328125 C-17.3695497 1.26463019 -17.3695497 1.26463019 -12.75 -1.3125 C-7.96063649 -2.9271997 -4.50120487 -2.14830232 0 0 Z " fill="#2A5397" transform="translate(261.75,180.3125)"/>
<path d="M0 0 C0.77085937 -0.01417969 1.54171875 -0.02835938 2.3359375 -0.04296875 C7.56792354 0.48380118 10.05757056 3.55588892 13.625 7.1875 C15.49446967 8.69984956 17.39273908 10.17702346 19.3125 11.625 C20.46143003 12.49674708 21.60983703 13.36918377 22.7578125 14.2421875 C23.3755957 14.71108398 23.99337891 15.17998047 24.62988281 15.66308594 C29.11550459 19.09042593 33.55229962 22.5813746 38.00024414 26.05737305 C41.45286732 28.74817586 44.9134494 31.42018912 48.44140625 34.01171875 C49.00657959 34.42736084 49.57175293 34.84300293 50.15405273 35.27124023 C51.64245546 36.35891039 53.13739124 37.43762485 54.6328125 38.515625 C55.61894531 39.34320313 55.61894531 39.34320313 56.625 40.1875 C56.625 40.8475 56.625 41.5075 56.625 42.1875 C57.181875 42.249375 57.73875 42.31125 58.3125 42.375 C61.56730193 43.51857906 63.19945294 45.74801302 65.625 48.1875 C67.53540612 49.74223108 69.47521501 51.26128314 71.4375 52.75 C72.26096924 53.37865967 72.26096924 53.37865967 73.10107422 54.02001953 C76.35480564 56.49676749 79.63439537 58.93684952 82.92578125 61.36328125 C83.64467529 61.8955835 84.36356934 62.42788574 85.10424805 62.97631836 C86.50935201 64.01499858 87.91824616 65.0485756 89.33129883 66.07641602 C93.81065709 69.38719746 96.96968653 71.91574663 98.5625 77.4375 C98.64483899 82.37783958 97.60449111 85.26273887 94.625 89.1875 C91.50273702 92.14826662 88.09245954 94.64689192 84.625 97.1875 C82.62205164 98.72533418 80.62222435 100.26723918 78.625 101.8125 C77.53152644 102.65140211 76.43776352 103.48992717 75.34375 104.328125 C70.92332982 107.721333 66.52388231 111.14144367 62.125 114.5625 C60.97644531 115.45509521 60.97644531 115.45509521 59.8046875 116.36572266 C59.07507813 116.93339355 58.34546875 117.50106445 57.59375 118.0859375 C56.90539062 118.62057617 56.21703125 119.15521484 55.5078125 119.70605469 C53.89061648 120.97850612 52.30167055 122.2867172 50.71875 123.6015625 C48.625 125.1875 48.625 125.1875 46.625 125.1875 C46.625 125.8475 46.625 126.5075 46.625 127.1875 C44.9453125 128.6953125 44.9453125 128.6953125 42.75 130.3125 C42.03070313 130.85132813 41.31140625 131.39015625 40.5703125 131.9453125 C38.625 133.1875 38.625 133.1875 36.625 133.1875 C36.625 133.8475 36.625 134.5075 36.625 135.1875 C35.985625 135.290625 35.34625 135.39375 34.6875 135.5 C34.006875 135.726875 33.32625 135.95375 32.625 136.1875 C32.295 137.1775 31.965 138.1675 31.625 139.1875 C29.6484375 140.80859375 29.6484375 140.80859375 27 142.625 C23.47967428 145.07094059 20.16042218 147.54278624 16.9453125 150.37890625 C5.9580874 159.97861308 5.9580874 159.97861308 -0.5 160.1875 C-4.77151262 159.65435429 -7.50513663 158.52024456 -10.375 155.1875 C-12.17389321 152.20808312 -12.64244674 150.21144122 -12.3125 146.75 C-12.25964844 146.00878906 -12.20679688 145.26757812 -12.15234375 144.50390625 C-10.14719536 138.52876556 -3.10475229 134.41035793 1.6875 130.5625 C2.39455078 129.99015625 3.10160156 129.4178125 3.83007812 128.828125 C5.75568552 127.27317442 7.68196485 125.7206219 9.625 124.1875 C10.32036865 123.63143066 11.0157373 123.07536133 11.73217773 122.50244141 C13.625 121.1875 13.625 121.1875 15.625 121.1875 C15.625 120.5275 15.625 119.8675 15.625 119.1875 C17.3046875 117.6796875 17.3046875 117.6796875 19.5 116.0625 C20.21929687 115.52367187 20.93859375 114.98484375 21.6796875 114.4296875 C23.625 113.1875 23.625 113.1875 25.625 113.1875 C25.625 112.5275 25.625 111.8675 25.625 111.1875 C27.27998811 109.80834324 29.00330374 108.51099612 30.75 107.25 C31.86047173 106.43769509 32.96980182 105.62382773 34.078125 104.80859375 C34.66142578 104.38046387 35.24472656 103.95233398 35.84570312 103.51123047 C38.77355313 101.33301934 41.63695168 99.07484106 44.5 96.8125 C45.07395508 96.3597168 45.64791016 95.90693359 46.23925781 95.44042969 C47.42022683 94.50836152 48.60088735 93.57590235 49.78125 92.64306641 C53.01606371 90.0893112 56.25851732 87.54528083 59.5 85 C60.68492823 84.06905166 61.86982718 83.13806603 63.0546875 82.20703125 C63.90289062 81.54058594 64.75109375 80.87414062 65.625 80.1875 C62.14944455 76.5775308 58.5671382 73.4744747 54.5625 70.4375 C54.0053833 70.01210938 53.4482666 69.58671875 52.87426758 69.1484375 C49.97370674 66.93942003 47.05241026 64.76144894 44.109375 62.609375 C43.55515869 62.20170898 43.00094238 61.79404297 42.42993164 61.37402344 C40.88865071 60.24336301 39.34096626 59.1214471 37.79296875 58 C37.07753906 57.401875 36.36210937 56.80375 35.625 56.1875 C35.625 55.5275 35.625 54.8675 35.625 54.1875 C35.05177002 53.92356445 34.47854004 53.65962891 33.88793945 53.38769531 C31.49676528 52.11948815 29.53459734 50.6692296 27.41796875 48.984375 C26.6295459 48.36111328 25.84112305 47.73785156 25.02880859 47.09570312 C23.83892334 46.15114258 23.83892334 46.15114258 22.625 45.1875 C21.18503781 44.065852 19.7436684 42.94600784 18.30078125 41.828125 C16.06610338 40.09251423 13.83248714 38.35559897 11.60131836 36.61547852 C7.89940742 33.728408 4.19152596 30.8514311 0.453125 28.01171875 C-0.50460815 27.27743652 -0.50460815 27.27743652 -1.48168945 26.52832031 C-2.66517977 25.62117238 -3.85352889 24.72031313 -5.04760742 23.82714844 C-8.3384346 21.28981204 -10.64998515 18.99214947 -12.375 15.1875 C-12.72041086 12.03562586 -12.29183411 9.2179936 -11.375 6.1875 C-7.86047591 1.86193188 -5.49944964 0.04567649 0 0 Z " fill="#31589D" transform="translate(270.375,219.8125)"/>
<path d="M0 0 C3.47060168 2.06759249 5.77725393 4.10944433 7 8 C7.64711135 13.82400217 6.53382066 16.41912137 3 21 C0.72223642 23.13925093 -1.70657773 25.04037874 -4.1875 26.9375 C-4.85225342 27.45602539 -5.51700684 27.97455078 -6.2019043 28.50878906 C-7.52345322 29.53853408 -8.8476881 30.56484285 -10.17480469 31.58740234 C-11.76701436 32.81968233 -13.34209282 34.07403407 -14.9140625 35.33203125 C-15.70554687 35.96496094 -16.49703125 36.59789062 -17.3125 37.25 C-17.98925781 37.79140625 -18.66601562 38.3328125 -19.36328125 38.890625 C-21 40 -21 40 -23 40 C-23 40.66 -23 41.32 -23 42 C-24.51171875 43.375 -24.51171875 43.375 -26.6875 45 C-27.51765625 45.62777344 -28.3478125 46.25554687 -29.203125 46.90234375 C-30.12609375 47.59457031 -31.0490625 48.28679687 -32 49 C-33.98110579 50.51830648 -35.96013413 52.03932603 -37.9375 53.5625 C-38.73655762 54.17677856 -38.73655762 54.17677856 -39.55175781 54.8034668 C-44.52375324 58.62681405 -49.48294861 62.46658181 -54.4375 66.3125 C-55.19474365 66.899104 -55.9519873 67.48570801 -56.73217773 68.09008789 C-60.01482056 70.64098933 -63.25998533 73.20460627 -66.41015625 75.91796875 C-69 78 -69 78 -71 78 C-71 78.99 -71 79.98 -71 81 C-70.401875 81.28875 -69.80375 81.5775 -69.1875 81.875 C-67 83 -67 83 -64 85 C-64 85.66 -64 86.32 -64 87 C-63.1646875 87.4021875 -63.1646875 87.4021875 -62.3125 87.8125 C-59.78774666 89.10899496 -57.36285516 90.42476323 -55 92 C-55 92.66 -55 93.32 -55 94 C-54.4117041 94.2774707 -53.8234082 94.55494141 -53.21728516 94.84082031 C-51.12674244 95.93374002 -49.38721085 97.10855648 -47.5234375 98.546875 C-46.53041626 99.30943604 -46.53041626 99.30943604 -45.51733398 100.08740234 C-44.81036377 100.63605957 -44.10339355 101.1847168 -43.375 101.75 C-42.63515869 102.32057129 -41.89531738 102.89114258 -41.13305664 103.47900391 C-39.56125519 104.69239963 -37.99073158 105.90745215 -36.42138672 107.12402344 C-34.00467393 108.99637886 -31.58282179 110.86191841 -29.16015625 112.7265625 C-27.58566408 113.94235433 -26.01143767 115.15849041 -24.4375 116.375 C-23.71288574 116.9328418 -22.98827148 117.49068359 -22.24169922 118.06542969 C-17.93556682 121.40682186 -13.796522 124.87644414 -9.74633789 128.5246582 C-7.64965989 130.29597446 -5.35484731 131.60180941 -3 133 C-3 133.66 -3 134.32 -3 135 C-2.01 135 -1.02 135 0 135 C3.96058915 138.06403787 6.32396353 141.67099691 7.0625 146.625 C7.25798941 150.58871627 6.57409194 152.87431693 4 156 C3.5875 156.5775 3.175 157.155 2.75 157.75 C-0.10983335 159.79273811 -2.52620753 159.88420692 -6 160 C-11.39292594 158.26655952 -15.60793273 155.49572701 -20 152 C-20 151.34 -20 150.68 -20 150 C-20.72574219 149.7421875 -21.45148438 149.484375 -22.19921875 149.21875 C-25.12047667 147.94757501 -27.30872649 146.45983598 -29.8125 144.5 C-30.60269531 143.8915625 -31.39289063 143.283125 -32.20703125 142.65625 C-32.79871094 142.1096875 -33.39039062 141.563125 -34 141 C-34 140.34 -34 139.68 -34 139 C-34.55042969 138.74992188 -35.10085937 138.49984375 -35.66796875 138.2421875 C-44.10561562 133.74776253 -51.62709462 126.7456469 -59.04638672 120.74707031 C-62.56701273 117.91073499 -66.1226946 115.13380723 -69.734375 112.4140625 C-70.5178833 111.82334961 -71.3013916 111.23263672 -72.10864258 110.62402344 C-73.64081383 109.47332894 -75.17701879 108.32798257 -76.7175293 107.18847656 C-77.7526062 106.41068848 -77.7526062 106.41068848 -78.80859375 105.6171875 C-79.42532959 105.15940918 -80.04206543 104.70163086 -80.67749023 104.22998047 C-81.11391846 103.82408691 -81.55034668 103.41819336 -82 103 C-82 102.34 -82 101.68 -82 101 C-82.56203125 100.731875 -83.1240625 100.46375 -83.703125 100.1875 C-86.15550646 98.9196021 -88.43927683 97.51027658 -90.75 96 C-91.54921875 95.484375 -92.3484375 94.96875 -93.171875 94.4375 C-93.77515625 93.963125 -94.3784375 93.48875 -95 93 C-95 92.34 -95 91.68 -95 91 C-95.5775 90.773125 -96.155 90.54625 -96.75 90.3125 C-99.78738074 88.54069457 -101.18872454 87.04035523 -103 84 C-103.63222717 80.85626489 -103.82151412 78.10746646 -103 75 C-99.56560536 70.19570638 -95.47079471 66.70755476 -90.8125 63.125 C-90.18408203 62.62742187 -89.55566406 62.12984375 -88.90820312 61.6171875 C-84.26250215 58 -84.26250215 58 -82 58 C-82 57.34 -82 56.68 -82 56 C-80.34501189 54.62084324 -78.62169626 53.32349612 -76.875 52.0625 C-75.76972976 51.25411087 -74.66560974 50.44414732 -73.5625 49.6328125 C-72.97984375 49.20516602 -72.3971875 48.77751953 -71.796875 48.33691406 C-68.77974027 46.09210023 -65.82727898 43.76658311 -62.875 41.4375 C-61.99642334 40.74672363 -61.99642334 40.74672363 -61.10009766 40.04199219 C-56.65223592 36.5368635 -52.25648467 32.97017525 -47.890625 29.36328125 C-46 28 -46 28 -44 28 C-44 27.34 -44 26.68 -44 26 C-42.34501189 24.62084324 -40.62169626 23.32349612 -38.875 22.0625 C-37.77091446 21.25687897 -36.66810189 20.44951117 -35.56640625 19.640625 C-34.98391113 19.21330078 -34.40141602 18.78597656 -33.80126953 18.34570312 C-31.36371372 16.52463947 -28.98404586 14.63546701 -26.60473633 12.73925781 C-24.27197846 10.88220332 -21.92249986 9.04733308 -19.56738281 7.21875 C-18.18286024 6.14218665 -16.80569666 5.05617365 -15.4296875 3.96875 C-10.43521473 0.27945304 -6.23244774 -1.42801715 0 0 Z " fill="#2C5499" transform="translate(161,220)"/>
<path d="M0 0 C0.763125 0.226875 1.52625 0.45375 2.3125 0.6875 C3.31704889 4.45881842 3.31332937 6.6241024 1.87109375 10.2421875 C1.53770996 11.09659424 1.20432617 11.95100098 0.86083984 12.83129883 C0.4942627 13.73259521 0.12768555 14.6338916 -0.25 15.5625 C-0.61915527 16.49924561 -0.98831055 17.43599121 -1.36865234 18.40112305 C-2.46233363 21.16848247 -3.57254941 23.92865269 -4.6875 26.6875 C-5.2414828 28.07137559 -5.79493596 29.45546343 -6.34765625 30.83984375 C-7.31586467 33.25907385 -8.28716577 35.67706875 -9.26171875 38.09375 C-11.02463201 42.5372574 -12.6989605 47.01041012 -14.36547852 51.49072266 C-16.54343056 57.33490578 -18.79390023 63.14939301 -21.06420898 68.95825195 C-25.08533575 79.24785384 -29.02583959 89.56845182 -32.97265625 99.88671875 C-33.3583931 100.89500229 -33.74412994 101.90328583 -34.14155579 102.94212341 C-36.5563666 109.25415616 -36.5563666 109.25415616 -38.9699707 115.56665039 C-40.15766485 118.67360849 -41.34632982 121.78019375 -42.53515625 124.88671875 C-42.89255386 125.82239182 -43.24995148 126.75806488 -43.61817932 127.72209167 C-45.30394986 132.12486931 -47.01190816 136.51642891 -48.77001953 140.89086914 C-50.41495742 144.98470017 -51.98496748 149.09789203 -53.51953125 153.234375 C-56.72518479 161.83329242 -60.04081033 170.38775208 -63.375 178.9375 C-63.9839751 180.50040417 -64.59294309 182.06331112 -65.2019043 183.6262207 C-66.43160293 186.7812573 -67.66223576 189.93592745 -68.89355469 193.09033203 C-70.05966254 196.07774662 -71.22443398 199.0656751 -72.38769531 202.05419922 C-73.92196285 205.99570766 -75.460598 209.93549397 -77 213.875 C-77.46172607 215.0619043 -77.92345215 216.24880859 -78.39916992 217.47167969 C-78.82045166 218.54708008 -79.2417334 219.62248047 -79.67578125 220.73046875 C-80.04227783 221.66914795 -80.40877441 222.60782715 -80.78637695 223.57495117 C-81.6875 225.6875 -81.6875 225.6875 -82.6875 226.6875 C-85.125 226.875 -85.125 226.875 -87.6875 226.6875 C-88.3475 226.0275 -89.0075 225.3675 -89.6875 224.6875 C-89.39174082 218.6474404 -87.78817514 213.67790638 -85.5 208.125 C-85.18321289 207.33327393 -84.86642578 206.54154785 -84.54003906 205.72583008 C-83.59811939 203.37599087 -82.64447597 201.03124083 -81.6875 198.6875 C-80.76880603 196.41748608 -79.85204183 194.14668991 -78.9375 191.875 C-78.69845947 191.28203125 -78.45941895 190.6890625 -78.21313477 190.078125 C-75.69766448 183.79459583 -73.32440929 177.45821897 -70.9375 171.125 C-65.17148321 155.83689461 -59.21002771 140.62649266 -53.23339844 125.41967773 C-49.29943784 115.40386881 -45.40952571 105.37367244 -41.59143066 95.31309509 C-39.42767977 89.61603155 -37.23688725 83.93031654 -35.01953125 78.25390625 C-34.7266774 77.5039035 -34.43382355 76.75390076 -34.13209534 75.98117065 C-32.95840279 72.97719655 -31.783644 69.97364493 -30.60668945 66.97094727 C-27.19880512 58.27204557 -23.870787 49.56485121 -20.79199219 40.74291992 C-19.29227556 36.59416803 -17.59291827 32.54097082 -15.87109375 28.48046875 C-14.78322099 25.91337627 -13.72510282 23.33775643 -12.6875 20.75 C-12.36910156 19.9559375 -12.05070312 19.161875 -11.72265625 18.34375 C-10.93831332 16.33109645 -10.17980812 14.30834947 -9.43359375 12.28125 C-9.00175781 11.1159375 -8.56992188 9.950625 -8.125 8.75 C-7.73183594 7.66847656 -7.33867187 6.58695313 -6.93359375 5.47265625 C-4.26330455 -0.49573309 -4.26330455 -0.49573309 0 0 Z " fill="#6CB0E4" transform="translate(255.6875,186.3125)"/>
<path d="M0 0 C2.31640625 0.734375 2.31640625 0.734375 3.31640625 1.734375 C3.609375 4.06640625 3.609375 4.06640625 3.31640625 6.734375 C1.8046875 8.62109375 1.8046875 8.62109375 -0.37109375 10.421875 C-1.18191406 11.09734375 -1.99273437 11.7728125 -2.828125 12.46875 C-3.77042969 13.21640625 -4.71273437 13.9640625 -5.68359375 14.734375 C-6.22935059 15.17072266 -6.77510742 15.60707031 -7.33740234 16.05664062 C-9.07065152 17.43777014 -10.81193495 18.80774993 -12.55859375 20.171875 C-13.11764404 20.60910889 -13.67669434 21.04634277 -14.25268555 21.49682617 C-16.72830673 23.39303867 -18.70062727 24.74005284 -21.68359375 25.734375 C-21.68359375 26.394375 -21.68359375 27.054375 -21.68359375 27.734375 C-23.59765625 29.29296875 -23.59765625 29.29296875 -26.30859375 31.171875 C-30.74801018 34.32425755 -35.09501808 37.5512998 -39.37109375 40.921875 C-39.95318604 41.38062012 -40.53527832 41.83936523 -41.13500977 42.31201172 C-46.3873567 46.47044506 -51.57626963 50.70599842 -56.76318359 54.94555664 C-62.12671119 59.31644506 -67.58864276 63.54094903 -73.109375 67.7109375 C-75.13022001 69.29940141 -76.93490829 70.86035714 -78.68359375 72.734375 C-72.47981527 77.88139763 -66.20893377 82.90107007 -59.80175781 87.79272461 C-55.57165414 91.03089496 -51.39963148 94.33619054 -47.24609375 97.671875 C-40.67156172 102.95174293 -34.05540116 108.1756277 -27.41748047 113.37548828 C-23.92939311 116.10918221 -20.44611453 118.84900167 -16.96191406 121.58764648 C-13.88503453 124.00575376 -10.80676825 126.42206812 -7.7265625 128.8359375 C-6.75879883 129.59487305 -6.75879883 129.59487305 -5.77148438 130.36914062 C-4.52711562 131.34494059 -3.28233932 132.32022112 -2.03710938 133.29492188 C2.20394405 136.6219128 2.20394405 136.6219128 3.31640625 137.734375 C3.50390625 140.171875 3.50390625 140.171875 3.31640625 142.734375 C1.31640625 144.734375 1.31640625 144.734375 -1.24609375 144.859375 C-5.60383286 143.43320584 -7.90397661 141.0823883 -11.20703125 137.97265625 C-13.69547042 135.72364104 -16.25922028 133.79569326 -18.99609375 131.859375 C-22.9389937 129.05237974 -26.6800778 126.11523677 -30.37109375 122.984375 C-35.04256325 119.03485988 -39.83345615 115.31612113 -44.74609375 111.671875 C-50.16303083 107.65206076 -55.44563763 103.52892038 -60.63671875 99.21875 C-66.09660541 94.76684242 -71.684955 90.47817799 -77.25390625 86.1640625 C-77.97352539 85.60170898 -78.69314453 85.03935547 -79.43457031 84.45996094 C-81.00534059 83.25477158 -82.59793548 82.07773392 -84.20605469 80.92285156 C-85.42856934 80.02904785 -85.42856934 80.02904785 -86.67578125 79.1171875 C-87.41940918 78.58754395 -88.16303711 78.05790039 -88.92919922 77.51220703 C-91.12922147 75.28279401 -91.53048886 73.83955285 -91.68359375 70.734375 C-88.53848784 66.89234222 -84.63112687 64.03219692 -80.68359375 61.046875 C-79.53513114 60.17321009 -78.38669441 59.29951116 -77.23828125 58.42578125 C-76.35994629 57.7608667 -76.35994629 57.7608667 -75.46386719 57.08251953 C-72.57169554 54.8923698 -69.68831565 52.69086065 -66.80859375 50.484375 C-66.26549561 50.06921631 -65.72239746 49.65405762 -65.1628418 49.22631836 C-62.19030112 46.94069973 -59.30798019 44.58942391 -56.49609375 42.109375 C-53.68359375 39.734375 -53.68359375 39.734375 -51.68359375 39.734375 C-51.68359375 39.074375 -51.68359375 38.414375 -51.68359375 37.734375 C-50.05859375 36.46484375 -50.05859375 36.46484375 -47.68359375 34.921875 C-42.89311599 31.66732726 -38.4049153 28.15580831 -33.93359375 24.484375 C-27.62168583 19.30734291 -21.26366185 14.20288967 -14.81640625 9.1953125 C-12.8481463 7.64917313 -10.90149572 6.07469231 -8.98828125 4.4609375 C-8.20710938 3.80867187 -7.4259375 3.15640625 -6.62109375 2.484375 C-5.97011719 1.92234375 -5.31914062 1.3603125 -4.6484375 0.78125 C-2.68359375 -0.265625 -2.68359375 -0.265625 0 0 Z " fill="#6CB0E4" transform="translate(156.68359375,227.265625)"/>
<path d="M0 0 C4.67727132 0.21076093 7.37045953 2.52316689 10.9375 5.375 C11.49961182 5.81980713 12.06172363 6.26461426 12.64086914 6.72290039 C13.83117805 7.66563295 15.0185431 8.61209292 16.203125 9.56201172 C18.52169694 11.41749932 20.86031576 13.2466732 23.19921875 15.07641602 C24.9583837 16.45385205 26.7140339 17.83565217 28.46875 19.21875 C30.79942093 21.05550391 33.13265643 22.88889793 35.46875 24.71875 C42.25894129 30.03942228 49.01331272 35.40215604 55.74365234 40.79833984 C59.6803645 43.95203676 63.63829639 47.0747887 67.62890625 50.16015625 C69.53748504 51.64111278 71.44035928 53.12852813 73.33984375 54.62109375 C73.93837158 55.09135986 74.53689941 55.56162598 75.15356445 56.04614258 C76.3762797 57.0088914 77.5974949 57.97354863 78.81713867 58.94018555 C81.47797455 61.04475419 84.14396666 63.10360943 86.8984375 65.0859375 C87.71570313 65.67632812 88.53296875 66.26671875 89.375 66.875 C90.08398438 67.36742187 90.79296875 67.85984375 91.5234375 68.3671875 C93 70 93 70 93.56640625 72.390625 C92.72794316 76.25333771 90.63866705 77.4709044 87.5625 79.875 C87.01190918 80.31207275 86.46131836 80.74914551 85.89404297 81.19946289 C84.27351378 82.48094854 82.63878215 83.74199218 81 85 C80.23816406 85.59941406 79.47632813 86.19882812 78.69140625 86.81640625 C77.2903628 87.91552351 75.88391115 89.00777527 74.47265625 90.09375 C71.32133805 92.52320226 68.19123086 94.9790625 65.0625 97.4375 C64.15310669 98.15172119 64.15310669 98.15172119 63.2253418 98.88037109 C59.78075701 101.58905254 56.35171787 104.31555598 52.9375 107.0625 C48.70215865 110.4618278 44.40560552 113.77750221 40.09521484 117.08056641 C36.0634559 120.17334219 32.05595463 123.29543896 28.0625 126.4375 C27.20289673 127.11377441 27.20289673 127.11377441 26.32592773 127.80371094 C23.90558491 129.70915194 21.48644377 131.61610782 19.06835938 133.52441406 C17.77369114 134.54607898 16.47869365 135.56732682 15.18334961 136.58813477 C13.96463338 137.54857158 12.74665894 138.50995065 11.52954102 139.47241211 C9.06716156 141.41237025 6.61012734 143.25991511 4 145 C-0.54054054 144.45945946 -0.54054054 144.45945946 -2 143 C-2.51171875 140.82421875 -2.51171875 140.82421875 -2 138 C0.12193322 135.59631632 2.63747572 133.74217019 5.1875 131.8125 C6.27973877 130.95712646 6.27973877 130.95712646 7.39404297 130.08447266 C9.58469218 128.37435912 11.79039568 126.68551522 14 125 C15.15571062 124.10645436 16.31072803 123.21201093 17.46484375 122.31640625 C19.56576783 120.69331904 21.67122796 119.07608583 23.78125 117.46484375 C31.47734569 111.58614504 39.0898637 105.59781556 46.5625 99.4375 C50.42409694 96.25902182 54.34184101 93.16551961 58.3125 90.125 C58.84456055 89.71620605 59.37662109 89.30741211 59.92480469 88.88623047 C62.25809363 87.09487119 64.59348459 85.30682916 66.94140625 83.53466797 C68.90476272 82.05206488 70.85900574 80.55806234 72.8125 79.0625 C73.73832886 78.37148193 73.73832886 78.37148193 74.68286133 77.66650391 C76.17841603 76.51417378 77.59739192 75.26381927 79 74 C79 73.01 79 72.02 79 71 C76.99982549 69.20045089 75.02569004 67.60172189 72.875 66 C71.58054068 65.01066323 70.28627509 64.02107295 68.9921875 63.03125 C68.32670898 62.52722656 67.66123047 62.02320313 66.97558594 61.50390625 C63.95553753 59.20490746 60.9788153 56.85200794 58 54.5 C56.83228612 53.58170706 55.66431647 52.66373928 54.49609375 51.74609375 C53.91843262 51.29218262 53.34077148 50.83827148 52.74560547 50.37060547 C51.00970323 49.00761873 49.27259153 47.64618806 47.53515625 46.28515625 C41.55745998 41.59963908 35.60550483 36.88572687 29.6875 32.125 C23.50620874 27.15374679 17.23092278 22.31501655 10.8972168 17.53955078 C7.56249988 15.01365268 4.26263877 12.45107212 1.03515625 9.7890625 C0.17869507 9.08450928 0.17869507 9.08450928 -0.69506836 8.36572266 C-2 7 -2 7 -2.5625 4.25 C-2 2 -2 2 0 0 Z " fill="#6CB0E4" transform="translate(268,227)"/>
<path d="M0 0 C4.70054872 0.48538275 6.99832401 2.35429353 10.5 5.4375 C11.56325683 6.35630878 12.62842447 7.27291015 13.6953125 8.1875 C14.2409082 8.65671875 14.78650391 9.1259375 15.34863281 9.609375 C17.95765122 11.80644313 20.66034214 13.87344893 23.375 15.9375 C23.90246826 16.34162109 24.42993652 16.74574219 24.97338867 17.16210938 C27.28904033 18.93582963 29.60821072 20.70450377 31.93701172 22.4609375 C33.90195384 23.94485564 35.85762538 25.44035576 37.8125 26.9375 C38.4297998 27.39825928 39.04709961 27.85901855 39.68310547 28.33374023 C41.17859298 29.48596962 42.59747714 30.73625751 44 32 C44 32.99 44 33.98 44 35 C41.97265625 37.0234375 41.97265625 37.0234375 39.0625 39.375 C38.53470947 39.80417725 38.00691895 40.23335449 37.46313477 40.67553711 C32.132815 44.97413285 26.67203082 49.10778567 21.21777344 53.24707031 C16.29847423 56.98450292 11.48597893 60.82580596 6.7265625 64.765625 C1.81719697 68.78877268 -3.19725808 72.67891355 -8.19726562 76.58837891 C-9.98301703 77.98670158 -11.76552313 79.38904696 -13.546875 80.79296875 C-14.12896729 81.25123047 -14.71105957 81.70949219 -15.31079102 82.18164062 C-16.47147924 83.09660266 -17.63084085 84.01325031 -18.78881836 84.93164062 C-21.74036669 87.2637695 -24.71843771 89.53755701 -27.76953125 91.73828125 C-28.67723267 92.40331665 -28.67723267 92.40331665 -29.60327148 93.08178711 C-30.75575395 93.92300243 -31.91770051 94.75145261 -33.09008789 95.56469727 C-34.85800358 96.81012637 -34.85800358 96.81012637 -37 99 C-37.47180069 101.69654324 -37.47180069 101.69654324 -37 104 C-33.41902891 104.89667317 -33.41902891 104.89667317 -29.8125 104.4375 C-28.9153125 104.2209375 -28.9153125 104.2209375 -28 104 C-27.34 104.66 -26.68 105.32 -26 106 C-26.474375 106.433125 -26.94875 106.86625 -27.4375 107.3125 C-29.23686957 109.02309613 -29.23686957 109.02309613 -30 112 C-37.08110642 112.60009376 -37.08110642 112.60009376 -41.0625 110 C-43.32292745 106.49998331 -43.50060135 104.92541274 -42.72265625 100.9375 C-41.54938668 97.79186916 -39.60115234 96.03016768 -37 94 C-36.34 94 -35.68 94 -35 94 C-34.34 92.35 -33.68 90.7 -33 89 C-32.34 89 -31.68 89 -31 89 C-30.67 88.01 -30.34 87.02 -30 86 C-26.93907988 82.69742829 -24.07922287 79.9451013 -19.9375 78.0625 C-17.67738896 77.01748702 -17.67738896 77.01748702 -16 74 C-13.375 73.8125 -13.375 73.8125 -11 74 C-10.92265625 73.45472656 -10.8453125 72.90945313 -10.765625 72.34765625 C-8.99952324 64.52061437 -4.11436635 61.55522749 2.26904297 57.2109375 C5.2328588 55.1375205 8.04598295 52.87700725 10.875 50.625 C12.04139988 49.70408908 13.20806956 48.78351978 14.375 47.86328125 C14.9628125 47.39873535 15.550625 46.93418945 16.15625 46.45556641 C19.39106371 43.9018112 22.63351732 41.35778083 25.875 38.8125 C27.05992823 37.88155166 28.24482718 36.95056603 29.4296875 36.01953125 C30.27789062 35.35308594 31.12609375 34.68664062 32 34 C28.50767886 30.36566211 24.84781543 27.21293021 20.8125 24.1875 C19.66642052 23.31151986 18.52059019 22.43521366 17.375 21.55859375 C15.26162432 19.95009341 13.13690773 18.36279516 11 16.78515625 C10.113125 16.11355469 9.22625 15.44195312 8.3125 14.75 C7.52488281 14.16734375 6.73726563 13.5846875 5.92578125 12.984375 C3.54988724 10.53619212 3.04070878 8.20626876 2 5 C1.01 4.67 0.02 4.34 -1 4 C-0.67 2.68 -0.34 1.36 0 0 Z " fill="#224F8F" transform="translate(304,266)"/>
<path d="M0 0 C0.99 0 1.98 0 3 0 C3.495 1.98 3.495 1.98 4 4 C-3.94622472 10.70917509 -12.02129483 17.21915248 -20.22216797 23.61328125 C-23.13153249 25.88260156 -26.0350943 28.15928957 -28.9375 30.4375 C-29.50428467 30.88206543 -30.07106934 31.32663086 -30.6550293 31.78466797 C-35.83857328 35.85771294 -40.98347407 39.97858194 -46.11499023 44.11694336 C-48.6905152 46.1874771 -51.24839933 48.16559955 -54 50 C-54.25030977 52.58380177 -54.25030977 52.58380177 -54 55 C-50.41902891 55.89667317 -50.41902891 55.89667317 -46.8125 55.4375 C-46.214375 55.293125 -45.61625 55.14875 -45 55 C-44.34 55.66 -43.68 56.32 -43 57 C-43.474375 57.433125 -43.94875 57.86625 -44.4375 58.3125 C-46.23686957 60.02309613 -46.23686957 60.02309613 -47 63 C-54.08110642 63.60009376 -54.08110642 63.60009376 -58.0625 61 C-60.32292745 57.49998331 -60.50060135 55.92541274 -59.72265625 51.9375 C-58.54938668 48.79186916 -56.60115234 47.03016768 -54 45 C-53.34 45 -52.68 45 -52 45 C-51.34 43.35 -50.68 41.7 -50 40 C-49.34 40 -48.68 40 -48 40 C-47.67 39.01 -47.34 38.02 -47 37 C-43.93907988 33.69742829 -41.07922287 30.9451013 -36.9375 29.0625 C-34.67738896 28.01748702 -34.67738896 28.01748702 -33 25 C-30.375 24.8125 -30.375 24.8125 -28 25 C-27.7525 24.05125 -27.505 23.1025 -27.25 22.125 C-26 19 -26 19 -24.0625 17.625 C-22 17 -22 17 -19 17 C-16.93330603 16.09166275 -16.93330603 16.09166275 -15 15 C-14.34 14.67 -13.68 14.34 -13 14 C-13 13.01 -13 12.02 -13 11 C-10.20427615 6.74851462 -7.5089654 3.43897175 -2.5625 2 C-1.716875 2 -0.87125 2 0 2 C0 1.34 0 0.68 0 0 Z " fill="#224F8F" transform="translate(321,315)"/>
<path d="M0 0 C0.66 0.33 1.32 0.66 2 1 C0.6875 3.9375 0.6875 3.9375 -1 7 C-1.99 7.33 -2.98 7.66 -4 8 C-4.66 7.67 -5.32 7.34 -6 7 C-6.2475 7.61875 -6.495 8.2375 -6.75 8.875 C-8.26029304 11.44249816 -9.36091208 11.71815729 -12 13 C-13.68873879 14.64429829 -15.35305515 16.31384218 -17 18 C-18.05430093 18.86426644 -19.11689251 19.71851745 -20.1875 20.5625 C-23.00422443 22.68926968 -23.00422443 22.68926968 -24 25 C-25 27 -25 27 -28.0625 29.25 C-30.65128917 31.30449362 -31.54937318 32.79657518 -32.125 36.0625 C-32.31856812 39.90584102 -32.31856812 39.90584102 -30.5625 42.4375 C-27.00125339 44.60899184 -24.14901377 44.72339908 -20 45 C-20.495 43.515 -20.495 43.515 -21 42 C-19.68 41.01 -18.36 40.02 -17 39 C-17.66 38.01 -18.32 37.02 -19 36 C-18.40574219 35.52691406 -17.81148438 35.05382812 -17.19921875 34.56640625 C-10.75785587 29.42734069 -4.36781641 24.22984161 2 19 C2 19.99 2 20.98 2 22 C2.99 22.33 3.98 22.66 5 23 C5.66 22.67 6.32 22.34 7 22 C7.66 22.33 8.32 22.66 9 23 C7.76407772 26.70776684 6.55986069 27.25319289 3.375 29.4375 C-0.14532572 31.88344059 -3.46457782 34.35528624 -6.6796875 37.19140625 C-17.6669126 46.79111308 -17.6669126 46.79111308 -24.125 47 C-28.39651262 46.46685429 -31.13013663 45.33274456 -34 42 C-35.79889321 39.02058312 -36.26744674 37.02394122 -35.9375 33.5625 C-35.88464844 32.82128906 -35.83179688 32.08007812 -35.77734375 31.31640625 C-33.77219536 25.34126556 -26.72975229 21.22285793 -21.9375 17.375 C-21.23044922 16.80265625 -20.52339844 16.2303125 -19.79492188 15.640625 C-17.86931448 14.08567442 -15.94303515 12.5331219 -14 11 C-13.30463135 10.44393066 -12.6092627 9.88786133 -11.89282227 9.31494141 C-10 8 -10 8 -8 8 C-8 7.34 -8 6.68 -8 6 C-6.25 4.4921875 -6.25 4.4921875 -4 2.875 C-3.2575 2.33617187 -2.515 1.79734375 -1.75 1.2421875 C-0.88375 0.62730469 -0.88375 0.62730469 0 0 Z " fill="#355EA3" transform="translate(294,333)"/>
<path d="M0 0 C2.0625 0.4375 2.0625 0.4375 4 1 C4.97281259 4.05509986 5.00207592 5.91018932 4.07421875 8.96875 C3.85443359 9.70480469 3.63464844 10.44085938 3.40820312 11.19921875 C3.05145508 12.33810547 3.05145508 12.33810547 2.6875 13.5 C2.46126953 14.25925781 2.23503906 15.01851563 2.00195312 15.80078125 C0.9208926 19.35862311 -0.15757321 22.74764097 -2 26 C-2.66 26 -3.32 26 -4 26 C-4.09152344 26.63292969 -4.18304688 27.26585937 -4.27734375 27.91796875 C-5.28634287 32.22121363 -6.92836994 36.21261331 -8.5625 40.3125 C-8.89185547 41.14845703 -9.22121094 41.98441406 -9.56054688 42.84570312 C-10.36998877 44.89863546 -11.18323457 46.94997286 -12 49 C-12.66 48.67 -13.32 48.34 -14 48 C-14.99 48.495 -14.99 48.495 -16 49 C-16.33 49.99 -16.66 50.98 -17 52 C-17.99 51.67 -18.98 51.34 -20 51 C-18.92056409 47.87364051 -17.83570991 44.74918566 -16.75 41.625 C-16.29947266 40.31982422 -16.29947266 40.31982422 -15.83984375 38.98828125 C-13.72665704 32.91848964 -11.41706045 26.95430659 -9 21 C-8.29657219 19.22850101 -7.59476633 17.45635718 -6.89453125 15.68359375 C-6.20052083 13.93489583 -5.50651042 12.18619792 -4.8125 10.4375 C-4.45736328 9.53708984 -4.10222656 8.63667969 -3.73632812 7.70898438 C-3.39666016 6.85498047 -3.05699219 6.00097656 -2.70703125 5.12109375 C-2.4025708 4.3520874 -2.09811035 3.58308105 -1.78442383 2.79077148 C-1 1 -1 1 0 0 Z " fill="#2A5295" transform="translate(213,311)"/>
<path d="M0 0 C0.77085937 -0.01417969 1.54171875 -0.02835938 2.3359375 -0.04296875 C7.56308871 0.48331439 10.04736059 3.60986059 13.625 7.1875 C16.57780101 9.58354391 19.59178113 11.89441297 22.625 14.1875 C17.71410725 14.1875 13.76104064 13.94486043 9.625 11.1875 C8.305 11.1875 6.985 11.1875 5.625 11.1875 C4.8 10.671875 3.975 10.15625 3.125 9.625 C0.78003943 7.91533494 0.78003943 7.91533494 -1.53125 8.59765625 C-2.1396875 8.79230469 -2.748125 8.98695313 -3.375 9.1875 C-3.45626087 11.27018593 -3.51430839 13.35378658 -3.5625 15.4375 C-3.59730469 16.59765625 -3.63210938 17.7578125 -3.66796875 18.953125 C-3.35482934 22.41018407 -2.71790892 23.70315563 -0.375 26.1875 C-4.79929522 24.31568279 -8.98346779 21.40568501 -11.55859375 17.30078125 C-13.00617907 13.55368242 -12.44756405 9.99578123 -11.375 6.1875 C-7.86047591 1.86193188 -5.49944964 0.04567649 0 0 Z " fill="#3B60A7" transform="translate(270.375,219.8125)"/>
<path d="M0 0 C0.721875 0.309375 1.44375 0.61875 2.1875 0.9375 C4.89290611 2.05733972 4.89290611 2.05733972 7.4375 2.4375 C13.05490405 3.67058869 17.32181143 6.82682591 21.6875 10.4375 C23.08548828 11.58025391 23.08548828 11.58025391 24.51171875 12.74609375 C26.72456717 14.75051061 28.47817526 16.43987342 30 19 C30 20.32 30 21.64 30 23 C30.928125 23.12375 31.85625 23.2475 32.8125 23.375 C36 24 36 24 39 26 C38.505 28.475 38.505 28.475 38 31 C33.13099097 31 31.31050274 29.26377789 27.75 26.3125 C27.14808838 25.82644287 26.54617676 25.34038574 25.92602539 24.83959961 C23.94334152 23.23522269 21.97198204 21.61750544 20 20 C18.56722638 18.83753011 17.13362138 17.67608422 15.69921875 16.515625 C12.96049301 14.29825079 10.22593232 12.0759615 7.49609375 9.84765625 C4.67759113 7.54797112 1.84534875 5.26644862 -1 3 C-0.67 2.01 -0.34 1.02 0 0 Z " fill="#234E90" transform="translate(280,230)"/>
<path d="M0 0 C1.32 0.66 2.64 1.32 4 2 C4 2.66 4 3.32 4 4 C2.35 4.66 0.7 5.32 -1 6 C-1 6.66 -1 7.32 -1 8 C-2.73046875 9.59375 -2.73046875 9.59375 -5.1875 11.5 C-6.09757812 12.21027344 -7.00765625 12.92054688 -7.9453125 13.65234375 C-8.95335938 14.42707031 -9.96140625 15.20179688 -11 16 C-12.08084725 16.83448249 -13.16157402 17.66912106 -14.2421875 18.50390625 C-15.90211689 19.78538838 -17.564078 21.06370027 -19.2331543 22.33325195 C-21.75129598 24.24996831 -24.22826127 26.19161844 -26.65234375 28.2265625 C-27.81443359 29.19722656 -27.81443359 29.19722656 -29 30.1875 C-29.66 30.75855469 -30.32 31.32960938 -31 31.91796875 C-33 33 -33 33 -35.75 32.67578125 C-36.86375 32.34126953 -36.86375 32.34126953 -38 32 C-38 30.68 -38 29.36 -38 28 C-36.07597363 26.14468886 -34.72297831 25.1166094 -32.0625 24.6875 C-28.73127486 23.57709162 -27.19567495 20.64606981 -25 18 C-24.01 18 -23.02 18 -22 18 C-21.979375 17.29875 -21.95875 16.5975 -21.9375 15.875 C-20.52909128 11.55587992 -17.83344405 9.33711831 -14 7 C-11.69978361 6.27774775 -9.46509261 5.82774644 -7.08984375 5.42578125 C-4.28766715 4.8548705 -2.25024106 3.74212211 0 2 C0 1.34 0 0.68 0 0 Z " fill="#244E90" transform="translate(106,259)"/>
<path d="M0 0 C1.39018439 3.72961603 0.58462446 5.79780159 -0.9140625 9.40234375 C-1.34283691 10.45075439 -1.77161133 11.49916504 -2.21337891 12.5793457 C-2.67921387 13.68753662 -3.14504883 14.79572754 -3.625 15.9375 C-4.56304401 18.22113078 -5.50055065 20.50498237 -6.4375 22.7890625 C-6.88738281 23.87606445 -7.33726562 24.96306641 -7.80078125 26.08300781 C-9.12712467 29.30921937 -10.39182341 32.54972027 -11.625 35.8125 C-14.96412509 44.58825115 -18.49830327 53.2881753 -22 62 C-23.21065165 58.36804504 -22.62784815 56.93468371 -21.5625 53.3125 C-21.27503906 52.31863281 -20.98757812 51.32476562 -20.69140625 50.30078125 C-20.46324219 49.54152344 -20.23507813 48.78226562 -20 48 C-21.32 47.67 -22.64 47.34 -24 47 C-23.3739457 42.0302109 -21.93436797 37.78861433 -20.0625 33.1875 C-19.79759766 32.50751953 -19.53269531 31.82753906 -19.25976562 31.12695312 C-17.25000975 26.12500487 -17.25000975 26.12500487 -15 25 C-14.34 25.33 -13.68 25.66 -13 26 C-12.67 24.68 -12.34 23.36 -12 22 C-11.38415039 21.93176025 -10.76830078 21.86352051 -10.13378906 21.79321289 C-7.82190106 21.19071098 -7.82190106 21.19071098 -6.81152344 18.95874023 C-6.49731445 18.08419189 -6.18310547 17.20964355 -5.859375 16.30859375 C-5.51132813 15.36435547 -5.16328125 14.42011719 -4.8046875 13.44726562 C-4.45664063 12.45404297 -4.10859375 11.46082031 -3.75 10.4375 C-3.38648438 9.44041016 -3.02296875 8.44332031 -2.6484375 7.41601562 C-1.7512657 4.94879318 -0.86926866 2.47716262 0 0 Z " fill="#3A61A9" transform="translate(209,337)"/>
<path d="M0 0 C6.10716391 0.12974248 9.41223171 3.32962458 13.8125 7.125 C15.22713249 8.31467316 16.64249246 9.50348183 18.05859375 10.69140625 C18.73519043 11.26391113 19.41178711 11.83641602 20.10888672 12.42626953 C23.10998512 14.92369792 26.24261374 17.23835015 29.3984375 19.53515625 C31.20994579 21.19202359 32.04444804 22.75590069 33 25 C31.35 25.66 29.7 26.32 28 27 C27.34 26.01 26.68 25.02 26 24 C24.515 23.6596875 24.515 23.6596875 23 23.3125 C17.37903737 21.90725934 13.0742404 17.96352734 9 14 C7.95548562 12.02288349 6.94301862 10.02749004 6 8 C4.01612292 6.96838392 2.01723344 5.96476382 0 5 C-0.9375 2.875 -0.9375 2.875 -1 1 C-0.67 0.67 -0.34 0.34 0 0 Z " fill="#224E8F" transform="translate(101,333)"/>
<path d="M0 0 C2.375 -0.1875 2.375 -0.1875 5 0 C5.66 0.99 6.32 1.98 7 3 C8.97536745 2.65213292 8.97536745 2.65213292 11 2 C11.33 1.34 11.66 0.68 12 0 C12.73605469 0.60328125 13.47210938 1.2065625 14.23046875 1.828125 C15.69419922 3.02695312 15.69419922 3.02695312 17.1875 4.25 C18.15042969 5.03890625 19.11335938 5.8278125 20.10546875 6.640625 C22.72500523 8.77584772 25.35729197 10.89356361 28 13 C27.34 14.32 26.68 15.64 26 17 C27.84188612 19.05270463 27.84188612 19.05270463 30 20 C30 20.66 30 21.32 30 22 C33.3 21.67 36.6 21.34 40 21 C39.67 21.66 39.34 22.32 39 23 C33.32135458 24.47644781 30.11988326 23.7427946 25 21 C22.51205452 19.44685987 20.30615372 17.83551011 18 16 C18 15.34 18 14.68 18 14 C17.27425781 13.7421875 16.54851562 13.484375 15.80078125 13.21875 C12.87952333 11.94757501 10.69127351 10.45983598 8.1875 8.5 C7.39730469 7.8915625 6.60710937 7.283125 5.79296875 6.65625 C5.20128906 6.1096875 4.60960938 5.563125 4 5 C4 4.34 4 3.68 4 3 C2.68 2.34 1.36 1.68 0 1 C0 0.67 0 0.34 0 0 Z " fill="#375DA4" transform="translate(123,356)"/>
<path d="M0 0 C4.5396769 1.76970455 6.23688814 3.22551087 8.6875 7.4375 C9.00989665 11.37342577 8.84919669 14.99527996 6.3125 18.14453125 C3.50934481 20.37492637 0.94098764 20.55640963 -2.5 20.5 C-4.3871875 20.4690625 -4.3871875 20.4690625 -6.3125 20.4375 C-6.3125 19.7775 -6.3125 19.1175 -6.3125 18.4375 C-7.6325 18.4375 -8.9525 18.4375 -10.3125 18.4375 C-10.6425 17.1175 -10.9725 15.7975 -11.3125 14.4375 C-7.70790587 12.08064999 -5.42132128 12.61573574 -1.3125 13.4375 C-0.07413834 12.39407219 -0.07413834 12.39407219 0.0625 10.125 C-0.04348081 7.18879984 -0.04348081 7.18879984 -2.8125 5.3125 C-3.6375 4.69375 -4.4625 4.075 -5.3125 3.4375 C-5.3125 2.4475 -5.3125 1.4575 -5.3125 0.4375 C-3.3125 -0.5625 -3.3125 -0.5625 0 0 Z " fill="#30569D" transform="translate(159.3125,357.5625)"/>
<path d="M0 0 C0.99 0 1.98 0 3 0 C3.68473395 2.32809543 4.34853151 4.66237777 5 7 C5.2475 7.86625 5.495 8.7325 5.75 9.625 C6.07836097 12.74442918 5.51103861 14.25265706 4 17 C1.375 19.8125 1.375 19.8125 -1 22 C-0.34 22 0.32 22 1 22 C1 22.66 1 23.32 1 24 C0.34 24 -0.32 24 -1 24 C-0.979375 24.94875 -0.95875 25.8975 -0.9375 26.875 C-1 30 -1 30 -2 32 C-2.66 32 -3.32 32 -4 32 C-4.28875 32.763125 -4.5775 33.52625 -4.875 34.3125 C-6 37 -6 37 -8 40 C-8 38.68 -8 37.36 -8 36 C-8.66 36 -9.32 36 -10 36 C-9.36551698 30.13347237 -7.21627625 25.00221453 -5.0625 19.5625 C-1.59326896 10.92336351 -1.59326896 10.92336351 1 2 C0.67 1.34 0.34 0.68 0 0 Z " fill="#224E8F" transform="translate(259,183)"/>
<path d="M0 0 C1.13585819 3.40757456 0.92413956 3.846484 -0.40625 7 C-0.73488037 7.79615723 -1.06351074 8.59231445 -1.40209961 9.41259766 C-1.76440674 10.26644043 -2.12671387 11.1202832 -2.5 12 C-3.24319893 13.7985249 -3.98402431 15.59803218 -4.72265625 17.3984375 C-5.10180176 18.32108398 -5.48094727 19.24373047 -5.87158203 20.19433594 C-7.98279857 25.44360043 -9.9002205 30.76338243 -11.828125 36.08203125 C-13.91718259 41.83436517 -13.91718259 41.83436517 -15 44 C-15.66 44 -16.32 44 -17 44 C-17 43.34 -17 42.68 -17 42 C-19.97 42.495 -19.97 42.495 -23 43 C-21.17778624 36.38757278 -18.94776396 30.19479329 -16 24 C-14.68 24.33 -13.36 24.66 -12 25 C-11.54625 24.175 -11.0925 23.35 -10.625 22.5 C-10.08875 21.675 -9.5525 20.85 -9 20 C-8.34 20 -7.68 20 -7 20 C-6.67 17.36 -6.34 14.72 -6 12 C-5.34 12 -4.68 12 -4 12 C-4 11.34 -4 10.68 -4 10 C-4.66 10 -5.32 10 -6 10 C-5.1875 8.0625 -5.1875 8.0625 -4 6 C-3.01 5.67 -2.02 5.34 -1 5 C-0.67 3.35 -0.34 1.7 0 0 Z " fill="#255092" transform="translate(264,195)"/>
<path d="M0 0 C2 3 2 3 2.0625 5.3125 C0.49384014 9.28028669 -2.42545945 11.72883995 -6 14 C-6.99 14 -7.98 14 -9 14 C-9 13.01 -9 12.02 -9 11 C-9.99 11 -10.98 11 -12 11 C-12 11.66 -12 12.32 -12 13 C-13.03125 13.350625 -14.0625 13.70125 -15.125 14.0625 C-19.50274007 15.92593722 -22.50160121 18.97327668 -25 23 C-25 23.99 -25 24.98 -25 26 C-27.25 28.25 -27.25 28.25 -30 30 C-32.125 29.75 -32.125 29.75 -34 29 C-34.99 29 -35.98 29 -37 29 C-37 28.34 -37 27.68 -37 27 C-35.34501189 25.62084324 -33.62169626 24.32349612 -31.875 23.0625 C-30.77620824 22.25936372 -29.67860188 21.45460378 -28.58203125 20.6484375 C-28.00018066 20.22143555 -27.41833008 19.79443359 -26.81884766 19.35449219 C-23.6882712 17.0231582 -20.62602756 14.60588085 -17.5625 12.1875 C-16.98419434 11.73189697 -16.40588867 11.27629395 -15.81005859 10.80688477 C-13.27650807 8.80793327 -10.75520473 6.79885581 -8.26171875 4.75 C-5.91888813 2.93723987 -3.77092559 2.00061202 -1 1 C-0.67 0.67 -0.34 0.34 0 0 Z " fill="#35599F" transform="translate(333,304)"/>
<path d="M0 0 C-0.40260143 1.39995496 -0.82288382 2.79482862 -1.25 4.1875 C-1.48203125 4.96480469 -1.7140625 5.74210937 -1.953125 6.54296875 C-4.79332898 13.20896989 -10.88901962 18.34408597 -17 22 C-20.31508726 22.63958237 -22.60460153 22.43811593 -26 22 C-26 21.01 -26 20.02 -26 19 C-23.796875 16.8359375 -23.796875 16.8359375 -20.75 14.375 C-20.21584473 13.94203613 -19.68168945 13.50907227 -19.13134766 13.06298828 C-17.43131274 11.69490991 -15.71856501 10.34471191 -14 9 C-13.43442383 8.5565625 -12.86884766 8.113125 -12.28613281 7.65625 C-2.45947266 0 -2.45947266 0 0 0 Z " fill="#2B5397" transform="translate(342,318)"/>
<path d="M0 0 C-1.14292685 3.42878055 -1.92318152 3.96301985 -4.75 6.0625 C-5.554375 6.66835938 -6.35875 7.27421875 -7.1875 7.8984375 C-8.115625 8.59195312 -9.04375 9.28546875 -10 10 C-12.25505562 11.72261193 -14.50214973 13.45550255 -16.75 15.1875 C-17.29237305 15.60330322 -17.83474609 16.01910645 -18.39355469 16.44750977 C-21.62646873 18.92776411 -24.82680709 21.44381682 -28 24 C-28.66 23.67 -29.32 23.34 -30 23 C-29.2884375 22.1028125 -29.2884375 22.1028125 -28.5625 21.1875 C-26.83534256 18.99617076 -26.83534256 18.99617076 -26 16 C-25.34 16 -24.68 16 -24 16 C-24.14695312 14.65228516 -24.14695312 14.65228516 -24.296875 13.27734375 C-24 10 -24 10 -21.953125 7.62890625 C-21.06109375 6.94699219 -20.1690625 6.26507813 -19.25 5.5625 C-18.36828125 4.86253906 -17.4865625 4.16257812 -16.578125 3.44140625 C-14 2 -14 2 -11.82421875 2.3671875 C-11.22222656 2.57601563 -10.62023437 2.78484375 -10 3 C-4.28958785 -0.36767896 -4.28958785 -0.36767896 0 0 Z " fill="#34599F" transform="translate(365,307)"/>
<path d="M0 0 C0.66 0.33 1.32 0.66 2 1 C0.6875 3.9375 0.6875 3.9375 -1 7 C-1.99 7.33 -2.98 7.66 -4 8 C-4.66 7.67 -5.32 7.34 -6 7 C-6.2475 7.61875 -6.495 8.2375 -6.75 8.875 C-8.26029304 11.44249816 -9.36091208 11.71815729 -12 13 C-13.68873879 14.64429829 -15.35305515 16.31384218 -17 18 C-18.05430093 18.86426644 -19.11689251 19.71851745 -20.1875 20.5625 C-23.00422443 22.68926968 -23.00422443 22.68926968 -24 25 C-25 27 -25 27 -28.0625 29.1875 C-30.20653788 30.84639062 -30.91091785 31.66296309 -31.61328125 34.3203125 C-31.84831522 36.55839714 -31.99019735 38.75029232 -32 41 C-32.99 40.67 -33.98 40.34 -35 40 C-36.19857711 37.60284579 -36.08022212 36.34200348 -35.875 33.6875 C-35.83117187 32.92824219 -35.78734375 32.16898437 -35.7421875 31.38671875 C-33.86868362 25.36192469 -26.72654457 21.22028235 -21.9375 17.375 C-21.23044922 16.80265625 -20.52339844 16.2303125 -19.79492188 15.640625 C-17.86931448 14.08567442 -15.94303515 12.5331219 -14 11 C-13.30463135 10.44393066 -12.6092627 9.88786133 -11.89282227 9.31494141 C-10 8 -10 8 -8 8 C-8 7.34 -8 6.68 -8 6 C-6.25 4.4921875 -6.25 4.4921875 -4 2.875 C-3.2575 2.33617187 -2.515 1.79734375 -1.75 1.2421875 C-0.88375 0.62730469 -0.88375 0.62730469 0 0 Z " fill="#2A4B93" transform="translate(294,333)"/>
<path d="M0 0 C0.625 1.8125 0.625 1.8125 1 4 C0.01 5.485 0.01 5.485 -1 7 C0.98 6.67 2.96 6.34 5 6 C4.35083537 12.00477279 2.14204997 17.400781 0 23 C-0.66 22.34 -1.32 21.68 -2 21 C-5.24716062 24.48783514 -5.24716062 24.48783514 -6 29 C-6.3062434 30.33981486 -6.63451555 31.67511887 -7 33 C-9.475 33.495 -9.475 33.495 -12 34 C-11.38108537 28.27972844 -9.30752648 23.38966065 -7.125 18.125 C-6.41846149 16.39876854 -5.71272202 14.6722098 -5.0078125 12.9453125 C-4.66911133 12.11805664 -4.33041016 11.29080078 -3.98144531 10.43847656 C-2.59015071 6.98169783 -1.28965444 3.49585575 0 0 Z " fill="#234D8F" transform="translate(225,233)"/>
<path d="M0 0 C-6.56333988 5.48598819 -13.24357616 10.81693657 -20 16.0625 C-20.7417749 16.64668701 -21.4835498 17.23087402 -22.24780273 17.83276367 C-22.94977783 18.37392822 -23.65175293 18.91509277 -24.375 19.47265625 C-25.00148438 19.96000244 -25.62796875 20.44734863 -26.2734375 20.94946289 C-28 22 -28 22 -31 22 C-30.01 20.515 -30.01 20.515 -29 19 C-29.66 17.35 -30.32 15.7 -31 14 C-27.37 11.03 -23.74 8.06 -20 5 C-19.01 5.66 -18.02 6.32 -17 7 C-13.92217096 7.39459347 -12.44831417 7.2615166 -9.75 5.6875 C-7.74873798 4.01854614 -7.74873798 4.01854614 -7 1 C-2.55696203 -1.27848101 -2.55696203 -1.27848101 0 0 Z " fill="#31569C" transform="translate(131,267)"/>
<path d="M0 0 C3.92159664 2.47679788 7.63515195 5.17208241 11.3125 8 C12.60607422 8.99 12.60607422 8.99 13.92578125 10 C16.07347919 12.07084999 16.65553012 13.08825458 17 16 C14 18 14 18 11.6875 17.9375 C6.4675742 16.11659565 1.80784503 11.71717964 -1 7 C-0.75 3.1875 -0.75 3.1875 0 0 Z " fill="#244F90" transform="translate(267,235)"/>
<path d="M0 0 C3.00649796 0.33405533 4.30914718 1.23888646 6.75 3.125 C9.58099334 6.74238038 9.48186717 8.50257304 9 13 C8.67866539 14.66902156 8.34756565 16.3362431 8 18 C7.28972656 18.12117188 6.57945312 18.24234375 5.84765625 18.3671875 C4.92855469 18.53476562 4.00945312 18.70234375 3.0625 18.875 C1.68771484 19.11863281 1.68771484 19.11863281 0.28515625 19.3671875 C-0.46894531 19.57601563 -1.22304688 19.78484375 -2 20 C-2.33 20.66 -2.66 21.32 -3 22 C-3.66 21.01 -4.32 20.02 -5 19 C-4.4946875 18.62488281 -3.989375 18.24976563 -3.46875 17.86328125 C0.58765312 14.79795046 0.58765312 14.79795046 2.75 10.375 C1.7119675 7.08789707 -0.26296162 5.98435283 -3 4 C-3 3.34 -3 2.68 -3 2 C-2.01 1.67 -1.02 1.34 0 1 C0 0.67 0 0.34 0 0 Z " fill="#234D90" transform="translate(358,289)"/>
<path d="M0 0 C2.475 0.495 2.475 0.495 5 1 C4.01 2.485 4.01 2.485 3 4 C3 4.99 3 5.98 3 7 C1.71826172 8.37866211 1.71826172 8.37866211 -0.0703125 9.77734375 C-0.72 10.29103516 -1.3696875 10.80472656 -2.0390625 11.33398438 C-2.72742188 11.86314453 -3.41578125 12.39230469 -4.125 12.9375 C-5.12273437 13.72543945 -5.12273437 13.72543945 -6.140625 14.52929688 C-9.98475969 17.54053572 -13.89944646 20.34933066 -18 23 C-18.1810605 18.7450783 -17.80152406 16.8813807 -14.8828125 13.671875 C-11.46061205 10.60509597 -7.93701069 7.72171488 -4.296875 4.91796875 C-1.81538659 3.02980044 -1.81538659 3.02980044 0 0 Z " fill="#234F8F" transform="translate(136,233)"/>
<path d="M0 0 C4.50469893 2.12339338 8.2783613 5.02477949 12.25 8 C12.99507813 8.5465625 13.74015625 9.093125 14.5078125 9.65625 C15.56355469 10.44515625 15.56355469 10.44515625 16.640625 11.25 C17.28547852 11.72953125 17.93033203 12.2090625 18.59472656 12.703125 C19.0584668 13.13109375 19.52220703 13.5590625 20 14 C20 14.66 20 15.32 20 16 C21.32 16.33 22.64 16.66 24 17 C23.67 17.99 23.34 18.98 23 20 C22.34 20 21.68 20 21 20 C20.34 21.32 19.68 22.64 19 24 C17.68103535 23.07161713 16.37001311 22.13194268 15.0625 21.1875 C14.33160156 20.66542969 13.60070312 20.14335937 12.84765625 19.60546875 C11 18 11 18 10 15 C10.4375 12.3125 10.4375 12.3125 11 10 C10.16855469 9.76216797 10.16855469 9.76216797 9.3203125 9.51953125 C3.33137348 7.59070925 3.33137348 7.59070925 1.5625 4.4375 C1.2840625 3.2309375 1.2840625 3.2309375 1 2 C0.67 1.34 0.34 0.68 0 0 Z " fill="#305A9E" transform="translate(307,246)"/>
<path d="M0 0 C0 0.66 0 1.32 0 2 C-0.66 2 -1.32 2 -2 2 C-2.33 3.32 -2.66 4.64 -3 6 C-2.01 6.33 -1.02 6.66 0 7 C0.06058594 7.74765625 0.12117188 8.4953125 0.18359375 9.265625 C0.26738281 10.25046875 0.35117187 11.2353125 0.4375 12.25 C0.51871094 13.22453125 0.59992188 14.1990625 0.68359375 15.203125 C1.14582115 19.28898691 1.6915196 21.5372794 4 25 C-0.42429522 23.12818279 -4.60846779 20.21818501 -7.18359375 16.11328125 C-8.63154727 12.36522931 -8.07095671 8.80935235 -7 5 C-3.02040816 0 -3.02040816 0 0 0 Z " fill="#254E91" transform="translate(266,221)"/>
<path d="M0 0 C0.66 0 1.32 0 2 0 C2.33 0.66 2.66 1.32 3 2 C3.99 2.66 4.98 3.32 6 4 C5.236875 4.433125 4.47375 4.86625 3.6875 5.3125 C1.41906232 6.73686785 -0.2199723 8.03260097 -2 10 C-2.33 9.01 -2.66 8.02 -3 7 C-3.99 7.33 -4.98 7.66 -6 8 C-6 8.66 -6 9.32 -6 10 C-5.34 10 -4.68 10 -4 10 C-4 10.99 -4 11.98 -4 13 C-5.32 13 -6.64 13 -8 13 C-8 13.66 -8 14.32 -8 15 C-9.98 15 -11.96 15 -14 15 C-14.33 15.99 -14.66 16.98 -15 18 C-15.99 18 -16.98 18 -18 18 C-18 18.66 -18 19.32 -18 20 C-18.66 19.67 -19.32 19.34 -20 19 C-20 18.01 -20 17.02 -20 16 C-19.34 16 -18.68 16 -18 16 C-18 15.34 -18 14.68 -18 14 C-16.45532227 12.59545898 -16.45532227 12.59545898 -14.31640625 10.99609375 C-13.55392578 10.42052734 -12.79144531 9.84496094 -12.00585938 9.25195312 C-10.79639648 8.35379883 -10.79639648 8.35379883 -9.5625 7.4375 C-7.98013724 6.24913921 -6.39808922 5.06035917 -4.81640625 3.87109375 C-4.10943604 3.34443115 -3.40246582 2.81776855 -2.67407227 2.27514648 C-1.06050314 1.10518454 -1.06050314 1.10518454 0 0 Z " fill="#224F8F" transform="translate(153,239)"/>
<path d="M0 0 C0.15106201 0.60884033 0.30212402 1.21768066 0.45776367 1.8449707 C0.84759621 3.39429616 1.25583133 4.93903408 1.67578125 6.48046875 C3.33957343 13.55413735 2.72787613 17.76119904 -1 24 C-1.61359375 23.80535156 -2.2271875 23.61070312 -2.859375 23.41015625 C-5.1309313 22.72068296 -5.1309313 22.72068296 -7.25 24.4375 C-8.11625 25.2109375 -8.11625 25.2109375 -9 26 C-8.38443385 20.11792344 -6.17339219 15.03902565 -3.9375 9.625 C-3.56044922 8.69816406 -3.18339844 7.77132813 -2.79492188 6.81640625 C-1.86873604 4.54197521 -0.93697332 2.27000333 0 0 Z " fill="#2B5598" transform="translate(205,285)"/>
<path d="M0 0 C0.66 0.33 1.32 0.66 2 1 C1.45371735 7.32127063 -0.63299245 12.60919951 -3.0625 18.4375 C-3.62807617 19.82098633 -3.62807617 19.82098633 -4.20507812 21.23242188 C-5.12969 23.4912838 -6.06144864 25.7469027 -7 28 C-8.32 27.67 -9.64 27.34 -11 27 C-11 24.0845524 -10.59136731 21.65845519 -10 18.8125 C-9.814375 17.91144531 -9.62875 17.01039063 -9.4375 16.08203125 C-9.293125 15.39496094 -9.14875 14.70789063 -9 14 C-7.35 13.67 -5.7 13.34 -4 13 C-4.185625 12.2575 -4.37125 11.515 -4.5625 10.75 C-4.99629307 8.02330072 -5.08114362 6.52266846 -4 4 C-3.01 3.67 -2.02 3.34 -1 3 C-0.67 2.01 -0.34 1.02 0 0 Z " fill="#214E8E" transform="translate(222,253)"/>
<path d="M0 0 C1.61287606 4.03219015 0.28805625 7.00024637 -1 11 C-1.33 12.216875 -1.66 13.43375 -2 14.6875 C-3 18 -3 18 -4.0546875 19.91015625 C-5.16351293 22.3614852 -5.20367217 24.0751463 -5.125 26.75 C-5.09792969 27.94882812 -5.09792969 27.94882812 -5.0703125 29.171875 C-5.04710937 29.77515625 -5.02390625 30.3784375 -5 31 C-5.66 31 -6.32 31 -7 31 C-7.0825 31.598125 -7.165 32.19625 -7.25 32.8125 C-8.21576779 35.62932273 -9.48868567 36.47799132 -12 38 C-12.66 38 -13.32 38 -14 38 C-10.8134962 26.75656383 -7.02264883 15.77565434 -2.015625 5.20703125 C-0.90772048 2.9053537 -0.90772048 2.9053537 0 0 Z " fill="#274B92" transform="translate(195,311)"/>
<path d="M0 0 C2 2 2 2 2.375 5.25 C1.88199692 10.18003084 0.0218462 13.13756744 -3.64111328 16.51171875 C-5.47907325 18.01338801 -7.34947008 19.45346543 -9.25 20.875 C-9.8996875 21.37257812 -10.549375 21.87015625 -11.21875 22.3828125 C-12.80623828 23.59677413 -14.40226197 24.79956046 -16 26 C-16.33 25.01 -16.66 24.02 -17 23 C-17.66 23 -18.32 23 -19 23 C-19 22.34 -19 21.68 -19 21 C-18.34 21 -17.68 21 -17 21 C-16.67 20.34 -16.34 19.68 -16 19 C-15.34 19.99 -14.68 20.98 -14 22 C-13.67 21.01 -13.34 20.02 -13 19 C-12.46375 18.525625 -11.9275 18.05125 -11.375 17.5625 C-10.92125 17.046875 -10.4675 16.53125 -10 16 C-10.22757731 13.83700789 -10.22757731 13.83700789 -11 12 C-8.75 9.9375 -8.75 9.9375 -6 8 C-3.6875 8.25 -3.6875 8.25 -2 9 C-0.50178941 5.62902617 0 3.79557881 0 0 Z " fill="#275093" transform="translate(166,226)"/>
<path d="M0 0 C2.31 0.66 4.62 1.32 7 2 C7.12375 2.928125 7.12375 2.928125 7.25 3.875 C7.81258459 6.18437567 7.81258459 6.18437567 10.0625 7.25 C10.701875 7.4975 11.34125 7.745 12 8 C11.34 6.35 10.68 4.7 10 3 C13.65316671 4.24976756 14.78065836 4.67098753 17 8 C16.01 8.66 15.02 9.32 14 10 C14.33 10.99 14.66 11.98 15 13 C18.50294871 14.71567661 18.50294871 14.71567661 22 16 C22 17.32 22 18.64 22 20 C18.12037659 18.30621319 14.93547911 15.77714898 11.625 13.1875 C11.07328125 12.76146484 10.5215625 12.33542969 9.953125 11.89648438 C6.23302003 9.0103466 2.60268651 6.03126342 -1 3 C-0.67 2.01 -0.34 1.02 0 0 Z " fill="#274F93" transform="translate(87,325)"/>
<path d="M0 0 C1.34173403 0.92543709 2.67320159 1.86577405 4 2.8125 C5.11375 3.59560547 5.11375 3.59560547 6.25 4.39453125 C6.8275 4.92433594 7.405 5.45414062 8 6 C8 6.99 8 7.98 8 9 C5.8125 11.04296875 5.8125 11.04296875 3 13.1875 C2.071875 13.90292969 1.14375 14.61835938 0.1875 15.35546875 C-0.8953125 16.16951172 -0.8953125 16.16951172 -2 17 C-2.33 16.01 -2.66 15.02 -3 14 C-3.66 13.67 -4.32 13.34 -5 13 C-4.71125 12.443125 -4.4225 11.88625 -4.125 11.3125 C-2.9586747 8.91505355 -1.9660119 6.48403061 -1 4 C-1.66 3.34 -2.32 2.68 -3 2 C-2.01 2 -1.02 2 0 2 C0 1.34 0 0.68 0 0 Z " fill="#244F91" transform="translate(340,292)"/>
<path d="M0 0 C3.47695457 1.59463165 6.46331303 3.64021212 9.5625 5.875 C10.51253906 6.55304688 11.46257812 7.23109375 12.44140625 7.9296875 C16.08333736 10.87659359 17.73044395 12.85957057 18.8125 17.4375 C19.00059521 21.01130899 18.61716497 22.8607974 17 26 C16.11581816 23.23693175 16.04327855 21.52393596 16.3125 18.5625 C16.35677277 15.11268427 16.35677277 15.11268427 14.66796875 13.4375 C12.82869167 11.88065086 12.82869167 11.88065086 10 10 C9.01 10.66 8.02 11.32 7 12 C3.21808958 11.90047604 2.02978091 11.02713372 -0.8125 8.4375 C-1.534375 7.633125 -2.25625 6.82875 -3 6 C-1.68 6 -0.36 6 1 6 C0.67 4.02 0.34 2.04 0 0 Z " fill="#31599D" transform="translate(350,280)"/>
<path d="M0 0 C0.66 0 1.32 0 2 0 C3.01924246 6.21369499 3.62926746 10.48351346 0 16 C-0.66 16 -1.32 16 -2 16 C-2.33 17.32 -2.66 18.64 -3 20 C-4.32 19.67 -5.64 19.34 -7 19 C-6.67422369 11.83292123 -3.34556372 6.23072876 0 0 Z " fill="#244F91" transform="translate(231,265)"/>
<path d="M0 0 C0.721875 0.309375 1.44375 0.61875 2.1875 0.9375 C4.911369 2.06878482 4.911369 2.06878482 7.5625 2.4375 C10.44804419 3.10339481 11.90633834 3.90633834 14 6 C14.37309899 7.65821773 14.70700977 9.32577014 15 11 C15.9793879 12.02019573 16.97895449 13.02149805 18 14 C18.6875 16.1875 18.6875 16.1875 19 18 C13.8152925 15.22601637 9.48064674 12.11524434 5.0625 8.25 C4.17981445 7.49009766 4.17981445 7.49009766 3.27929688 6.71484375 C1.84840552 5.48171786 0.42355061 4.24159301 -1 3 C-0.67 2.01 -0.34 1.02 0 0 Z " fill="#21508E" transform="translate(280,230)"/>
<path d="M0 0 C8.69550621 4.34775311 16.26185512 11.05279573 23 18 C21.68 18.33 20.36 18.66 19 19 C18.34 18.01 17.68 17.02 17 16 C16.34 16.66 15.68 17.32 15 18 C15 18.99 15 19.98 15 21 C13.02 19.68 11.04 18.36 9 17 C9.33 15.02 9.66 13.04 10 11 C9.21625 10.773125 8.4325 10.54625 7.625 10.3125 C4.32343815 8.66171907 4.18378375 7.38223927 3 4 C2.01 3.34 1.02 2.68 0 2 C0 1.34 0 0.68 0 0 Z " fill="#295195" transform="translate(118,323)"/>
<path d="M0 0 C0.97935632 2.93806897 1 4.95277638 1 8 C2.04437265 9.27379279 2.04437265 9.27379279 4.375 9.0625 C5.24125 9.041875 6.1075 9.02125 7 9 C7.99 9 8.98 9 10 9 C9.34 11.31 8.68 13.62 8 16 C6.56344146 16.08131463 5.1255517 16.13933559 3.6875 16.1875 C2.48673828 16.23970703 2.48673828 16.23970703 1.26171875 16.29296875 C-1 16 -1 16 -2.75 14.78125 C-4.308371 12.56057132 -4.49249255 11.00360282 -4.6875 8.3125 C-4.75324219 7.50425781 -4.81898438 6.69601562 -4.88671875 5.86328125 C-4.92410156 5.24839844 -4.96148437 4.63351562 -5 4 C-4.01 4 -3.02 4 -2 4 C-1.34 2.68 -0.68 1.36 0 0 Z " fill="#224D8F" transform="translate(166,403)"/>
<path d="M0 0 C1.65 0.99 3.3 1.98 5 3 C4.6332947 6.85040566 4.12676206 8.82615489 1.8125 12 C-0.4072018 14.90235824 -0.4072018 14.90235824 0.6875 18.25 C1.44601572 19.83927102 2.21245591 21.42491182 3 23 C0.02656004 21.97467587 -0.99860466 21.00202083 -2.8125 18.375 C-5.1832424 11.63710055 -2.93469269 6.12457605 0 0 Z " fill="#3C5EA8" transform="translate(162,396)"/>
<path d="M0 0 C0.8089913 7.1191234 -2.06720223 12.62116486 -5 19 C-5.268125 18.38125 -5.53625 17.7625 -5.8125 17.125 C-6.95556848 14.7004767 -6.95556848 14.7004767 -10 13 C-9.67 11.02 -9.34 9.04 -9 7 C-8.34 7 -7.68 7 -7 7 C-6.9071875 6.1028125 -6.9071875 6.1028125 -6.8125 5.1875 C-5.78539135 2.42220748 -3.17879223 0 0 0 Z " fill="#285194" transform="translate(173,384)"/>
<path d="M0 0 C5.57346465 0 8.96592274 2.82606779 13.2421875 6.015625 C15 8 15 8 15.4453125 10.609375 C15.29835938 11.39828125 15.15140625 12.1871875 15 13 C14.01 13.66 13.02 14.32 12 15 C7.125 11.375 7.125 11.375 6 8 C5.01 7.525625 4.02 7.05125 3 6.5625 C0 5 0 5 -0.9375 2.875 C-0.958125 2.25625 -0.97875 1.6375 -1 1 C-0.67 0.67 -0.34 0.34 0 0 Z " fill="#224D8E" transform="translate(101,333)"/>
<path d="M0 0 C1.32 0.66 2.64 1.32 4 2 C4 2.66 4 3.32 4 4 C2.35 4.66 0.7 5.32 -1 6 C-1 6.66 -1 7.32 -1 8 C-2.79296875 9.69140625 -2.79296875 9.69140625 -5.1875 11.5625 C-5.96480469 12.18253906 -6.74210937 12.80257813 -7.54296875 13.44140625 C-10.09951127 15.063124 -12.02120511 15.61376194 -15 16 C-15 12.67941669 -14.56938028 10.91456338 -13 8 C-10.8125 6.875 -10.8125 6.875 -8 6 C-5.57447457 5.11286279 -3.33856249 4.12430889 -1 3 C-0.67 2.01 -0.34 1.02 0 0 Z " fill="#214F8F" transform="translate(106,259)"/>
<path d="M0 0 C0.66 0.99 1.32 1.98 2 3 C2.66 2.67 3.32 2.34 4 2 C7.47000311 3.1566677 7.84701459 3.85726716 9.6875 6.875 C10.34298828 7.92300781 10.34298828 7.92300781 11.01171875 8.9921875 C12 11 12 11 12 14 C6.42574546 13.86064364 3.63862224 11.40077115 -0.36328125 7.88671875 C-2.10107946 5.8834812 -2.60534001 4.59102864 -3 2 C-2.01 1.34 -1.02 0.68 0 0 Z " fill="#255092" transform="translate(135,338)"/>
<path d="M0 0 C0.66 0.66 1.32 1.32 2 2 C2.66 1.67 3.32 1.34 4 1 C3.35125104 6.08587145 1.86913343 10.55113277 0.0625 15.3125 C-0.33485352 16.40401367 -0.33485352 16.40401367 -0.74023438 17.51757812 C-2.75294033 22.87647017 -2.75294033 22.87647017 -5 24 C-4.7834375 23.07767578 -4.7834375 23.07767578 -4.5625 22.13671875 C-4.376875 21.32847656 -4.19125 20.52023437 -4 19.6875 C-3.814375 18.88699219 -3.62875 18.08648437 -3.4375 17.26171875 C-2.90504177 14.89304062 -2.90504177 14.89304062 -3 12 C-4.32 11.67 -5.64 11.34 -7 11 C-6.8125 8.625 -6.8125 8.625 -6 6 C-4.34795544 5.29788106 -2.68076231 4.63028587 -1 4 C-0.11306697 1.95894361 -0.11306697 1.95894361 0 0 Z " fill="#3D61A9" transform="translate(220,300)"/>
<path d="M0 0 C1.13585819 3.40757456 0.92413956 3.846484 -0.40625 7 C-0.7347998 7.79615723 -1.06334961 8.59231445 -1.40185547 9.41259766 C-1.76424316 10.26644043 -2.12663086 11.1202832 -2.5 12 C-3.24465635 13.79845892 -3.98678005 15.59796826 -4.7265625 17.3984375 C-5.10586914 18.32108398 -5.48517578 19.24373047 -5.87597656 20.19433594 C-7.97592349 25.43599321 -9.86486871 30.75650077 -11.74023438 36.08203125 C-13.78784606 41.78784606 -13.78784606 41.78784606 -16 44 C-15.32570316 39.78246412 -14.54112388 35.60931143 -13.625 31.4375 C-13.39039063 30.34308594 -13.15578125 29.24867188 -12.9140625 28.12109375 C-11.99440279 24.98088815 -10.92002283 22.64372375 -9 20 C-8.34 20 -7.68 20 -7 20 C-6.67 17.36 -6.34 14.72 -6 12 C-5.34 12 -4.68 12 -4 12 C-4 11.34 -4 10.68 -4 10 C-4.66 10 -5.32 10 -6 10 C-5.1875 8.0625 -5.1875 8.0625 -4 6 C-3.01 5.67 -2.02 5.34 -1 5 C-0.67 3.35 -0.34 1.7 0 0 Z " fill="#5175C3" transform="translate(264,195)"/>
<path d="M0 0 C1.54709766 4.64129297 -0.63779369 7.76807798 -2.546875 12.10546875 C-4.27885051 15.55545222 -5.80543406 17.79422828 -9 20 C-13.89036829 21.28693902 -15.39231987 21.30384007 -20 19 C-17.03 19 -14.06 19 -11 19 C-11.13535156 17.69675781 -11.13535156 17.69675781 -11.2734375 16.3671875 C-10.92154458 12.03387756 -9.43218859 10.39267378 -6.625 7.125 C-5.40683594 5.67480469 -5.40683594 5.67480469 -4.1640625 4.1953125 C-3.44992188 3.47085937 -2.73578125 2.74640625 -2 2 C-1.34 2 -0.68 2 0 2 C0 1.34 0 0.68 0 0 Z " fill="#385BA5" transform="translate(185,400)"/>
<path d="M0 0 C1.28656001 3.58398861 0.73199954 5.68105463 -0.625 9.1875 C-1.10839844 10.50814453 -1.10839844 10.50814453 -1.6015625 11.85546875 C-3 14 -3 14 -5.5234375 14.86328125 C-8 15 -8 15 -10 14 C-9.0830402 7.71814105 -7.79436514 0 0 0 Z " fill="#274E93" transform="translate(234,226)"/>
<path d="M0 0 C0.66 0.33 1.32 0.66 2 1 C0.700625 2.0209375 0.700625 2.0209375 -0.625 3.0625 C-4.1238377 5.98652865 -7.45729362 9.19495712 -10 13 C-10 13.99 -10 14.98 -10 16 C-12.25 18.25 -12.25 18.25 -15 20 C-17.125 19.75 -17.125 19.75 -19 19 C-19.99 19 -20.98 19 -22 19 C-22 18.34 -22 17.68 -22 17 C-20.26059253 15.55945979 -18.45528806 14.19815535 -16.625 12.875 C-15.52762531 12.07300912 -14.43128929 11.26959529 -13.3359375 10.46484375 C-12.7800293 10.05733887 -12.22412109 9.64983398 -11.65136719 9.22998047 C-7.67730573 6.26999797 -3.8462899 3.12298317 0 0 Z " fill="#3D60A9" transform="translate(318,314)"/>
<path d="M0 0 C2.47717167 3.71575751 2.30345742 5.59986738 2 10 C1 12.9375 1 12.9375 0 15 C-0.66 14.67 -1.32 14.34 -2 14 C-2.99 14.495 -2.99 14.495 -4 15 C-4.33 15.99 -4.66 16.98 -5 18 C-5.99 17.67 -6.98 17.34 -8 17 C-7.23970843 14.7251355 -6.4673838 12.45564343 -5.6875 10.1875 C-5.47416016 9.54490234 -5.26082031 8.90230469 -5.04101562 8.24023438 C-3.86193824 4.84378758 -2.86593051 2.26080735 0 0 Z " fill="#224E90" transform="translate(201,345)"/>
<path d="M0 0 C1.38495802 2.14668494 2 3.43871412 2 6 C4.97 6.495 4.97 6.495 8 7 C8 8.98 8 10.96 8 13 C3.88686458 12.43334476 1.45572051 10.21847166 -1.6875 7.625 C-2.66074219 6.83351563 -3.63398437 6.04203125 -4.63671875 5.2265625 C-7 3 -7 3 -8 0 C-4.99135897 -0.96706319 -2.94639752 -1.27677226 0 0 Z " fill="#204E8D" transform="translate(121,326)"/>
<path d="M0 0 C3.19292186 1.46190727 5.80566134 3.26841375 8.5625 5.4375 C9.32691406 6.03433594 10.09132813 6.63117188 10.87890625 7.24609375 C14.68600044 10.39413296 16.32146822 11.97886485 17 17 C14.625 16.25 14.625 16.25 12 15 C11.31731862 13.67479497 10.6492959 12.34187818 10 11 C7.50529228 10.03430669 5.70254461 10 3 10 C2.61781233 8.34385343 2.28604898 6.67542976 2 5 C2.33 4.67 2.66 4.34 3 4 C2.01 3.34 1.02 2.68 0 2 C0 1.34 0 0.68 0 0 Z " fill="#214E8E" transform="translate(82,316)"/>
<path d="M0 0 C0.66 0.33 1.32 0.66 2 1 C0.6875 3.9375 0.6875 3.9375 -1 7 C-1.99 7.33 -2.98 7.66 -4 8 C-4.66 7.67 -5.32 7.34 -6 7 C-6.2475 7.61875 -6.495 8.2375 -6.75 8.875 C-8.26029304 11.44249816 -9.36091208 11.71815729 -12 13 C-12.763125 13.78375 -13.52625 14.5675 -14.3125 15.375 C-17.4095253 18.40000146 -20.12231282 20.09773836 -24 22 C-24.66 21.67 -25.32 21.34 -26 21 C-24.08435828 19.39459585 -22.16753088 17.790645 -20.25 16.1875 C-19.71117187 15.73568359 -19.17234375 15.28386719 -18.6171875 14.81835938 C-10.45506387 8 -10.45506387 8 -8 8 C-8 7.34 -8 6.68 -8 6 C-6.25 4.4921875 -6.25 4.4921875 -4 2.875 C-3.2575 2.33617187 -2.515 1.79734375 -1.75 1.2421875 C-0.88375 0.62730469 -0.88375 0.62730469 0 0 Z " fill="#3C5FAB" transform="translate(294,333)"/>
<path d="M0 0 C0.66 0.33 1.32 0.66 2 1 C2 2.32 2 3.64 2 5 C0.68 4.67 -0.64 4.34 -2 4 C-2.3403125 4.86625 -2.3403125 4.86625 -2.6875 5.75 C-4.86063748 9.47537853 -7.75894365 11.52050096 -11.75 13.0625 C-12.4925 13.371875 -13.235 13.68125 -14 14 C-14.33 14.99 -14.66 15.98 -15 17 C-13.68 17.99 -12.36 18.98 -11 20 C-11.99 20.33 -12.98 20.66 -14 21 C-14.99 20.01 -15.98 19.02 -17 18 C-19.49361571 19.20381448 -21.68143083 20.45428722 -24 22 C-22.41729204 17.69094993 -19.11316922 15.2189518 -15.6875 12.375 C-14.83381836 11.64023437 -14.83381836 11.64023437 -13.96289062 10.890625 C-10.7917045 8.22551795 -8.00870537 6.27857394 -4 5 C-4 4.34 -4 3.68 -4 3 C-2 1.375 -2 1.375 0 0 Z " fill="#5574C1" transform="translate(83,273)"/>
<path d="M0 0 C0.66 1.32 1.32 2.64 2 4 C2.66 3.67 3.32 3.34 4 3 C3.9071875 4.3303125 3.9071875 4.3303125 3.8125 5.6875 C4.01951982 9.34485017 4.916074 11.04777151 7 14 C8.98 13.67 10.96 13.34 13 13 C13.103125 13.556875 13.20625 14.11375 13.3125 14.6875 C14.13133577 17.44176578 15.45853781 19.58727657 17 22 C12.9666466 22 11.16482462 20.39120082 8 18 C8 17.34 8 16.68 8 16 C7.4225 15.773125 6.845 15.54625 6.25 15.3125 C3.21261926 13.54069457 1.81127546 12.04035523 0 9 C-0.32555094 5.96830689 -0.23810803 3.03587743 0 0 Z " fill="#2E4E99" transform="translate(58,295)"/>
<path d="M0 0 C2.45708482 1.84281361 3.13637225 2.87333259 4.25 5.6875 C4.4453125 8.046875 4.4453125 8.046875 4.375 10.4375 C4.35695313 11.23671875 4.33890625 12.0359375 4.3203125 12.859375 C4.29710937 13.46265625 4.27390625 14.0659375 4.25 14.6875 C3.94320313 14.06875 3.63640625 13.45 3.3203125 12.8125 C2.61964472 11.42139317 1.88863024 10.04506488 1.125 8.6875 C0.25 6.6875 0.25 6.6875 0.25 2.6875 C-0.74 3.1825 -0.74 3.1825 -1.75 3.6875 C-1.42 4.3475 -1.09 5.0075 -0.75 5.6875 C-1.74 6.6775 -2.73 7.6675 -3.75 8.6875 C-3.75 8.0275 -3.75 7.3675 -3.75 6.6875 C-4.41 6.3575 -5.07 6.0275 -5.75 5.6875 C-5.42 5.3575 -5.09 5.0275 -4.75 4.6875 C-5.41 4.0275 -6.07 3.3675 -6.75 2.6875 C-6.09 2.6875 -5.43 2.6875 -4.75 2.6875 C-4.75 1.6975 -4.75 0.7075 -4.75 -0.3125 C-9.205 0.1825 -9.205 0.1825 -13.75 0.6875 C-9.50054321 -3.56195679 -5.03742927 -2.40422761 0 0 Z " fill="#3B6AB1" transform="translate(261.75,180.3125)"/>
<path d="M0 0 C2.64 0 5.28 0 8 0 C8 1.65 8 3.3 8 5 C3.9811485 6.81242323 0.38889325 8.33501617 -4 9 C-4 7.02 -4 5.04 -4 3 C-2.68 2.67 -1.36 2.34 0 2 C0 1.34 0 0.68 0 0 Z " fill="#244C8F" transform="translate(152,221)"/>
<path d="M0 0 C0.66 0.33 1.32 0.66 2 1 C2 1.99 2 2.98 2 4 C2.99 4.33 3.98 4.66 5 5 C3.7508258 8.45925163 2.32472205 11.14693203 0 14 C0.99 14.33 1.98 14.66 3 15 C2.01 17.475 2.01 17.475 1 20 C0.34 19.67 -0.32 19.34 -1 19 C-1.625 16.4375 -1.625 16.4375 -2 14 C-3.98 14.99 -3.98 14.99 -6 16 C-5.21625 15.236875 -4.4325 14.47375 -3.625 13.6875 C-0.92742283 11.09108195 -0.92742283 11.09108195 1 8 C-0.65 6.35 -2.3 4.7 -4 3 C-2.68 2.01 -1.36 1.02 0 0 Z " fill="#446AB1" transform="translate(335,291)"/>
<path d="M0 0 C3.60191284 1.32702052 4.94742316 1.88046172 6.5625 5.3125 C6.25 7.5625 6.25 7.5625 5.5625 9.3125 C1.0846629 8.06287104 -2.08024309 6.57101406 -5.4375 3.3125 C-5.4375 2.3225 -5.4375 1.3325 -5.4375 0.3125 C-3.4375 -0.6875 -3.4375 -0.6875 0 0 Z " fill="#224C8E" transform="translate(159.4375,357.6875)"/>
<path d="M0 0 C0.66 0.33 1.32 0.66 2 1 C1.49202991 5.3177458 0.80317221 9.03302114 -1 13 C-1.5775 12.79375 -2.155 12.5875 -2.75 12.375 C-5.51967567 11.91338739 -6.64561267 12.57055055 -9 14 C-8.8125 11.1875 -8.8125 11.1875 -8 8 C-5.59196729 6.14766715 -4.07258075 5 -1 5 C-0.67 3.35 -0.34 1.7 0 0 Z " fill="#295799" transform="translate(188,341)"/>
<path d="M0 0 C0.33 0.66 0.66 1.32 1 2 C1.99 2.33 2.98 2.66 4 3 C4.33 5.64 4.66 8.28 5 11 C1.7173068 9.50923566 -0.93077441 7.61379679 -3.75 5.375 C-4.54921875 4.74335938 -5.3484375 4.11171875 -6.171875 3.4609375 C-6.77515625 2.97882813 -7.3784375 2.49671875 -8 2 C-5.33333333 1.33333333 -2.66666667 0.66666667 0 0 Z " fill="#224F8E" transform="translate(99,309)"/>
<path d="M0 0 C1.65 0.99 3.3 1.98 5 3 C4.34 3.66 3.68 4.32 3 5 C3 5.99 3 6.98 3 8 C3.99 8 4.98 8 6 8 C6.33 9.98 6.66 11.96 7 14 C3.77026656 12.52186113 1.11002902 10.68253503 -1.6875 8.5 C-2.47511719 7.8915625 -3.26273437 7.283125 -4.07421875 6.65625 C-6 5 -6 5 -7 3 C-5.02 3.99 -5.02 3.99 -3 5 C-2.01 3.35 -1.02 1.7 0 0 Z " fill="#3C65A9" transform="translate(116,342)"/>
<path d="M0 0 C3.52238047 1.56367357 6.27123994 3.69495889 9.25 6.125 C10.14203125 6.84945312 11.0340625 7.57390625 11.953125 8.3203125 C12.62859375 8.87460938 13.3040625 9.42890625 14 10 C11 10 11 10 8 9 C7.34 10.32 6.68 11.64 6 13 C6 12.34 6 11.68 6 11 C5.34 10.67 4.68 10.34 4 10 C4 9.01 4 8.02 4 7 C2.68 6.34 1.36 5.68 0 5 C0 3.35 0 1.7 0 0 Z " fill="#3E5EA8" transform="translate(293,235)"/>
<path d="M0 0 C0.33 0.66 0.66 1.32 1 2 C1.99 2.33 2.98 2.66 4 3 C5.75 4.75 5.75 4.75 7 7 C6.6875 9.75 6.6875 9.75 6 12 C-1.57142857 8 -1.57142857 8 -4 4 C-2.68 2.68 -1.36 1.36 0 0 Z " fill="#234C8E" transform="translate(330,265)"/>
<path d="M0 0 C2.97 0 5.94 0 9 0 C9 1.98 9 3.96 9 6 C9.66 6.33 10.32 6.66 11 7 C11 6.34 11 5.68 11 5 C11.66 5 12.32 5 13 5 C14.4606285 7.64738916 15 8.89448334 15 12 C11.52935269 10.4467033 8.77070538 8.3770513 5.8125 6 C4.93207031 5.29875 4.05164063 4.5975 3.14453125 3.875 C1 2 1 2 0 0 Z " fill="#4B66B2" transform="translate(316,282)"/>
<path d="M0 0 C2.95409701 1.37154504 5.44008376 2.98863724 8 5 C7.67 6.32 7.34 7.64 7 9 C3.28400809 9.20086443 2.22791555 9.1519437 -1 7 C-1.8125 4.5 -1.8125 4.5 -2 2 C-1.34 1.34 -0.68 0.68 0 0 Z " fill="#234C8F" transform="translate(344,277)"/>
<path d="M0 0 C0.99 0.33 1.98 0.66 3 1 C1.7918552 6.63800905 1.7918552 6.63800905 0 9 C-3.625 9.75 -3.625 9.75 -7 10 C-7 7 -7 7 -4.625 4.4375 C-3.75875 3.633125 -2.8925 2.82875 -2 2 C-1.34 1.34 -0.68 0.68 0 0 Z " fill="#214D8E" transform="translate(303,347)"/>
<path d="M0 0 C0.99 0.33 1.98 0.66 3 1 C3 1.66 3 2.32 3 3 C3.66 3 4.32 3 5 3 C4.67 3.99 4.34 4.98 4 6 C3.34 6 2.68 6 2 6 C1.67 6.99 1.34 7.98 1 9 C-0.32 9 -1.64 9 -3 9 C-3.66 9.66 -4.32 10.32 -5 11 C-5.3125 8.3125 -5.3125 8.3125 -5 5 C-2.5 2.125 -2.5 2.125 0 0 Z " fill="#264C91" transform="translate(64,290)"/>
<path d="M0 0 C2.875 0.3125 2.875 0.3125 6 1 C6.66 1.99 7.32 2.98 8 4 C7 6 7 6 3.6875 7.1875 C0.42437937 7.90649268 -0.99282882 8.20286847 -4 7 C-3.34 5.35 -2.68 3.7 -2 2 C-1.34 2 -0.68 2 0 2 C0 1.34 0 0.68 0 0 Z " fill="#234C8E" transform="translate(266,221)"/>
<path d="M0 0 C1 2 1 2 0.5 5.375 C0.06882966 8.50098494 -0.03897733 10.11395187 1 13 C1.66 12.01 2.32 11.02 3 10 C3.99 10 4.98 10 6 10 C6.103125 11.0725 6.20625 12.145 6.3125 13.25 C6.97400493 16.85820872 7.57483421 18.36395023 10 21 C5.57003518 19.12578412 1.41687081 16.21068768 -1.19921875 12.12890625 C-2.15335428 9.59230204 -2.05395173 7.98362407 -1.6875 5.3125 C-1.58824219 4.52488281 -1.48898437 3.73726562 -1.38671875 2.92578125 C-1 1 -1 1 0 0 Z " fill="#4F72C1" transform="translate(260,225)"/>
<path d="M0 0 C0.66 0 1.32 0 2 0 C2 0.99 2 1.98 2 3 C2.99 4.485 2.99 4.485 4 6 C2.32482761 9.53647504 1.50719183 10.7911563 -2.1875 12.3125 C-3.5796875 12.6528125 -3.5796875 12.6528125 -5 13 C-4.39254603 8.14036821 -2.27241033 4.2594482 0 0 Z " fill="#3E61A9" transform="translate(246,181)"/>
<path d="M0 0 C2.31 0.66 4.62 1.32 7 2 C7.103125 2.598125 7.20625 3.19625 7.3125 3.8125 C8.10494321 6.33391022 9.11943508 7.19465768 11 9 C12.1875 11.1875 12.1875 11.1875 13 13 C9.47761953 11.43632643 6.72876006 9.30504111 3.75 6.875 C2.85796875 6.15054687 1.9659375 5.42609375 1.046875 4.6796875 C0.03367187 3.84824219 0.03367187 3.84824219 -1 3 C-0.67 2.01 -0.34 1.02 0 0 Z " fill="#365FA5" transform="translate(87,325)"/>
<path d="M0 0 C1.32 0.33 2.64 0.66 4 1 C2.54634731 2.17249353 1.08692581 3.33783816 -0.375 4.5 C-1.59316406 5.47453125 -1.59316406 5.47453125 -2.8359375 6.46875 C-5 8 -5 8 -7 8 C-7 8.66 -7 9.32 -7 10 C-9 11.625 -9 11.625 -11 13 C-11.66 12.67 -12.32 12.34 -13 12 C-12.67 11.01 -12.34 10.02 -12 9 C-10.68 9 -9.36 9 -8 9 C-7.67 6.69 -7.34 4.38 -7 2 C-3.86650268 0.95550089 -3.01031744 1.06576355 0 2 C0 1.34 0 0.68 0 0 Z " fill="#4866B4" transform="translate(145,252)"/>
<path d="M0 0 C3.465 1.485 3.465 1.485 7 3 C6.67 4.65 6.34 6.3 6 8 C5.01 8 4.02 8 3 8 C2.67 8.66 2.34 9.32 2 10 C0.68 8.35 -0.64 6.7 -2 5 C-1.34 3.35 -0.68 1.7 0 0 Z " fill="#2D5498" transform="translate(111,319)"/>
<path d="M0 0 C0.66 0.33 1.32 0.66 2 1 C2 1.66 2 2.32 2 3 C3.45833358 4.62514468 3.45833358 4.62514468 5 6 C4.34 6 3.68 6 3 6 C3.66 7.98 4.32 9.96 5 12 C2.50638429 10.79618552 0.31856917 9.54571278 -2 8 C-2 7.34 -2 6.68 -2 6 C-3.32 5.34 -4.64 4.68 -6 4 C-5.38125 3.896875 -4.7625 3.79375 -4.125 3.6875 C-1.63473516 3.12474627 -1.63473516 3.12474627 0 0 Z " fill="#4261AB" transform="translate(81,315)"/>
<path d="M0 0 C0.66 0.33 1.32 0.66 2 1 C1.649375 1.61875 1.29875 2.2375 0.9375 2.875 C0.4734375 3.926875 0.4734375 3.926875 0 5 C0.33 5.66 0.66 6.32 1 7 C0.67 7.33 0.34 7.66 0 8 C0.99 8.33 1.98 8.66 3 9 C0.69 10.32 -1.62 11.64 -4 13 C-4.5534764 10.92446352 -5 9.15634036 -5 7 C-5.66 6.67 -6.32 6.34 -7 6 C-4.69 4.02 -2.38 2.04 0 0 Z " fill="#255492" transform="translate(92,266)"/>
<path d="M0 0 C1.32 0.66 2.64 1.32 4 2 C4 3.32 4 4.64 4 6 C4.30830925 8.00401011 4.63729412 10.00511766 5 12 C1.18315774 10.44499019 -1.19195732 7.96404505 -4 5 C-3 3 -3 3 0 2 C0 1.34 0 0.68 0 0 Z " fill="#395CA3" transform="translate(283,248)"/>
<path d="M0 0 C2 3 2 3 1.8125 5.5625 C1 8 1 8 -2 10 C-4.6875 9.625 -4.6875 9.625 -7 9 C-5.64978174 4.58110387 -3.73884332 2.65654657 0 0 Z " fill="#234D90" transform="translate(333,304)"/>
<path d="M0 0 C0.99 0.33 1.98 0.66 3 1 C4.01911045 4.89114901 4.16782969 6.60596507 2.5625 10.375 C2.046875 11.24125 1.53125 12.1075 1 13 C-1.2328877 10.7671123 -1.36778152 10.08090185 -1.75 7.0625 C-1.84796875 6.37285156 -1.9459375 5.68320312 -2.046875 4.97265625 C-2 3 -2 3 0 0 Z " fill="#224E8E" transform="translate(207,286)"/>
<path d="M0 0 C0.66 0.33 1.32 0.66 2 1 C1.57847656 1.47050781 1.15695313 1.94101563 0.72265625 2.42578125 C0.17480469 3.04839844 -0.37304688 3.67101562 -0.9375 4.3125 C-1.75541016 5.23482422 -1.75541016 5.23482422 -2.58984375 6.17578125 C-4.20081559 8.05241958 -4.20081559 8.05241958 -5 11 C-6.051875 10.8453125 -6.051875 10.8453125 -7.125 10.6875 C-11.30732311 11.14210034 -12.95201113 13.16466151 -16 16 C-16.66 15.67 -17.32 15.34 -18 15 C-16.04653795 13.32731078 -14.08770186 11.66178419 -12.125 10 C-11.29162109 9.28457031 -11.29162109 9.28457031 -10.44140625 8.5546875 C-6.2265625 5 -6.2265625 5 -4 5 C-4 4.34 -4 3.68 -4 3 C-2 1.375 -2 1.375 0 0 Z " fill="#5175BE" transform="translate(121,243)"/>
<path d="M0 0 C0.66 0.99 1.32 1.98 2 3 C-0.43319829 5.94545056 -2.32413607 6.32286717 -6 7 C-6.33 7.66 -6.66 8.32 -7 9 C-7 8.34 -7 7.68 -7 7 C-8.32 7.33 -9.64 7.66 -11 8 C-3.75 0.75 -3.75 0.75 0 0 Z " fill="#3B5DA6" transform="translate(105,258)"/>
<path d="M0 0 C1.29790193 4.22508501 0.35421479 6.79480672 -1 11 C-1.268125 12.19625 -1.53625 13.3925 -1.8125 14.625 C-3.17378206 18.49390691 -4.93353243 20.33701501 -8 23 C-7.26905294 17.94514073 -5.31619096 13.40096821 -3.4375 8.6875 C-3.10814453 7.85154297 -2.77878906 7.01558594 -2.43945312 6.15429688 C-1.63001123 4.10136454 -0.81676543 2.05002714 0 0 Z " fill="#5370BF" transform="translate(225,233)"/>
<path d="M0 0 C1.65 0 3.3 0 5 0 C5 0.99 5 1.98 5 3 C5.99 3.7115625 5.99 3.7115625 7 4.4375 C7.66 4.953125 8.32 5.46875 9 6 C9 7.32 9 8.64 9 10 C8.34 10 7.68 10 7 10 C7 9.34 7 8.68 7 8 C6.4225 7.7525 5.845 7.505 5.25 7.25 C2.6997003 5.83316683 0.98214299 4.12372463 -1 2 C-0.67 1.34 -0.34 0.68 0 0 Z " fill="#3A59A5" transform="translate(299,266)"/>
<path d="M0 0 C2 2 2 2 2.375 5.25 C1.93501694 9.64983056 0.8182654 11.63373855 -2 15 C-4.25 16.375 -4.25 16.375 -6 17 C-4.49562682 10.48104956 -4.49562682 10.48104956 -1.875 7.9375 C0.34333448 6.05765145 0.34333448 6.05765145 0.25 2.75 C0.1675 1.8425 0.085 0.935 0 0 Z " fill="#5569BD" transform="translate(166,226)"/>
<path d="M0 0 C8.03501094 -0.63019694 8.03501094 -0.63019694 12.0625 2 C12.701875 2.66 13.34125 3.32 14 4 C13.67 4.66 13.34 5.32 13 6 C12.34 5.67 11.68 5.34 11 5 C10.34 7.64 9.68 10.28 9 13 C7.79371992 10.66785852 6.8345262 8.50357861 6 6 C6.66 6 7.32 6 8 6 C8 4.35 8 2.7 8 1 C5.36 1 2.72 1 0 1 C0 0.67 0 0.34 0 0 Z " fill="#4366B1" transform="translate(152,220)"/>
<path d="M0 0 C-1.21065165 3.63195496 -2.53691126 4.42896192 -5.5625 6.6875 C-6.38878906 7.31011719 -7.21507812 7.93273437 -8.06640625 8.57421875 C-8.70449219 9.04472656 -9.34257812 9.51523437 -10 10 C-10 7.07171074 -9.86029934 4.79597286 -9 2 C-6.09557968 -0.17831524 -3.54875053 -0.19715281 0 0 Z " fill="#426AB5" transform="translate(365,307)"/>
<path d="M0 0 C-1.7288805 1.41701589 -3.45811746 2.83359686 -5.1875 4.25 C-6.63189453 5.43335938 -6.63189453 5.43335938 -8.10546875 6.640625 C-10.72500523 8.77584772 -13.35729197 10.89356361 -16 13 C-16.66 12.67 -17.32 12.34 -18 12 C-17.34 11.01 -16.68 10.02 -16 9 C-16 8.34 -16 7.68 -16 7 C-15.236875 6.87625 -14.47375 6.7525 -13.6875 6.625 C-10.79732864 6.11897208 -10.79732864 6.11897208 -8 4 C-7.67 3.01 -7.34 2.02 -7 1 C-2.55696203 -1.27848101 -2.55696203 -1.27848101 0 0 Z " fill="#5C78C8" transform="translate(131,267)"/>
<path d="M0 0 C1.20076172 0.31324219 1.20076172 0.31324219 2.42578125 0.6328125 C3.23402344 0.83648437 4.04226562 1.04015625 4.875 1.25 C5.48988281 1.41757812 6.10476562 1.58515625 6.73828125 1.7578125 C4.61328125 4.3203125 4.61328125 4.3203125 1.73828125 6.7578125 C-1.57421875 6.5703125 -1.57421875 6.5703125 -4.26171875 5.7578125 C-4.59171875 4.4378125 -4.92171875 3.1178125 -5.26171875 1.7578125 C-2.26171875 -0.2421875 -2.26171875 -0.2421875 0 0 Z " fill="#204C8D" transform="translate(153.26171875,370.2421875)"/>
<path d="M0 0 C0.66 0.33 1.32 0.66 2 1 C1 4 1 4 -2 5.5625 C-5.17508251 7.64346958 -5.17508251 7.64346958 -5.6171875 10.48046875 C-5.85144902 12.99700534 -5.99035547 15.47313339 -6 18 C-8 16 -8 16 -8.15234375 14.01171875 C-7.74926244 9.65111187 -7.43937251 7.5295002 -4.5625 4.0625 C-3.716875 3.381875 -2.87125 2.70125 -2 2 C-1.34 1.34 -0.68 0.68 0 0 Z " fill="#5C71C8" transform="translate(266,355)"/>
<path d="M0 0 C5.27112904 2.79692561 9.59398317 5.98235547 14 10 C11.34311004 10.78010812 10.13945539 11.03320367 7.375 10.375 C4.37703654 8.63933694 4.11854652 7.19584719 3 4 C2.01 3.34 1.02 2.68 0 2 C0 1.34 0 0.68 0 0 Z " fill="#516CBA" transform="translate(118,323)"/>
<path d="M0 0 C2.0625 0.6875 2.0625 0.6875 4 2 C4.75 4.125 4.75 4.125 5 6 C3.35 6.66 1.7 7.32 0 8 C-1.5625 6.75 -1.5625 6.75 -3 5 C-2.8125 2.875 -2.8125 2.875 -2 1 C-1.34 0.67 -0.68 0.34 0 0 Z " fill="#214D90" transform="translate(279,245)"/>
<path d="M0 0 C1.2107984 4.32146744 1.63361101 8.5393785 1 13 C-0.875 15.0625 -0.875 15.0625 -3 16 C-3.66 16 -4.32 16 -5 16 C-3.41078475 10.63904723 -1.81027062 5.29156027 0 0 Z " fill="#4767B7" transform="translate(186,333)"/>
<path d="M0 0 C0.66 1.32 1.32 2.64 2 4 C2.66 3.67 3.32 3.34 4 3 C3.9175 3.845625 3.835 4.69125 3.75 5.5625 C4.07537023 10.03634062 5.59932129 12.24893952 8 16 C4.14963149 14.48735523 2.11651578 12.55272291 0 9 C-0.32555094 5.96830689 -0.23810803 3.03587743 0 0 Z " fill="#4F6AB7" transform="translate(58,295)"/>
<path d="M0 0 C-0.99 2.97 -1.98 5.94 -3 9 C-4.32 8.67 -5.64 8.34 -7 8 C-7 6.68 -7 5.36 -7 4 C-2.77777778 0 -2.77777778 0 0 0 Z " fill="#204D8D" transform="translate(342,318)"/>
<path d="M0 0 C0 0.99 0 1.98 0 3 C0.2475 3.639375 0.495 4.27875 0.75 4.9375 C0.8325 5.618125 0.915 6.29875 1 7 C-0.9375 9.25 -0.9375 9.25 -3 11 C-5 8 -5 8 -4.875 5.5 C-3.83133 2.51808573 -2.65171634 1.6252455 0 0 Z " fill="#69A8E0" transform="translate(70,293)"/>
<path d="M0 0 C1.04379311 3.74159684 1.06479552 6.19715884 0 10 C-1.51716486 12.2031437 -3.17043192 14.02969592 -5 16 C-5.33 15.34 -5.66 14.68 -6 14 C-5.09176973 11.56442428 -4.13171929 9.23804483 -3.0625 6.875 C-2.77181641 6.21628906 -2.48113281 5.55757813 -2.18164062 4.87890625 C-1.46139802 3.24950495 -0.73158857 1.62433868 0 0 Z " fill="#546DBA" transform="translate(212,267)"/>
<path d="M0 0 C3.52238047 1.56367357 6.27123994 3.69495889 9.25 6.125 C10.14203125 6.84945312 11.0340625 7.57390625 11.953125 8.3203125 C12.62859375 8.87460938 13.3040625 9.42890625 14 10 C9.93162901 10 6.56772524 8.96147665 3 7 C1.5625 4.4375 1.5625 4.4375 1 2 C0.67 1.34 0.34 0.68 0 0 Z " fill="#5673C2" transform="translate(307,246)"/>
<path d="M0 0 C3.85923655 1.57228156 6.36093771 3.79032965 9 7 C10.25804803 11.69671265 10.23244396 14.66643232 8 19 C7.12573427 16.26791958 7.03720969 14.48836679 7.25 11.5625 C7.3466471 7.84635271 7.3466471 7.84635271 4.625 5.25 C3.75875 4.5075 2.8925 3.765 2 3 C1.34 2.01 0.68 1.02 0 0 Z " fill="#5684CD" transform="translate(359,287)"/>
<path d="M0 0 C0.66 0.33 1.32 0.66 2 1 C-1.50080855 5.53118837 -4.45218678 8.98261337 -10 11 C-10.66 10.67 -11.32 10.34 -12 10 C-8.04 6.7 -4.08 3.4 0 0 Z " fill="#516FBE" transform="translate(280,344)"/>
<path d="M0 0 C1.40783184 2.62795276 2.50772334 5.04634002 3 8 C2.67 8.66 2.34 9.32 2 10 C-0.5625 10.625 -0.5625 10.625 -3 11 C-2.44894091 7.0507432 -1.61064629 3.65079826 0 0 Z " fill="#4562AE" transform="translate(216,256)"/>
<path d="M0 0 C0.66 0.33 1.32 0.66 2 1 C1.113125 1.70125 0.22625 2.4025 -0.6875 3.125 C-3.90375955 5.79121041 -6.41236896 8.72740781 -9 12 C-9.99 11.34 -10.98 10.68 -12 10 C-8.04 6.7 -4.08 3.4 0 0 Z " fill="#5574C5" transform="translate(318,314)"/>
<path d="M0 0 C0.66 0.33 1.32 0.66 2 1 C2 2.32 2 3.64 2 5 C0.68 4.67 -0.64 4.34 -2 4 C-2.226875 4.5775 -2.45375 5.155 -2.6875 5.75 C-4.33038023 8.5663661 -6.39533227 10.08077114 -9 12 C-9 11.01 -9 10.02 -9 9 C-7.68212715 7.97971135 -6.34789347 6.98028616 -5 6 C-4.67 5.01 -4.34 4.02 -4 3 C-1.9375 1.3125 -1.9375 1.3125 0 0 Z " fill="#445FAC" transform="translate(83,273)"/>
<path d="M0 0 C2.64 0 5.28 0 8 0 C8 1.98 8 3.96 8 6 C4.08597051 4.73058503 2.20927127 3.48832306 0 0 Z " fill="#4267B2" transform="translate(308,276)"/>
<path d="M0 0 C3 1 3 1 4.1796875 2.765625 C5.09442005 5.25718223 5.20275975 7.10616836 5.125 9.75 C5.10695313 10.54921875 5.08890625 11.3484375 5.0703125 12.171875 C5.03550781 13.07679688 5.03550781 13.07679688 5 14 C4.53787109 13.06800781 4.53787109 13.06800781 4.06640625 12.1171875 C3.3879818 10.77027889 2.68102157 9.43709688 1.9375 8.125 C0.7614358 5.45925448 0.39213842 2.87568173 0 0 Z " fill="#4A67B8" transform="translate(261,181)"/>
<path d="M0 0 C1.98 0.66 3.96 1.32 6 2 C6 2.33 6 2.66 6 3 C3.69 3.33 1.38 3.66 -1 4 C-1.66 5.98 -2.32 7.96 -3 10 C-3.99 9.67 -4.98 9.34 -6 9 C-4.68 6.69 -3.36 4.38 -2 2 C-1.34 2 -0.68 2 0 2 C0 1.34 0 0.68 0 0 Z " fill="#1D518C" transform="translate(252,183)"/>
<path d="M0 0 C0.99 0.33 1.98 0.66 3 1 C3 1.66 3 2.32 3 3 C3.99 3.33 4.98 3.66 6 4 C5.01 5.485 5.01 5.485 4 7 C1.13275314 6.42655063 0.1385485 6.1385485 -2 4 C-1.34 2.68 -0.68 1.36 0 0 Z " fill="#3F60A8" transform="translate(94,304)"/>
<path d="M0 0 C-4.455 3.465 -4.455 3.465 -9 7 C-9.33 6.01 -9.66 5.02 -10 4 C-10.66 4 -11.32 4 -12 4 C-12 3.34 -12 2.68 -12 2 C-11.34 2 -10.68 2 -10 2 C-9.67 1.34 -9.34 0.68 -9 0 C-8.34 0.99 -7.68 1.98 -7 3 C-6.67 2.01 -6.34 1.02 -6 0 C-3.42525708 -0.99667468 -2.51072708 -1.25536354 0 0 Z " fill="#456BB3" transform="translate(159,245)"/>
<path d="M0 0 C0.66 0.33 1.32 0.66 2 1 C1.51421457 4.12290635 1.0013988 6.99580359 0 10 C-0.99 10.33 -1.98 10.66 -3 11 C-2.25 3.375 -2.25 3.375 0 0 Z " fill="#294992" transform="translate(263,190)"/>
<path d="M0 0 C1.58927373 5.09239119 -0.36380125 9.09140374 -2 14 C-4.0625 15.6875 -4.0625 15.6875 -6 17 C-5.19534869 13.26345828 -3.82425115 9.80577218 -2.4375 6.25 C-1.98246094 5.07953125 -1.52742187 3.9090625 -1.05859375 2.703125 C-0.53458984 1.36507813 -0.53458984 1.36507813 0 0 Z " fill="#576EBE" transform="translate(195,311)"/>
<path d="M0 0 C0.66 0.33 1.32 0.66 2 1 C2 1.99 2 2.98 2 4 C2.99 4.33 3.98 4.66 5 5 C4.01 5.66 3.02 6.32 2 7 C-0.625 6.25 -0.625 6.25 -3 5 C-3.33 4.34 -3.66 3.68 -4 3 C-2.68 2.01 -1.36 1.02 0 0 Z " fill="#395BA0" transform="translate(335,291)"/>
<path d="M0 0 C1.03311995 3.1412431 0.99963588 4.8244183 -0.25 7.875 C-0.52972656 8.56335938 -0.80945313 9.25171875 -1.09765625 9.9609375 C-2.30569794 12.69079795 -3.61252055 15.357182 -5 18 C-6.35114472 14.94255252 -5.9224598 13.77959635 -4.78515625 10.546875 C-4.22254947 9.27604557 -3.64790949 8.01048782 -3.0625 6.75 C-2.77181641 6.1003125 -2.48113281 5.450625 -2.18164062 4.78125 C-1.46471025 3.18284785 -0.73371051 1.59076946 0 0 Z " fill="#5979C9" transform="translate(205,285)"/>
<path d="M0 0 C1.28645301 4.22956134 0.53416389 6.83584086 -1 11 C-3.125 13.9375 -3.125 13.9375 -5 16 C-4.39363767 10.23955788 -2.24341721 5.27985631 0 0 Z " fill="#5E77C3" transform="translate(170,375)"/>
<path d="M0 0 C1.6254308 0.14095064 3.25034051 0.28792087 4.875 0.4375 C5.77992188 0.51871094 6.68484375 0.59992188 7.6171875 0.68359375 C10 1 10 1 12 2 C12 2.66 12 3.32 12 4 C4.61538462 4.49230769 4.61538462 4.49230769 1.5 2 C1.005 1.34 0.51 0.68 0 0 Z " fill="#294892" transform="translate(262,374)"/>
<path d="M0 0 C1.32830615 3.98491845 0.23204404 5.40048548 -1.4375 9.1875 C-1.91058594 10.27417969 -2.38367188 11.36085938 -2.87109375 12.48046875 C-3.42990234 13.72763672 -3.42990234 13.72763672 -4 15 C-5.24964981 11.25105057 -4.75598428 8.84864723 -4 5 C-3.34 4.01 -2.68 3.02 -2 2 C-1.34 2 -0.68 2 0 2 C0 1.34 0 0.68 0 0 Z " fill="#5477C6" transform="translate(185,400)"/>
<path d="M0 0 C0.95397067 3.40394081 1.05552406 5.56954679 0 9 C-1.5625 10.8125 -1.5625 10.8125 -3 12 C-4 10 -4 10 -3.22265625 7.6171875 C-2.83980469 6.71226562 -2.45695313 5.80734375 -2.0625 4.875 C-1.68222656 3.96492187 -1.30195313 3.05484375 -0.91015625 2.1171875 C-0.60980469 1.41851562 -0.30945313 0.71984375 0 0 Z " fill="#4D68B6" transform="translate(240,195)"/>
<path d="M0 0 C1.5625 1.75 1.5625 1.75 3 4 C2.6875 6.25 2.6875 6.25 2 8 C0.0625 7.25 0.0625 7.25 -2 6 C-2.75 3.875 -2.75 3.875 -3 2 C-2.01 1.34 -1.02 0.68 0 0 Z " fill="#224C8D" transform="translate(135,338)"/>
<path d="M0 0 C2.97 0.99 5.94 1.98 9 3 C9 4.32 9 5.64 9 7 C5.18315774 5.44499019 2.80804268 2.96404505 0 0 Z " fill="#506CB9" transform="translate(100,338)"/>
<path d="M0 0 C7.57142857 4 7.57142857 4 10 8 C8.02 8 6.04 8 4 8 C3.71125 7.195625 3.4225 6.39125 3.125 5.5625 C2.26737432 2.8673532 2.26737432 2.8673532 0 2 C0 1.34 0 0.68 0 0 Z " fill="#4F68B9" transform="translate(331,265)"/>
<path d="M0 0 C0.66 0.99 1.32 1.98 2 3 C0 6 0 6 -2 6.8125 C-2.66 6.874375 -3.32 6.93625 -4 7 C-4.66 6.34 -5.32 5.68 -6 5 C-5.38125 4.54625 -4.7625 4.0925 -4.125 3.625 C-1.94080167 2.02891081 -1.94080167 2.02891081 0 0 Z " fill="#2D4E96" transform="translate(132,260)"/>
<path d="M0 0 C1.32 0.99 2.64 1.98 4 3 C0.535 4.485 0.535 4.485 -3 6 C-3.33 5.01 -3.66 4.02 -4 3 C-2.68 2.01 -1.36 1.02 0 0 Z " fill="#3C5BA7" transform="translate(277,372)"/>
<path d="M0 0 C0.66 0.33 1.32 0.66 2 1 C1.01 2.98 0.02 4.96 -1 7 C-2.65 6.67 -4.3 6.34 -6 6 C-4 4 -2 2 0 0 Z " fill="#4970BD" transform="translate(294,333)"/>
<path d="M0 0 C3.375 0.6875 3.375 0.6875 7 2 C8.4375 4.625 8.4375 4.625 9 7 C5.18315774 5.44499019 2.80804268 2.96404505 0 0 Z " fill="#5F73C8" transform="translate(91,331)"/>
<path d="M0 0 C0.66 0 1.32 0 2 0 C3.4606285 2.64738916 4 3.89448334 4 7 C2.0625 6.1875 2.0625 6.1875 0 5 C-0.33 4.01 -0.66 3.02 -1 2 C-0.67 1.34 -0.34 0.68 0 0 Z " fill="#4260B0" transform="translate(327,287)"/>
<path d="M0 0 C1.39195915 4.17587745 -0.17676781 6.13474776 -2 10 C-4 7 -4 7 -3.8125 5 C-2.90059285 2.75530549 -1.81466246 1.57796735 0 0 Z " fill="#4778BF" transform="translate(232,278)"/>
<path d="M0 0 C0.66 0.33 1.32 0.66 2 1 C0.875 3.4375 0.875 3.4375 -1 6 C-4.1875 6.8125 -4.1875 6.8125 -7 7 C-4.66666667 4.66666667 -2.33333333 2.33333333 0 0 Z " fill="#5A72BF" transform="translate(92,266)"/>
<path d="M0 0 C1.65 0 3.3 0 5 0 C6.32 2.31 7.64 4.62 9 7 C5.18315774 5.44499019 2.80804268 2.96404505 0 0 Z " fill="#537CC5" transform="translate(270,246)"/>
<path d="M0 0 C1 3 1 3 0.22265625 4.82421875 C-0.8515625 6.54947917 -1.92578125 8.27473958 -3 10 C-3.99 10 -4.98 10 -6 10 C-5.1875 8.0625 -5.1875 8.0625 -4 6 C-3.01 5.67 -2.02 5.34 -1 5 C-0.67 3.35 -0.34 1.7 0 0 Z " fill="#4462B1" transform="translate(264,195)"/>
<path d="M0 0 C0.66 0.33 1.32 0.66 2 1 C-2.30769231 6.78461538 -2.30769231 6.78461538 -5.8125 7.875 C-6.8953125 7.936875 -6.8953125 7.936875 -8 8 C-5.33333333 5.33333333 -2.66666667 2.66666667 0 0 Z " fill="#4891CF" transform="translate(131,235)"/>
<path d="M0 0 C1.32 0.33 2.64 0.66 4 1 C2.95125002 3.62187494 2.35068687 4.79371361 -0.125 6.25 C-0.74375 6.4975 -1.3625 6.745 -2 7 C-1.34 4.69 -0.68 2.38 0 0 Z " fill="#4969B7" transform="translate(162,236)"/>
<path d="M0 0 C0.66 0.33 1.32 0.66 2 1 C2.625 4.0625 2.625 4.0625 3 7 C1.68 6.34 0.36 5.68 -1 5 C-1 1 -1 1 0 0 Z " fill="#445EAE" transform="translate(120,349)"/>
<path d="M0 0 C2.64 1.98 5.28 3.96 8 6 C6.02 6.99 6.02 6.99 4 8 C0 2.25 0 2.25 0 0 Z " fill="#5D84CD" transform="translate(133,334)"/>
<path d="M0 0 C0.66 0 1.32 0 2 0 C1.6875 1.9375 1.6875 1.9375 1 4 C0.01 4.33 -0.98 4.66 -2 5 C-2 5.99 -2 6.98 -2 8 C-2.66 8 -3.32 8 -4 8 C-2.87548273 5.0280615 -1.77706209 2.66559313 0 0 Z " fill="#3E59A8" transform="translate(191,325)"/>
<path d="M0 0 C2.66666667 0.66666667 5.33333333 1.33333333 8 2 C8.33 3.32 8.66 4.64 9 6 C5.06326356 4.68775452 2.77280706 3.08089673 0 0 Z " fill="#577CC5" transform="translate(66,312)"/>
<path d="M0 0 C0.99 0.66 1.98 1.32 3 2 C3 3.32 3 4.64 3 6 C2.34 6 1.68 6 1 6 C1 5.34 1 4.68 1 4 C-0.32 3.34 -1.64 2.68 -3 2 C-2.01 1.34 -1.02 0.68 0 0 Z " fill="#4A63B6" transform="translate(305,270)"/>
<path d="M0 0 C2.4375 0.75 2.4375 0.75 5 2 C5.8125 4.125 5.8125 4.125 6 6 C4.125 5.8125 4.125 5.8125 2 5 C0.75 2.4375 0.75 2.4375 0 0 Z " fill="#284A92" transform="translate(288,233)"/>
<path d="M0 0 C1.31602523 0.61754259 2.62773556 1.24428742 3.9375 1.875 C4.66839844 2.22304687 5.39929688 2.57109375 6.15234375 2.9296875 C8 4 8 4 9 6 C5.20696275 4.99806563 2.28463659 4.18975773 -1 2 C-0.67 1.34 -0.34 0.68 0 0 Z " fill="#445FAF" transform="translate(284,229)"/>
<path d="M0 0 C1.32 0.66 2.64 1.32 4 2 C3.67 2.99 3.34 3.98 3 5 C2.34 5 1.68 5 1 5 C1 5.66 1 6.32 1 7 C0.34 7 -0.32 7 -1 7 C-0.67 4.69 -0.34 2.38 0 0 Z " fill="#1F4B8A" transform="translate(161,228)"/>
<path d="M0 0 C0 0.66 0 1.32 0 2 C-0.66 2 -1.32 2 -2 2 C-2.66 3.98 -3.32 5.96 -4 8 C-4.66 7.34 -5.32 6.68 -6 6 C-3.84615385 0 -3.84615385 0 0 0 Z " fill="#4662AF" transform="translate(266,221)"/>
<path d="M0 0 C0.99 0.33 1.98 0.66 3 1 C2.34 1 1.68 1 1 1 C1 1.66 1 2.32 1 3 C1.66 3.33 2.32 3.66 3 4 C2.67 4.99 2.34 5.98 2 7 C1.34 7 0.68 7 0 7 C0 6.34 0 5.68 0 5 C-0.66 4.67 -1.32 4.34 -2 4 C-1.34 2.68 -0.68 1.36 0 0 Z " fill="#214B8E" transform="translate(310,342)"/>
<path d="M0 0 C3.875 1.75 3.875 1.75 5 4 C3.35 4.66 1.7 5.32 0 6 C0 4.02 0 2.04 0 0 Z " fill="#284A92" transform="translate(118,325)"/>
<path d="M0 0 C0.99 0 1.98 0 3 0 C2.67 1.32 2.34 2.64 2 4 C0.02 4.33 -1.96 4.66 -4 5 C-2.1875 2.5 -2.1875 2.5 0 0 Z " fill="#1F528C" transform="translate(88,290)"/>
<path d="M0 0 C0.99 0.33 1.98 0.66 3 1 C2.67 1.66 2.34 2.32 2 3 C-0.3140622 3.73075648 -2.64828869 4.40138258 -5 5 C-3.35 3.35 -1.7 1.7 0 0 Z " fill="#20508E" transform="translate(99,282)"/>
<path d="M0 0 C2.31 1.65 4.62 3.3 7 5 C6.01 5.33 5.02 5.66 4 6 C2.62437146 4.71034824 1.29233607 3.37310707 0 2 C0 1.34 0 0.68 0 0 Z " fill="#69A9DE" transform="translate(293,244)"/>
</svg>
