<?xml version="1.0" encoding="UTF-8"?>
<svg version="1.1" xmlns="http://www.w3.org/2000/svg" width="500" height="500">
<path d="M0 0 C1.6594979 0.98671622 3.33551787 1.94549884 5.01269531 2.90185547 C10.14229365 5.8567931 10.14229365 5.8567931 11.78613281 7.06201172 C11.78613281 7.72201172 11.78613281 8.38201172 11.78613281 9.06201172 C12.44613281 9.06201172 13.10613281 9.06201172 13.78613281 9.06201172 C13.78613281 9.72201172 13.78613281 10.38201172 13.78613281 11.06201172 C14.34300781 11.30306641 14.89988281 11.54412109 15.47363281 11.79248047 C18.28270623 13.33462382 20.4131223 15.22216225 22.78613281 17.37451172 C23.63175781 18.13376953 24.47738281 18.89302734 25.34863281 19.67529297 C27.73678492 22.01369191 29.82701311 24.35461713 31.78613281 27.06201172 C31.78613281 27.72201172 31.78613281 28.38201172 31.78613281 29.06201172 C32.44613281 29.06201172 33.10613281 29.06201172 33.78613281 29.06201172 C35.44787163 31.25842336 36.97404645 33.44524882 38.47363281 35.74951172 C38.91843994 36.4270752 39.36324707 37.10463867 39.8215332 37.80273438 C45.60746435 46.73126729 50.91172888 55.75380453 53.78613281 66.06201172 C54.27726562 67.70169922 54.27726562 67.70169922 54.77832031 69.37451172 C63.12765739 97.65255848 62.39749775 125.25746879 52.78613281 153.06201172 C52.46773437 154.02365234 52.14933594 154.98529297 51.82128906 155.97607422 C48.86231303 164.1303031 44.12748243 171.58524294 39.78613281 179.06201172 C39.12613281 179.06201172 38.46613281 179.06201172 37.78613281 179.06201172 C37.54121094 179.77744141 37.29628906 180.49287109 37.04394531 181.22998047 C32.01242861 192.55870596 19.14361268 205.23150011 7.78613281 210.43701172 C7.12613281 210.64326172 6.46613281 210.84951172 5.78613281 211.06201172 C5.78613281 211.72201172 5.78613281 212.38201172 5.78613281 213.06201172 C3.44238281 214.64794922 3.44238281 214.64794922 0.28613281 216.43701172 C-1.24527344 217.31486328 -1.24527344 217.31486328 -2.80761719 218.21044922 C-32.79968529 234.51347706 -68.44707051 238.57185889 -101.40136719 229.25732422 C-114.73643128 225.07645372 -126.83506821 219.16270392 -138.40136719 211.31201172 C-138.97902832 210.92295654 -139.55668945 210.53390137 -140.15185547 210.13305664 C-141.54470566 209.1628922 -142.88511003 208.11825747 -144.21386719 207.06201172 C-144.21386719 206.40201172 -144.21386719 205.74201172 -144.21386719 205.06201172 C-144.77074219 205.00013672 -145.32761719 204.93826172 -145.90136719 204.87451172 C-151.18609369 203.01771592 -155.230427 196.97453257 -159.02636719 192.87451172 C-159.77950195 192.0749707 -159.77950195 192.0749707 -160.54785156 191.25927734 C-164.21386719 187.29399514 -164.21386719 187.29399514 -164.21386719 185.06201172 C-164.87386719 185.06201172 -165.53386719 185.06201172 -166.21386719 185.06201172 C-167.65917969 182.92919922 -167.65917969 182.92919922 -169.33886719 179.93701172 C-169.95890625 178.83615234 -170.57894531 177.73529297 -171.21777344 176.60107422 C-171.70721436 175.72563965 -171.70721436 175.72563965 -172.20654297 174.83251953 C-173.18791058 173.10763395 -174.21407951 171.40848152 -175.24121094 169.71044922 C-192.53138699 140.83817827 -194.87939374 105.66141372 -187.11621094 73.21826172 C-183.35762673 60.07135244 -177.33736234 48.03970787 -169.21386719 37.06201172 C-168.51013448 35.86305969 -167.82254075 34.65448934 -167.15136719 33.43701172 C-162.99695819 26.20029927 -157.22459797 20.86977147 -150.90917969 15.53857422 C-149.41178141 14.23438862 -147.99298643 12.84113096 -146.58886719 11.43701172 C-142.32087708 7.16902161 -137.89732762 4.21461331 -132.59277344 1.40576172 C-130.10572903 0.05038884 -130.10572903 0.05038884 -127.49121094 -1.83642578 C-123.55235925 -4.36217335 -119.49739057 -6.20396741 -115.21386719 -8.06298828 C-114.43269531 -8.40974609 -113.65152344 -8.75650391 -112.84667969 -9.11376953 C-77.2014858 -24.7760517 -32.79884414 -19.58890925 0 0 Z M-122.96386719 60.99951172 C-136.98312089 77.71730722 -140.92538976 97.83319163 -139.21386719 119.06201172 C-137.30584624 133.13125709 -130.52435721 147.31913861 -121.21386719 158.06201172 C-120.55386719 158.06201172 -119.89386719 158.06201172 -119.21386719 158.06201172 C-119.21386719 158.72201172 -119.21386719 159.38201172 -119.21386719 160.06201172 C-118.55386719 160.06201172 -117.89386719 160.06201172 -117.21386719 160.06201172 C-117.21386719 160.72201172 -117.21386719 161.38201172 -117.21386719 162.06201172 C-113.7256712 164.96670433 -109.94721334 167.48351398 -106.21386719 170.06201172 C-105.53582031 170.54412109 -104.85777344 171.02623047 -104.15917969 171.52294922 C-88.5143652 182.06473409 -68.98486015 184.42900555 -50.63720703 181.67529297 C-40.92067412 179.65564364 -32.41469275 175.63583188 -24.21386719 170.06201172 C-23.16457031 169.35044922 -22.11527344 168.63888672 -21.03417969 167.90576172 C-17.02787284 165.10799263 -17.02787284 165.10799263 -13.21386719 162.06201172 C-13.21386719 161.40201172 -13.21386719 160.74201172 -13.21386719 160.06201172 C-12.55386719 160.06201172 -11.89386719 160.06201172 -11.21386719 160.06201172 C-9.70284691 158.13394984 -8.3226332 156.21896917 -6.96386719 154.18701172 C-6.56200195 153.58985352 -6.16013672 152.99269531 -5.74609375 152.37744141 C-4.93595482 151.16644911 -4.1296031 149.95291424 -3.32714844 148.73681641 C-2.39420017 147.33330212 -1.43235494 145.94905455 -0.46386719 144.56982422 C9.43325607 129.67259181 11.19709409 110.8588621 8.37011719 93.50878906 C5.64038461 80.70592169 -0.19789443 70.03340786 -8.57714844 60.05810547 C-10.21386719 58.06201172 -10.21386719 58.06201172 -11.21386719 56.06201172 C-11.87386719 56.06201172 -12.53386719 56.06201172 -13.21386719 56.06201172 C-13.21386719 55.40201172 -13.21386719 54.74201172 -13.21386719 54.06201172 C-13.87386719 54.06201172 -14.53386719 54.06201172 -15.21386719 54.06201172 C-15.21386719 53.40201172 -15.21386719 52.74201172 -15.21386719 52.06201172 C-18.71314428 49.48079591 -22.50479899 47.32813884 -26.21386719 45.06201172 C-27.45136719 44.24410156 -27.45136719 44.24410156 -28.71386719 43.40966797 C-59.97183529 23.20509319 -99.37394403 35.33574916 -122.96386719 60.99951172 Z " fill="#828BE5" transform="translate(315.2138671875,141.93798828125)"/>
<path d="M0 0 C1.09592468 -0.0051059 1.09592468 -0.0051059 2.21398926 -0.01031494 C11.18422194 -0.03420003 19.8093686 0.46984529 28.625 2.3125 C28.625 2.6425 28.625 2.9725 28.625 3.3125 C27.83996094 3.42207031 27.05492187 3.53164062 26.24609375 3.64453125 C17.28936124 4.99628352 10.95493221 6.10592439 4.984375 13.30078125 C1.56340109 18.36342941 0.22494552 22.17021639 0.3125 28.3125 C0.31636719 29.488125 0.32023437 30.66375 0.32421875 31.875 C0.73838527 36.60833165 2.0355299 41.2844354 4.625 45.3125 C6.47471696 46.36271103 6.47471696 46.36271103 8.625 47.3125 C10.30614608 48.62752982 11.974423 49.95929968 13.625 51.3125 C12.93051758 51.32708252 12.23603516 51.34166504 11.52050781 51.35668945 C8.30484235 51.43219836 5.09010173 51.52851054 1.875 51.625 C0.23724609 51.65883789 0.23724609 51.65883789 -1.43359375 51.69335938 C-21.90256227 52.35950924 -40.01119551 60.78386496 -54.375 75.3125 C-63.80216657 85.52805951 -68.77137042 97.00679078 -72.375 110.3125 C-72.5500708 110.93624512 -72.7251416 111.55999023 -72.90551758 112.20263672 C-77.31527734 132.02018424 -71.08848435 151.29381949 -60.58203125 167.8359375 C-60.01705933 168.700979 -60.01705933 168.700979 -59.44067383 169.58349609 C-58.29511953 171.44210217 -57.3250512 173.34782317 -56.375 175.3125 C-57.19677734 174.77109375 -57.19677734 174.77109375 -58.03515625 174.21875 C-65.64193229 169.76600305 -72.75256586 169.34881618 -81.375 170.3125 C-82.72518215 170.94434681 -84.06274489 171.60524562 -85.375 172.3125 C-86.695 172.3125 -88.015 172.3125 -89.375 172.3125 C-89.6225 172.828125 -89.87 173.34375 -90.125 173.875 C-91.44727818 176.45344245 -92.89543033 178.9425995 -94.375 181.43359375 C-96.80429222 185.99800609 -97.66928112 189.61404542 -97.6875 194.8125 C-97.70425781 195.9159375 -97.72101563 197.019375 -97.73828125 198.15625 C-97.33950269 201.62090676 -96.22651118 203.41536956 -94.375 206.3125 C-94.705 206.9725 -95.035 207.6325 -95.375 208.3125 C-96.75062854 207.02284824 -98.08266393 205.68560707 -99.375 204.3125 C-99.375 203.6525 -99.375 202.9925 -99.375 202.3125 C-100.035 202.3125 -100.695 202.3125 -101.375 202.3125 C-102.8203125 200.1796875 -102.8203125 200.1796875 -104.5 197.1875 C-105.12003906 196.08664062 -105.74007812 194.98578125 -106.37890625 193.8515625 C-106.86834717 192.97612793 -106.86834717 192.97612793 -107.36767578 192.08300781 C-108.34904339 190.35812223 -109.37521232 188.6589698 -110.40234375 186.9609375 C-127.6925198 158.08866655 -130.04052655 122.911902 -122.27734375 90.46875 C-118.51875954 77.32184072 -112.49849515 65.29019615 -104.375 54.3125 C-103.67126729 53.11354797 -102.98367356 51.90497762 -102.3125 50.6875 C-98.158091 43.45078755 -92.38573078 38.12025975 -86.0703125 32.7890625 C-84.57291422 31.4848769 -83.15411924 30.09161924 -81.75 28.6875 C-77.48200989 24.41950989 -73.05846044 21.46510159 -67.75390625 18.65625 C-65.26686184 17.30087712 -65.26686184 17.30087712 -62.65234375 15.4140625 C-58.71349206 12.88831493 -54.65852338 11.04652087 -50.375 9.1875 C-49.59382813 8.84074219 -48.81265625 8.49398437 -48.0078125 8.13671875 C-32.3380783 1.25153251 -16.90545973 0.01866347 0 0 Z " fill="#FABE64" transform="translate(250.375,124.6875)"/>
<path d="M0 0 C0.73106964 -0.00358521 1.46213928 -0.00717041 2.21536255 -0.01086426 C11.1849803 -0.03449796 19.81003627 0.46998485 28.625 2.3125 C28.625 2.6425 28.625 2.9725 28.625 3.3125 C27.82835937 3.43367187 27.03171875 3.55484375 26.2109375 3.6796875 C18.27998622 4.93133475 18.27998622 4.93133475 10.625 7.3125 C10.625 5.9925 10.625 4.6725 10.625 3.3125 C6.22922496 3.25348412 1.83355438 3.21856752 -2.5625 3.1875 C-3.78904297 3.17074219 -5.01558594 3.15398437 -6.27929688 3.13671875 C-20.64607184 3.06090463 -36.12522235 4.72182608 -49 11.625 C-52.375 13.3125 -52.375 13.3125 -54.5859375 12.91796875 C-55.47152344 12.61826172 -55.47152344 12.61826172 -56.375 12.3125 C-37.89200213 2.52974191 -20.66367979 0.04108253 0 0 Z " fill="#EFC180" transform="translate(250.375,124.6875)"/>
<path d="M0 0 C0.66 0.33 1.32 0.66 2 1 C-0.19581359 3.4491767 -1.96018456 4.98051585 -4.9375 6.4375 C-9.50417534 8.7674364 -12.21176501 11.75408018 -14.9375 16.0625 C-17.25680519 19.36575285 -19.66002492 20.79703771 -23 23 C-24.69882448 25.49759982 -24.69882448 25.49759982 -26 28 C-27.5625 29.8125 -27.5625 29.8125 -29 31 C-29.66 31 -30.32 31 -31 31 C-31.12375 31.5775 -31.2475 32.155 -31.375 32.75 C-32.00648824 35.02335767 -32.88858191 36.9253529 -34 39 C-34.66 39 -35.32 39 -36 39 C-36.1546875 40.11375 -36.1546875 40.11375 -36.3125 41.25 C-37.05451038 44.21804151 -38.1904406 45.58725413 -40 48 C-40.12375 48.825 -40.2475 49.65 -40.375 50.5 C-41.23970586 53.95882344 -43.14176168 55.02121963 -46 57 C-44.299694 48.51871174 -39.08967913 40.83088514 -34 34 C-33.29546879 32.80151702 -32.60777585 31.59297208 -31.9375 30.375 C-27.783091 23.13828755 -22.01073078 17.80775975 -15.6953125 12.4765625 C-14.19791422 11.1723769 -12.77911924 9.77911924 -11.375 8.375 C-8.00055153 5.00055153 -4.52176143 1.71515089 0 0 Z " fill="#EFCD97" transform="translate(180,145)"/>
<path d="M0 0 C0.66 0 1.32 0 2 0 C2.01417969 1.30710938 2.02835938 2.61421875 2.04296875 3.9609375 C2.46438532 23.32055931 6.31454151 38.01079959 16.93432617 54.27099609 C18.07988047 56.12960217 19.0499488 58.03532317 20 60 C19.45214844 59.6390625 18.90429688 59.278125 18.33984375 58.90625 C10.54802596 54.34518593 3.7625835 54.5220409 -5 55 C-5.99 55 -6.98 55 -8 55 C-6 53 -6 53 -4.12060547 52.77294922 C-3.37697754 52.78342285 -2.63334961 52.79389648 -1.8671875 52.8046875 C-1.06152344 52.81113281 -0.25585938 52.81757813 0.57421875 52.82421875 C1.41597656 52.84097656 2.25773438 52.85773438 3.125 52.875 C4.39923828 52.88853516 4.39923828 52.88853516 5.69921875 52.90234375 C7.79959884 52.92594353 9.89983444 52.96181517 12 53 C11.67 52.236875 11.34 51.47375 11 50.6875 C10 48 10 48 10 45 C9.34 45 8.68 45 8 45 C7.823479 44.45996338 7.64695801 43.91992676 7.46508789 43.36352539 C6.66733505 40.92881836 5.86498121 38.49565242 5.0625 36.0625 C4.78470703 35.21236328 4.50691406 34.36222656 4.22070312 33.48632812 C3.95322266 32.67744141 3.68574219 31.86855469 3.41015625 31.03515625 C3.04096069 29.91185913 3.04096069 29.91185913 2.66430664 28.76586914 C2.13935731 27.00174019 2.13935731 27.00174019 1 26 C-0.385101 17.38159378 -0.08991713 8.70197971 0 0 Z " fill="#EECC9B" transform="translate(174,240)"/>
<path d="M0 0 C2.33223736 3.49835604 3.15245549 6.91404733 4.125 10.9375 C4.30675781 11.65357422 4.48851562 12.36964844 4.67578125 13.10742188 C5.52085109 16.53535554 6 19.44772031 6 23 C6.99 23.33 7.98 23.66 9 24 C9.5625 25.87109375 9.5625 25.87109375 10 28.4375 C11.46915846 34.51483853 14.31042354 39.35707448 17.5625 44.625 C18.05814453 45.43122803 18.55378906 46.23745605 19.06445312 47.06811523 C21.40589754 51.18669462 21.40589754 51.18669462 25 54 C25 50.37 25 46.74 25 43 C25.99 42.505 25.99 42.505 27 42 C26.96519531 43.02480469 26.93039063 44.04960937 26.89453125 45.10546875 C26.86637965 46.46612936 26.83908096 47.8268078 26.8125 49.1875 C26.78736328 49.86103516 26.76222656 50.53457031 26.73632812 51.22851562 C26.66973447 55.77908224 27.50262133 58.25735306 30 62 C29.67 62.66 29.34 63.32 29 64 C27.62437146 62.71034824 26.29233607 61.37310707 25 60 C25 59.34 25 58.68 25 58 C24.34 58 23.68 58 23 58 C21.5546875 55.8671875 21.5546875 55.8671875 19.875 52.875 C19.25496094 51.77414062 18.63492188 50.67328125 17.99609375 49.5390625 C17.6697998 48.95543945 17.34350586 48.37181641 17.00732422 47.77050781 C16.02595661 46.04562223 14.99978768 44.3464698 13.97265625 42.6484375 C6.22586809 29.7123421 -0.27305531 15.37301414 0 0 Z " fill="#ECCB9B" transform="translate(126,269)"/>
<path d="M0 0 C0.33 0 0.66 0 1 0 C1.28875 0.9075 1.5775 1.815 1.875 2.75 C3.29798253 7.67297185 3.29798253 7.67297185 6.8125 11 C7.534375 11.33 8.25625 11.66 9 12 C10.65 13.32 12.3 14.64 14 16 C6.08 16 -1.84 16 -10 16 C-10 15.34 -10 14.68 -10 14 C-3.375 11.125 -3.375 11.125 0 10 C0 6.7 0 3.4 0 0 Z " fill="#F8BE67" transform="translate(250,160)"/>
<path d="M0 0 C2.109375 0.41796875 2.109375 0.41796875 4 1 C3.25556641 1.61875 3.25556641 1.61875 2.49609375 2.25 C-11.92055713 14.50552105 -20.51230792 29.29328793 -24 48 C-24.33 48 -24.66 48 -25 48 C-25.48452463 41.05514697 -23.69287491 34.7009632 -22 28 C-21.34 28 -20.68 28 -20 28 C-19.9175 27.29875 -19.835 26.5975 -19.75 25.875 C-18.81990995 22.3096548 -17.23313631 19.90984428 -15 17 C-14.34 17 -13.68 17 -13 17 C-12.938125 16.46375 -12.87625 15.9275 -12.8125 15.375 C-11.59964736 11.82973843 -9.55389074 9.7407608 -7 7 C-6.34 7 -5.68 7 -5 7 C-5 6.34 -5 5.68 -5 5 C-4.34 5 -3.68 5 -3 5 C-3 4.34 -3 3.68 -3 3 C-1.75 1.3125 -1.75 1.3125 0 0 Z " fill="#EFCFA3" transform="translate(201,191)"/>
<path d="M0 0 C2.2734375 0.78515625 2.2734375 0.78515625 5 2 C6.87447708 2.81370567 8.74950853 3.62613509 10.625 4.4375 C11.56601563 4.84871094 12.50703125 5.25992187 13.4765625 5.68359375 C23.41703219 9.39749429 32.06964518 10.40216892 42.6875 10.1875 C43.97333984 10.17396484 45.25917969 10.16042969 46.58398438 10.14648438 C49.72310855 10.11147556 52.86132061 10.06237058 56 10 C53.50137608 12.49862392 51.97704713 12.25602912 48.56535339 12.30354309 C47.82577896 12.30263168 47.08620453 12.30172028 46.32421875 12.30078125 C45.56204544 12.30506638 44.79987213 12.3093515 44.01460266 12.31376648 C42.39980055 12.31951458 40.78497254 12.32000651 39.17016602 12.31567383 C36.70739027 12.31252543 34.24582923 12.33592497 31.78320312 12.36132812 C30.21354318 12.36360234 28.64388001 12.36430405 27.07421875 12.36328125 C25.97396614 12.37709587 25.97396614 12.37709587 24.85148621 12.39118958 C20.34255113 12.35071475 17.66811407 11.5973216 14 9 C13.2575 8.814375 12.515 8.62875 11.75 8.4375 C11.1725 8.293125 10.595 8.14875 10 8 C9.67 7.34 9.34 6.68 9 6 C6.6859378 5.26924352 4.35171131 4.59861742 2 4 C2 3.34 2 2.68 2 2 C0.68 1.67 -0.64 1.34 -2 1 C-1.34 0.67 -0.68 0.34 0 0 Z " fill="#ADADDD" transform="translate(210,313)"/>
<path d="M0 0 C0.33 0.66 0.66 1.32 1 2 C0.22265625 3.8125 0.22265625 3.8125 -0.9375 6 C-3.86810933 12.25533509 -3.85781853 18.39945774 -2 25 C-1.34 25 -0.68 25 0 25 C1.57663003 27.27034725 2.84539362 29.20120038 3.375 31.9375 C4.38590254 35.27347837 6.70437167 37.41006035 9 40 C2.80077647 37.24775852 -1.49402788 31.44517077 -4.3046875 25.36328125 C-6.60913174 17.53076008 -5.6313462 9.79561906 -1.97265625 2.609375 C-1 1 -1 1 0 0 Z " fill="#B0A5C5" transform="translate(157,303)"/>
<path d="M0 0 C0.70125 0.144375 1.4025 0.28875 2.125 0.4375 C5.07556141 1.01478375 8.03270151 1.51695141 11 2 C11 2.66 11 3.32 11 4 C12.09054687 4.40412109 12.09054687 4.40412109 13.203125 4.81640625 C15.94411552 5.97635056 18.26865374 7.30131027 20.75 8.9375 C21.52859375 9.44152344 22.3071875 9.94554687 23.109375 10.46484375 C25 12 25 12 26 15 C26.66 15 27.32 15 28 15 C28 15.99 28 16.98 28 18 C27.34 18 26.68 18 26 18 C26 17.34 26 16.68 26 16 C25.34 16 24.68 16 24 16 C24 15.34 24 14.68 24 14 C23.47019531 13.75121094 22.94039063 13.50242188 22.39453125 13.24609375 C18.23808008 11.08311182 14.34339169 8.47776871 10.38671875 5.97265625 C6.97456064 3.98518238 3.65324098 2.47703913 0 1 C0 0.67 0 0.34 0 0 Z " fill="#9FA0D7" transform="translate(276,180)"/>
<path d="M0 0 C13.1023225 1.57360384 23.93523108 7.22324943 35 14 C32.50907189 15.24546405 31.58919267 14.7767578 29 14 C29 13.34 29 12.68 29 12 C27.68 12 26.36 12 25 12 C24.67 11.34 24.34 10.68 24 10 C20.95342609 9.14301087 17.88279362 8.52501655 14.78515625 7.87890625 C12 7 12 7 10 4 C7.59027402 2.98675674 7.59027402 2.98675674 4.875 2.3125 C3.96492188 2.06113281 3.05484375 1.80976563 2.1171875 1.55078125 C1.41851562 1.36902344 0.71984375 1.18726563 0 1 C0 0.67 0 0.34 0 0 Z " fill="#C3C3E0" transform="translate(280,128)"/>
<path d="M0 0 C-0.60328125 0.04898438 -1.2065625 0.09796875 -1.828125 0.1484375 C-2.62734375 0.22320312 -3.4265625 0.29796875 -4.25 0.375 C-5.43335938 0.47941406 -5.43335938 0.47941406 -6.640625 0.5859375 C-9.10118143 1.01775701 -10.7943921 1.8635055 -13 3 C-14.7015625 3.2165625 -14.7015625 3.2165625 -16.4375 3.4375 C-20.05508195 4.00869715 -21.95350972 5.08506325 -25 7 C-25.66 6.67 -26.32 6.34 -27 6 C-20.04296755 -0.72442651 -9.02903028 -6.01935352 0 0 Z " fill="#9891C8" transform="translate(283,130)"/>
<path d="M0 0 C-1.02770508 0.28665527 -1.02770508 0.28665527 -2.07617188 0.57910156 C-5.21985244 1.46107271 -8.359882 2.3554315 -11.5 3.25 C-12.57765625 3.55035156 -13.6553125 3.85070312 -14.765625 4.16015625 C-19.5885111 5.54232483 -24.10403546 6.91077885 -28.53125 9.296875 C-32.13550563 11.06653204 -32.4991617 11.19059178 -36 10 C-11.22824394 -3.11129822 -11.22824394 -3.11129822 0 0 Z " fill="#EED0A0" transform="translate(230,127)"/>
<path d="M0 0 C0.66 0.33 1.32 0.66 2 1 C0.51397897 4.71505257 -0.36950769 6.62992843 -3.875 8.6875 C-4.90625 9.120625 -5.9375 9.55375 -7 10 C-7.845625 10.53625 -8.69125 11.0725 -9.5625 11.625 C-12.0842208 13.04750917 -14.15068752 13.59295536 -17 14 C-14.02196083 10.8667076 -10.86843394 8.29239128 -7.375 5.75 C-5.93253906 4.69039063 -5.93253906 4.69039063 -4.4609375 3.609375 C-2 2 -2 2 0 2 C0 1.34 0 0.68 0 0 Z " fill="#BFBEE2" transform="translate(302,302)"/>
<path d="M0 0 C0.66 0 1.32 0 2 0 C6.75481307 8.06250913 6.14482892 16.96198736 6.0625 26.0625 C6.05798828 27.02349609 6.05347656 27.98449219 6.04882812 28.97460938 C6.03717706 31.31647422 6.02082025 33.65820181 6 36 C5.67 36 5.34 36 5 36 C4.97421875 34.70707031 4.9484375 33.41414063 4.921875 32.08203125 C4.64542934 22.66928312 4.09358068 14.33794856 0.83984375 5.43359375 C0 3 0 3 0 0 Z " fill="#878CCC" transform="translate(320,224)"/>
<path d="M0 0 C0.33 0 0.66 0 1 0 C1.8609153 15.03732056 1.8609153 15.03732056 -1.375 18.9375 C-4 21 -4 21 -6 21 C-5.81824219 20.40574219 -5.63648438 19.81148438 -5.44921875 19.19921875 C-3.51738847 12.82913223 -1.72347474 6.42941642 0 0 Z " fill="#9FA1DA" transform="translate(323,262)"/>
<path d="M0 0 C-2.69396699 3.36745873 -6.01488847 4.33860633 -10 5.75 C-11.85625 6.42289062 -11.85625 6.42289062 -13.75 7.109375 C-17 8 -17 8 -20 7 C-19.01 6.01 -18.02 5.02 -17 4 C-17.33 3.34 -17.66 2.68 -18 2 C-17.07767578 2.03480469 -17.07767578 2.03480469 -16.13671875 2.0703125 C-14.92435547 2.09738281 -14.92435547 2.09738281 -13.6875 2.125 C-12.48673828 2.15980469 -12.48673828 2.15980469 -11.26171875 2.1953125 C-7.03663628 1.83045218 -4.67177697 -0.20763453 0 0 Z " fill="#A2A4D9" transform="translate(306,362)"/>
<path d="M0 0 C3.53600465 1.91135386 5.78972846 3.62642766 8 7 C7.67 7.66 7.34 8.32 7 9 C5.2421875 7.99088542 3.484375 6.98177083 1.7265625 5.97265625 C-2.06876284 3.83456573 -5.15870907 3.88517236 -9.4375 3.9375 C-10.11876953 3.94201172 -10.80003906 3.94652344 -11.50195312 3.95117188 C-13.33466462 3.96373699 -15.16733768 3.98161208 -17 4 C-17.99 4 -18.98 4 -20 4 C-18 2 -18 2 -16.12060547 1.77294922 C-15.37697754 1.78342285 -14.63334961 1.79389648 -13.8671875 1.8046875 C-12.65869141 1.81435547 -12.65869141 1.81435547 -11.42578125 1.82421875 C-10.16314453 1.84935547 -10.16314453 1.84935547 -8.875 1.875 C-7.60076172 1.88853516 -7.60076172 1.88853516 -6.30078125 1.90234375 C-4.20040116 1.92594353 -2.10016556 1.96181517 0 2 C0 1.34 0 0.68 0 0 Z " fill="#E3BA89" transform="translate(186,291)"/>
<path d="M0 0 C1.33597652 0.80814651 2.668725 1.62163181 4 2.4375 C4.7425 2.88996094 5.485 3.34242188 6.25 3.80859375 C7.11625 4.39833984 7.11625 4.39833984 8 5 C8 5.33 8 5.66 8 6 C0.08 6 -7.84 6 -16 6 C-11.77746115 3.88873057 -9.85998477 3.7828003 -5.25 3.875 C-3.49429688 3.90207031 -3.49429688 3.90207031 -1.703125 3.9296875 C-0.36507812 3.96449219 -0.36507812 3.96449219 1 4 C0.67 2.68 0.34 1.36 0 0 Z " fill="#EAC592" transform="translate(256,170)"/>
<path d="M0 0 C0.99 0.33 1.98 0.66 3 1 C3.6875 3.0625 3.6875 3.0625 4 5 C4.66 5 5.32 5 6 5 C7.38938077 6.96147874 8.7260411 8.96166576 10 11 C9.67 11.66 9.34 12.32 9 13 C6.6875 12.4375 6.6875 12.4375 4 11 C2.15603369 7.44377926 0.78637053 3.93185266 0 0 Z " fill="#A6A8DA" transform="translate(343,166)"/>
<path d="M0 0 C4.30764815 1.56641751 8.06171464 3.68336156 12 6 C12 6.66 12 7.32 12 8 C12.66 8 13.32 8 14 8 C13.67 8.66 13.34 9.32 13 10 C11.02 9.34 9.04 8.68 7 8 C7.33 7.34 7.66 6.68 8 6 C5.69 5.67 3.38 5.34 1 5 C1 4.01 1 3.02 1 2 C0.34 1.67 -0.32 1.34 -1 1 C-0.67 0.67 -0.34 0.34 0 0 Z " fill="#9A9DD6" transform="translate(315,143)"/>
<path d="M0 0 C2.9375 0.8125 2.9375 0.8125 6 2 C6.33 2.99 6.66 3.98 7 5 C7.9590625 5.2165625 7.9590625 5.2165625 8.9375 5.4375 C11 6 11 6 12.25 8.0625 C12.4975 8.701875 12.745 9.34125 13 10 C10.0280615 8.87548273 7.66559313 7.77706209 5 6 C5 5.34 5 4.68 5 4 C4.360625 3.896875 3.72125 3.79375 3.0625 3.6875 C2.381875 3.460625 1.70125 3.23375 1 3 C0.67 2.01 0.34 1.02 0 0 Z " fill="#ADAED9" transform="translate(166,343)"/>
<path d="M0 0 C2.48316465 2.48316465 3.6805057 3.92928533 5.1875 6.9375 C5.53167969 7.60652344 5.87585938 8.27554688 6.23046875 8.96484375 C7 11 7 11 7 15 C6.34 15 5.68 15 5 15 C5 14.01 5 13.02 5 12 C4.34 12 3.68 12 3 12 C2.01 8.04 1.02 4.08 0 0 Z " fill="#B4B3DC" transform="translate(359,188)"/>
<path d="M0 0 C-0.80824219 0.39832031 -1.61648437 0.79664063 -2.44921875 1.20703125 C-3.51785156 1.73683594 -4.58648437 2.26664063 -5.6875 2.8125 C-6.74324219 3.33457031 -7.79898438 3.85664063 -8.88671875 4.39453125 C-11.66776696 5.8286728 -14.33904567 7.35603378 -17 9 C-17 8.01 -17 7.02 -17 6 C-16.01 6 -15.02 6 -14 6 C-14 5.34 -14 4.68 -14 4 C-4.67586207 -1.55862069 -4.67586207 -1.55862069 0 0 Z " fill="#F0CFA2" transform="translate(222,182)"/>
<path d="M0 0 C1.4540625 0.0309375 1.4540625 0.0309375 2.9375 0.0625 C-0.18871626 3.45667765 -2.62791027 5.6687718 -7.0625 7.0625 C-7.0625 5.4125 -7.0625 3.7625 -7.0625 2.0625 C-6.0725 1.7325 -5.0825 1.4025 -4.0625 1.0625 C-3.0625 0.0625 -3.0625 0.0625 0 0 Z " fill="#A4A5D9" transform="translate(328.0625,345.9375)"/>
<path d="M0 0 C0.70125 0.144375 1.4025 0.28875 2.125 0.4375 C5.07556141 1.01478375 8.03270151 1.51695141 11 2 C11 2.66 11 3.32 11 4 C11.66 4 12.32 4 13 4 C13.66 5.32 14.32 6.64 15 8 C11.45756548 6.63408831 8.07372071 5.09068516 4.6875 3.375 C3.80449219 2.92898437 2.92148437 2.48296875 2.01171875 2.0234375 C1.34785156 1.68570313 0.68398438 1.34796875 0 1 C0 0.67 0 0.34 0 0 Z " fill="#B7B8D8" transform="translate(276,180)"/>
<path d="M0 0 C1.72880982 -0.05449838 3.45812712 -0.09301688 5.1875 -0.125 C6.15042969 -0.14820313 7.11335938 -0.17140625 8.10546875 -0.1953125 C11.12812778 0.0086456 13.26769985 0.73125368 16 2 C16 2.66 16 3.32 16 4 C10.58201328 3.30834212 5.3177215 2.24200752 0 1 C0 0.67 0 0.34 0 0 Z " fill="#BDB8D7" transform="translate(260,176)"/>
<path d="M0 0 C0.66 0.33 1.32 0.66 2 1 C-2.21336533 5.69952287 -7.19402136 7.78006699 -13 10 C-9.23156953 5.87827917 -5.11095695 2.36931779 0 0 Z " fill="#EFD4A8" transform="translate(180,145)"/>
<path d="M0 0 C6.29785459 0.94592282 10.96066973 2.02158136 16 6 C14 7 14 7 10.99609375 6.07421875 C9.82175781 5.61660156 8.64742187 5.15898437 7.4375 4.6875 C5.67212891 4.01267578 5.67212891 4.01267578 3.87109375 3.32421875 C1 2 1 2 0 0 Z " fill="#BDBCDD" transform="translate(194,362)"/>
<path d="M0 0 C1.18429077 3.44884678 0.81292906 5.60798057 -0.25 9.0625 C-0.50265625 9.91972656 -0.7553125 10.77695313 -1.015625 11.66015625 C-2.02564266 14.0609522 -3.03994762 15.32074164 -5 17 C-4.35083537 10.99522721 -2.14204997 5.599219 0 0 Z " fill="#F0C077" transform="translate(135,200)"/>
<path d="M0 0 C0.33 0.66 0.66 1.32 1 2 C-1.31 4.97 -3.62 7.94 -6 11 C-6.33 10.34 -6.66 9.68 -7 9 C-6.328125 7.08984375 -6.328125 7.08984375 -5.25 4.9375 C-4.90453125 4.22464844 -4.5590625 3.51179688 -4.203125 2.77734375 C-3 1 -3 1 0 0 Z " fill="#AEAED7" transform="translate(352,321)"/>
<path d="M0 0 C1.65 0.33 3.3 0.66 5 1 C3.02 3.31 1.04 5.62 -1 8 C-2 4 -2 4 -1.0625 1.75 C-0.711875 1.1725 -0.36125 0.595 0 0 Z " fill="#868DD8" transform="translate(340,330)"/>
<path d="M0 0 C0.66 0 1.32 0 2 0 C4.3992233 4.64849515 4.19957409 8.91086074 4 14 C2.30566082 10.9530371 1.50532888 8.17178534 0.875 4.75 C0.70742188 3.85796875 0.53984375 2.9659375 0.3671875 2.046875 C0.18542969 1.03367188 0.18542969 1.03367188 0 0 Z " fill="#B0ACDA" transform="translate(320,224)"/>
<path d="M0 0 C0.66 0.33 1.32 0.66 2 1 C-1.49087093 5.0042343 -3.64951939 6.62671065 -9 7 C-6.25604436 4.05278838 -3.61662784 1.80831392 0 0 Z " fill="#EECB94" transform="translate(191,138)"/>
<path d="M0 0 C0.66 0.33 1.32 0.66 2 1 C0.8125 3.9375 0.8125 3.9375 -1 7 C-3.6875 7.875 -3.6875 7.875 -6 8 C-4.7260411 5.96166576 -3.38938077 3.96147874 -2 2 C-1.34 2 -0.68 2 0 2 C0 1.34 0 0.68 0 0 Z " fill="#A1A3D7" transform="translate(302,302)"/>
<path d="M0 0 C0.33 0.99 0.66 1.98 1 3 C-0.36328125 5.26171875 -0.36328125 5.26171875 -2.3125 7.6875 C-2.94800781 8.49574219 -3.58351563 9.30398438 -4.23828125 10.13671875 C-4.81964844 10.75160156 -5.40101563 11.36648438 -6 12 C-6.66 12 -7.32 12 -8 12 C-6.59023295 8.96147295 -4.91129772 6.4060405 -2.875 3.75 C-2.06675781 2.69039063 -2.06675781 2.69039063 -1.2421875 1.609375 C-0.83226562 1.07828125 -0.42234375 0.5471875 0 0 Z " fill="#878AD0" transform="translate(311,293)"/>
<path d="M0 0 C1.0326802 2.78823655 1.04509293 3.8677274 0.0625 6.75 C-0.288125 7.4925 -0.63875 8.235 -1 9 C-1.66 9 -2.32 9 -3 9 C-3.33 9.66 -3.66 10.32 -4 11 C-4 9.35 -4 7.7 -4 6 C-3.34 6 -2.68 6 -2 6 C-1.855625 5.195625 -1.71125 4.39125 -1.5625 3.5625 C-1 1 -1 1 0 0 Z " fill="#F0C887" transform="translate(183,213)"/>
<path d="M0 0 C1.2065625 0.0309375 1.2065625 0.0309375 2.4375 0.0625 C0.20924356 2.29075644 -1.22011628 2.75489369 -4.1875 3.6875 C-5.00476563 3.94789063 -5.82203125 4.20828125 -6.6640625 4.4765625 C-7.29054687 4.66992188 -7.91703125 4.86328125 -8.5625 5.0625 C-8.5625 4.4025 -8.5625 3.7425 -8.5625 3.0625 C-9.2225 3.0625 -9.8825 3.0625 -10.5625 3.0625 C-10.5625 2.4025 -10.5625 1.7425 -10.5625 1.0625 C-9.428125 1.083125 -8.29375 1.10375 -7.125 1.125 C-3.34891585 1.05875291 -3.4052247 0.08305426 0 0 Z " fill="#F5BF73" transform="translate(221.5625,178.9375)"/>
<path d="M0 0 C0 0.66 0 1.32 0 2 C-3.63 2.33 -7.26 2.66 -11 3 C-4.23255814 -1.51162791 -4.23255814 -1.51162791 0 0 Z " fill="#9E9ED9" transform="translate(287,317)"/>
<path d="M0 0 C-1.26239712 0.86658615 -2.53527501 1.71792059 -3.8125 2.5625 C-4.87404297 3.27599609 -4.87404297 3.27599609 -5.95703125 4.00390625 C-8 5 -8 5 -11 4 C-10.34 3.67 -9.68 3.34 -9 3 C-8.67 2.01 -8.34 1.02 -8 0 C-2.25 -1.125 -2.25 -1.125 0 0 Z " fill="#B5B5DB" transform="translate(317,357)"/>
<path d="M0 0 C1.32 0.33 2.64 0.66 4 1 C3.67 1.99 3.34 2.98 3 4 C2.01 4 1.02 4 0 4 C0 4.66 0 5.32 0 6 C-0.99 6 -1.98 6 -3 6 C-2 4 -1 2 0 0 Z " fill="#AD99B3" transform="translate(161,297)"/>
<path d="M0 0 C3.08089673 2.77280706 4.68775452 5.06326356 6 9 C3.5625 7.875 3.5625 7.875 1 6 C0.1875 2.8125 0.1875 2.8125 0 0 Z " fill="#A9A9DA" transform="translate(353,179)"/>
<path d="M0 0 C4.16138263 -0.08159574 7.9472484 0.01751476 12 1 C12 1.33 12 1.66 12 2 C6.06 2.495 6.06 2.495 0 3 C0 2.01 0 1.02 0 0 Z " fill="#E4C9A3" transform="translate(267,126)"/>
<path d="M0 0 C0.721875 0.845625 1.44375 1.69125 2.1875 2.5625 C1.8575 3.2225 1.5275 3.8825 1.1875 4.5625 C-5.5625 0.8125 -5.5625 0.8125 -7.8125 -1.4375 C-3.93054643 -2.87936847 -3.23937503 -2.80745836 0 0 Z " fill="#DBBFAB" transform="translate(191.8125,295.4375)"/>
<path d="M0 0 C0.99 0.33 1.98 0.66 3 1 C3 2.32 3 3.64 3 5 C3.66 5 4.32 5 5 5 C5 6.98 5 8.96 5 11 C0 4.63636364 0 4.63636364 0 0 Z " fill="#B4B5DB" transform="translate(315,213)"/>
<path d="M0 0 C3.3 0.33 6.6 0.66 10 1 C10.33 1.99 10.66 2.98 11 4 C7.1936543 3.32829194 3.64793184 2.27253436 0 1 C0 0.67 0 0.34 0 0 Z " fill="#9E9DD7" transform="translate(291,133)"/>
<path d="M0 0 C-1.75 3.875 -1.75 3.875 -4 5 C-5.32 4.01 -6.64 3.02 -8 2 C-5.09399739 0.74335022 -3.20395416 0 0 0 Z " fill="#868BD5" transform="translate(279,320)"/>
<path d="M0 0 C2.04119788 1.61594832 4.04072937 3.2856382 6 5 C6 5.66 6 6.32 6 7 C4.68 6.67 3.36 6.34 2 6 C2 5.34 2 4.68 2 4 C1.34 4 0.68 4 0 4 C0 2.68 0 1.36 0 0 Z " fill="#878BD6" transform="translate(337,161)"/>
<path d="M0 0 C0 3.10551666 -0.5393715 4.35261084 -2 7 C-2.66 7 -3.32 7 -4 7 C-4 5.35 -4 3.7 -4 2 C-2.68 1.34 -1.36 0.68 0 0 Z " fill="#ADACD8" transform="translate(361,307)"/>
<path d="M0 0 C1.65 0 3.3 0 5 0 C5.66 1.98 6.32 3.96 7 6 C4.50638429 4.79618552 2.31856917 3.54571278 0 2 C0 1.34 0 0.68 0 0 Z " fill="#9A90BD" transform="translate(255,168)"/>
<path d="M0 0 C0.33 0.99 0.66 1.98 1 3 C1.66 3 2.32 3 3 3 C2.67 4.32 2.34 5.64 2 7 C1.01 7 0.02 7 -1 7 C-2 4 -2 4 -1.0625 1.8125 C-0.5365625 0.9153125 -0.5365625 0.9153125 0 0 Z " fill="#F2BD71" transform="translate(250,137)"/>
<path d="M0 0 C0.33 0 0.66 0 1 0 C1.28875 0.9075 1.5775 1.815 1.875 2.75 C2.76531776 5.32202908 3.71494413 7.61346766 5 10 C2.525 9.01 2.525 9.01 0 8 C0 5.36 0 2.72 0 0 Z " fill="#F0C079" transform="translate(250,160)"/>
<path d="M0 0 C2.475 0.99 2.475 0.99 5 2 C5 2.66 5 3.32 5 4 C5.66 4 6.32 4 7 4 C6.67 4.66 6.34 5.32 6 6 C4.02 5.34 2.04 4.68 0 4 C0 2.66666667 0 1.33333333 0 0 Z " fill="#BBBBE5" transform="translate(322,147)"/>
</svg>
