<?xml version="1.0" encoding="UTF-8"?>
<svg version="1.1" xmlns="http://www.w3.org/2000/svg" width="500" height="500">
<path d="M0 0 C1.6594979 0.98671622 3.33551787 1.94549884 5.01269531 2.90185547 C10.14229365 5.8567931 10.14229365 5.8567931 11.78613281 7.06201172 C11.78613281 7.72201172 11.78613281 8.38201172 11.78613281 9.06201172 C12.44613281 9.06201172 13.10613281 9.06201172 13.78613281 9.06201172 C13.78613281 9.72201172 13.78613281 10.38201172 13.78613281 11.06201172 C14.34300781 11.30306641 14.89988281 11.54412109 15.47363281 11.79248047 C18.28270623 13.33462382 20.4131223 15.22216225 22.78613281 17.37451172 C23.63175781 18.13376953 24.47738281 18.89302734 25.34863281 19.67529297 C27.73678492 22.01369191 29.82701311 24.35461713 31.78613281 27.06201172 C31.78613281 27.72201172 31.78613281 28.38201172 31.78613281 29.06201172 C32.44613281 29.06201172 33.10613281 29.06201172 33.78613281 29.06201172 C35.44794566 31.2585212 36.97454003 33.44478215 38.47363281 35.74951172 C38.92061523 36.43360107 39.36759766 37.11769043 39.828125 37.82250977 C58.13802512 66.17788093 64.92288035 99.6821087 58.78613281 133.06201172 C57.20662251 139.85996677 55.0768781 146.47461983 52.78613281 153.06201172 C52.36332031 154.28146484 51.94050781 155.50091797 51.50488281 156.75732422 C50.62833176 159.20540609 49.73067628 161.63953553 48.78613281 164.06201172 C48.12613281 164.06201172 47.46613281 164.06201172 46.78613281 164.06201172 C46.68429687 164.60341797 46.58246094 165.14482422 46.47753906 165.70263672 C45.60855674 168.66797753 44.2314099 171.11726118 42.72363281 173.81201172 C42.17578125 174.79685547 41.62792969 175.78169922 41.06347656 176.79638672 C40.64195312 177.54404297 40.22042969 178.29169922 39.78613281 179.06201172 C39.12613281 179.06201172 38.46613281 179.06201172 37.78613281 179.06201172 C37.54121094 179.77744141 37.29628906 180.49287109 37.04394531 181.22998047 C32.0428879 192.49012525 20.71228311 202.0755988 10.78613281 209.06201172 C9.96757812 209.65111328 9.14902344 210.24021484 8.30566406 210.84716797 C-4.62642027 220.06201172 -4.62642027 220.06201172 -9.21386719 220.06201172 C-9.21386719 220.72201172 -9.21386719 221.38201172 -9.21386719 222.06201172 C-41.80481645 234.01018587 -73.75668178 238.75794027 -107.21386719 227.06201172 C-108.38820313 226.65724609 -109.56253906 226.25248047 -110.77246094 225.83544922 C-120.75478735 222.19054794 -129.63623886 217.26523341 -138.40136719 211.31201172 C-138.97886719 210.92303711 -139.55636719 210.5340625 -140.15136719 210.13330078 C-141.54440323 209.16309015 -142.88496998 208.1183688 -144.21386719 207.06201172 C-144.21386719 206.40201172 -144.21386719 205.74201172 -144.21386719 205.06201172 C-144.77074219 205.00013672 -145.32761719 204.93826172 -145.90136719 204.87451172 C-151.18609369 203.01771592 -155.230427 196.97453257 -159.02636719 192.87451172 C-159.77950195 192.0749707 -159.77950195 192.0749707 -160.54785156 191.25927734 C-164.21386719 187.29399514 -164.21386719 187.29399514 -164.21386719 185.06201172 C-164.87386719 185.06201172 -165.53386719 185.06201172 -166.21386719 185.06201172 C-167.65917969 182.92919922 -167.65917969 182.92919922 -169.33886719 179.93701172 C-169.95890625 178.83615234 -170.57894531 177.73529297 -171.21777344 176.60107422 C-171.70721436 175.72563965 -171.70721436 175.72563965 -172.20654297 174.83251953 C-173.18791058 173.10763395 -174.21407951 171.40848152 -175.24121094 169.71044922 C-191.45243534 142.63988256 -195.10974035 107.66611256 -188.25292969 76.88623047 C-184.30848634 62.36889951 -178.14112448 49.21300081 -169.21386719 37.06201172 C-168.1709446 35.08405508 -167.15404659 33.09081991 -166.21386719 31.06201172 C-165.55386719 31.06201172 -164.89386719 31.06201172 -164.21386719 31.06201172 C-163.98699219 30.50513672 -163.76011719 29.94826172 -163.52636719 29.37451172 C-161.82813917 26.38239569 -159.70622523 24.44600637 -157.21386719 22.06201172 C-155.87783207 20.73138565 -154.54468718 19.39785367 -153.21386719 18.06201172 C-152.53066406 17.38138672 -151.84746094 16.70076172 -151.14355469 15.99951172 C-149.97137857 14.82258995 -148.80747743 13.63724253 -147.65917969 12.43701172 C-146.54569479 11.27740615 -145.38455681 10.16383725 -144.21386719 9.06201172 C-143.55386719 9.06201172 -142.89386719 9.06201172 -142.21386719 9.06201172 C-142.21386719 8.40201172 -142.21386719 7.74201172 -142.21386719 7.06201172 C-140.38635268 5.86141157 -138.49898878 4.75128871 -136.58886719 3.68701172 C-133.42664015 1.91460299 -130.35688371 0.16129592 -127.37792969 -1.90673828 C-123.48254551 -4.40747874 -119.45197594 -6.22367706 -115.21386719 -8.06298828 C-114.43269531 -8.40974609 -113.65152344 -8.75650391 -112.84667969 -9.11376953 C-77.2014858 -24.7760517 -32.79884414 -19.58890925 0 0 Z M-117.21386719 54.06201172 C-117.21386719 54.72201172 -117.21386719 55.38201172 -117.21386719 56.06201172 C-117.87386719 56.06201172 -118.53386719 56.06201172 -119.21386719 56.06201172 C-120.91566704 58.1523641 -122.4834355 60.23326718 -124.02636719 62.43701172 C-124.47705566 63.07823975 -124.92774414 63.71946777 -125.39208984 64.38012695 C-131.64737482 73.42799029 -135.28280443 82.45846115 -138.21386719 93.06201172 C-138.38966309 93.68720703 -138.56545898 94.31240234 -138.74658203 94.95654297 C-143.13182782 114.71535156 -136.94412003 134.04368664 -126.51855469 150.58544922 C-124.03093825 154.44581275 -124.03093825 154.44581275 -121.21386719 158.06201172 C-120.55386719 158.06201172 -119.89386719 158.06201172 -119.21386719 158.06201172 C-119.21386719 158.72201172 -119.21386719 159.38201172 -119.21386719 160.06201172 C-118.55386719 160.06201172 -117.89386719 160.06201172 -117.21386719 160.06201172 C-117.21386719 160.72201172 -117.21386719 161.38201172 -117.21386719 162.06201172 C-97.90427929 178.36135967 -78.13752245 184.03530608 -53.21386719 182.06201172 C-38.74257855 179.95057226 -23.63977903 172.26726934 -13.21386719 162.06201172 C-13.21386719 161.40201172 -13.21386719 160.74201172 -13.21386719 160.06201172 C-12.55386719 160.06201172 -11.89386719 160.06201172 -11.21386719 160.06201172 C-8.25890624 156.61116078 -5.76164704 152.81906389 -3.21386719 149.06201172 C-2.58480469 148.13646484 -1.95574219 147.21091797 -1.30761719 146.25732422 C6.39573346 134.06035237 9.20752961 122.012723 9.28613281 107.68701172 C9.29249756 106.70120117 9.2988623 105.71539062 9.30541992 104.69970703 C9.04771613 89.85497286 3.63708032 76.18360726 -5.35058594 64.48779297 C-6.88151013 62.49470299 -8.25848305 60.5021298 -9.58886719 58.37451172 C-10.39324219 57.22982422 -10.39324219 57.22982422 -11.21386719 56.06201172 C-11.87386719 56.06201172 -12.53386719 56.06201172 -13.21386719 56.06201172 C-13.21386719 55.40201172 -13.21386719 54.74201172 -13.21386719 54.06201172 C-16.66482559 51.10695876 -20.45817683 48.61200074 -24.21386719 46.06201172 C-25.1278125 45.43294922 -26.04175781 44.80388672 -26.98339844 44.15576172 C-55.02399819 26.27252608 -93.09076532 31.69086697 -117.21386719 54.06201172 Z " fill="#818AE6" transform="translate(315.2138671875,141.93798828125)"/>
<path d="M0 0 C-2.54702616 1.27351308 -3.4282945 0.80191925 -6.125 0.0625 C-7.21167969 -0.22947266 -7.21167969 -0.22947266 -8.3203125 -0.52734375 C-8.87460937 -0.68332031 -9.42890625 -0.83929688 -10 -1 C-10.495 -2.98 -10.495 -2.98 -11 -5 C-11.845625 -4.938125 -12.69125 -4.87625 -13.5625 -4.8125 C-16.93296514 -4.99634355 -19.07382242 -5.79097438 -22.09375 -7.21484375 C-24.16102993 -8.06632585 -26.11981711 -8.50900035 -28.3125 -8.9375 C-31.66460795 -9.59666975 -34.50017097 -10.61173311 -37.60302734 -12.02832031 C-43.15073562 -14.28500222 -48.10094117 -14.60173207 -54.0390625 -14.609375 C-55.04593109 -14.62591125 -56.05279968 -14.64244751 -57.09017944 -14.65948486 C-60.26851721 -14.70760733 -63.44637783 -14.72925622 -66.625 -14.75 C-68.79559646 -14.77818956 -70.96617105 -14.80812112 -73.13671875 -14.83984375 C-78.42439354 -14.91335599 -83.71193612 -14.96520694 -89 -15 C-89 -15.33 -89 -15.66 -89 -16 C-57.79064381 -21.01601377 -26.91618267 -16.57027496 0 0 Z " fill="#979AD1" transform="translate(315,142)"/>
<path d="M0 0 C-8.29388812 8.29388812 -28.70446786 7.9975586 -39.875 8.25 C-52.30281649 7.99000384 -65.19111939 7.06268828 -77 3 C-73.37505408 1.80652886 -70.21303366 2.05715075 -66.4375 2.375 C-64.73400391 2.51035156 -64.73400391 2.51035156 -62.99609375 2.6484375 C-60 3 -60 3 -57 4 C-52.37832627 4.25502043 -47.75400535 4.27115231 -43.1262207 4.29516602 C-41.6069192 4.30654835 -40.08765313 4.32677454 -38.56860352 4.35668945 C-28.68240388 4.55104747 -20.06001885 3.68050205 -10.55737305 0.86401367 C-6.90497761 -0.02307901 -3.74307015 -0.15229408 0 0 Z " fill="#ACACD9" transform="translate(291,368)"/>
<path d="M0 0 C0.33 0 0.66 0 1 0 C0.99476318 1.0737085 0.98952637 2.14741699 0.98413086 3.25366211 C0.96589984 7.27367301 0.95450242 11.29368033 0.94506836 15.3137207 C0.94006925 17.04679989 0.93326776 18.77987493 0.92456055 20.51293945 C0.91229973 23.01775138 0.90672734 25.52250708 0.90234375 28.02734375 C0.89718246 28.79022202 0.89202118 29.55310028 0.88670349 30.33909607 C0.88600572 37.17620886 0.99760415 44.20656496 3.5625 50.625 C5.01163644 54.62771183 5.27030198 57.76526899 5 62 C5.66 62 6.32 62 7 62 C7.33 64.97 7.66 67.94 8 71 C8.66 71 9.32 71 10 71 C10.433125 71.94875 10.86625 72.8975 11.3125 73.875 C12.79302201 77.20041937 12.79302201 77.20041937 16 79 C15.67 81.31 15.34 83.62 15 86 C0.65392967 67.99291469 -1.2791105 45.34361548 -1.25 23.3125 C-1.24931519 22.56008026 -1.24863037 21.80766052 -1.2479248 21.03244019 C-1.22667137 13.94239019 -1.12687765 7.01136952 0 0 Z " fill="#A8A9D4" transform="translate(126,226)"/>
<path d="M0 0 C0.33 0.66 0.66 1.32 1 2 C0.67 2.66 0.34 3.32 0 4 C0.66 4 1.32 4 2 4 C1.38479725 7.99881788 -0.60268669 10.80358226 -3 14 C-3.66 14 -4.32 14 -5 14 C-5.04898438 14.61488281 -5.09796875 15.22976562 -5.1484375 15.86328125 C-5.22320312 16.67152344 -5.29796875 17.47976562 -5.375 18.3125 C-5.44460937 19.11300781 -5.51421875 19.91351563 -5.5859375 20.73828125 C-6 23 -6 23 -8 26 C-8.39013716 27.9896995 -8.73202649 29.99019869 -9 32 C-9.66 32 -10.32 32 -11 32 C-11 35.63 -11 39.26 -11 43 C-11.33 43 -11.66 43 -12 43 C-14.4449721 27.59667576 -7.77748514 13.09610901 0 0 Z " fill="#B4B3DF" transform="translate(140,188)"/>
<path d="M0 0 C4.93267432 0.38687642 9.0280063 1.32549445 13.6875 3 C22.86495196 5.99406234 32.42236899 5.84243296 42 6 C42 6.33 42 6.66 42 7 C37.08497242 8.29235715 32.22709898 8.11135517 27.1875 8.0625 C25.86202148 8.05573242 25.86202148 8.05573242 24.50976562 8.04882812 C22.33981441 8.03709866 20.16989828 8.01916495 18 8 C18 7.34 18 6.68 18 6 C17.39671875 6.03480469 16.7934375 6.06960938 16.171875 6.10546875 C8.61982284 6.36126407 8.61982284 6.36126407 5 3 C3.35202764 2.28837557 1.68834592 1.60968047 0 1 C0 0.67 0 0.34 0 0 Z " fill="#9395D5" transform="translate(219,319)"/>
<path d="M0 0 C1.9451 2.91765 2.45276317 4.62537285 3 8 C3.66 8 4.32 8 5 8 C5.33 10.97 5.66 13.94 6 17 C6.66 17 7.32 17 8 17 C8.433125 17.94875 8.86625 18.8975 9.3125 19.875 C10.79302201 23.20041937 10.79302201 23.20041937 14 25 C13.67 27.31 13.34 29.62 13 32 C6.41294806 23.73197932 -0.5022843 10.7991125 0 0 Z " fill="#AEAEDB" transform="translate(128,280)"/>
<path d="M0 0 C0.33 0 0.66 0 1 0 C1.26247689 7.87430684 1.26247689 7.87430684 -1 12 C-1.165 13.19625 -1.33 14.3925 -1.5 15.625 C-2 19 -2 19 -4 21 C-4.309375 22.134375 -4.61875 23.26875 -4.9375 24.4375 C-6.35915493 29.20422535 -6.35915493 29.20422535 -9 31 C-9.99 31 -10.98 31 -12 31 C-11.02059621 27.43853168 -9.8208171 24.65938515 -7.6875 21.6875 C-3.44711467 15.26382103 -1.96377475 7.3537097 0 0 Z " fill="#A8ABDB" transform="translate(323,262)"/>
<path d="M0 0 C13.1023225 1.57360384 23.93523108 7.22324943 35 14 C32.45297384 15.27351308 31.5717055 14.80191925 28.875 14.0625 C28.15054687 13.86785156 27.42609375 13.67320312 26.6796875 13.47265625 C26.12539063 13.31667969 25.57109375 13.16070312 25 13 C24.67 11.68 24.34 10.36 24 9 C23.154375 9.061875 22.30875 9.12375 21.4375 9.1875 C17.20806171 8.95680337 14.76197084 7.91786749 11 6 C10.67 5.34 10.34 4.68 10 4 C7.65613191 3.08968728 7.65613191 3.08968728 4.9375 2.375 C4.01839844 2.11460937 3.09929687 1.85421875 2.15234375 1.5859375 C1.08693359 1.29589844 1.08693359 1.29589844 0 1 C0 0.67 0 0.34 0 0 Z " fill="#B0B0DD" transform="translate(280,128)"/>
<path d="M0 0 C2.77117304 0.14080555 5.54182641 0.28743118 8.3125 0.4375 C9.49102539 0.49647461 9.49102539 0.49647461 10.69335938 0.55664062 C11.8293457 0.61948242 11.8293457 0.61948242 12.98828125 0.68359375 C14.03302612 0.73858032 14.03302612 0.73858032 15.09887695 0.79467773 C17 1 17 1 20 2 C22.2825699 2.15145099 24.56887706 2.24886979 26.85546875 2.31640625 C27.51710526 2.33718735 28.17874176 2.35796844 28.86042786 2.37937927 C30.96934852 2.44464727 33.07839135 2.50365344 35.1875 2.5625 C36.61915315 2.60570689 38.05079404 2.64932188 39.48242188 2.69335938 C42.98815154 2.80030506 46.49401786 2.90163641 50 3 C50 3.33 50 3.66 50 4 C44.64724697 4.07482879 39.29480649 4.12891907 33.94165039 4.16479492 C32.1251901 4.17976973 30.30876526 4.20015684 28.49243164 4.22631836 C9.13453923 4.49791465 9.13453923 4.49791465 0 1 C0 0.67 0 0.34 0 0 Z " fill="#9CA0DD" transform="translate(214,370)"/>
<path d="M0 0 C-1.26538369 0.84158536 -2.53753779 1.67299748 -3.8125 2.5 C-4.87404297 3.19609375 -4.87404297 3.19609375 -5.95703125 3.90625 C-8 5 -8 5 -11 5 C-11 5.66 -11 6.32 -11 7 C-12.76641683 7.6987693 -14.53832664 8.38366583 -16.3125 9.0625 C-17.29863281 9.44535156 -18.28476562 9.82820313 -19.30078125 10.22265625 C-22 11 -22 11 -25 10 C-24.34 10 -23.68 10 -23 10 C-23 9.34 -23 8.68 -23 8 C-21.25197854 7.18325204 -19.50149811 6.37176549 -17.75 5.5625 C-16.77546875 5.11003906 -15.8009375 4.65757812 -14.796875 4.19140625 C-12.50748305 3.21617644 -10.42621254 2.5025726 -8 2 C-8 1.34 -8 0.68 -8 0 C-2.25 -1.125 -2.25 -1.125 0 0 Z " fill="#AAABDA" transform="translate(317,357)"/>
<path d="M0 0 C0 0.66 0 1.32 0 2 C-0.66 2 -1.32 2 -2 2 C-2 2.99 -2 3.98 -2 5 C-3.32 5 -4.64 5 -6 5 C-6 5.66 -6 6.32 -6 7 C-7.0828125 7.4021875 -7.0828125 7.4021875 -8.1875 7.8125 C-11.05113702 8.92715762 -11.05113702 8.92715762 -13.625 10.6875 C-14.40875 11.120625 -15.1925 11.55375 -16 12 C-16.99 11.67 -17.98 11.34 -19 11 C-21.06618749 11.09268505 -21.06618749 11.09268505 -23.1875 11.4375 C-24.445625 11.623125 -25.70375 11.80875 -27 12 C-23.68385654 10.23729268 -20.27653834 8.97025743 -16.75 7.6875 C-12.0074394 5.89503615 -4.71630113 0 0 0 Z " fill="#A2A6DB" transform="translate(293,311)"/>
<path d="M0 0 C0.66 0.33 1.32 0.66 2 1 C1.60167969 1.50789062 1.20335937 2.01578125 0.79296875 2.5390625 C-1.72648485 5.81251316 -3.82931353 8.57328384 -5.375 12.4375 C-7 15 -7 15 -8.95703125 15.58984375 C-11.1875 15.875 -11.1875 15.875 -15 16 C-14.62488281 15.56429687 -14.24976563 15.12859375 -13.86328125 14.6796875 C-13.35152344 14.08414063 -12.83976563 13.48859375 -12.3125 12.875 C-11.76464844 12.23820313 -11.21679688 11.60140625 -10.65234375 10.9453125 C-9.19863938 9.23385913 -7.78456674 7.49768711 -6.375 5.75 C-4.35908287 3.41578016 -2.54941158 1.69960772 0 0 Z " fill="#9D9FDB" transform="translate(171,151)"/>
<path d="M0 0 C-2.24732102 0.84124316 -4.49738785 1.67314832 -6.75 2.5 C-7.38421875 2.73847656 -8.0184375 2.97695312 -8.671875 3.22265625 C-12.03286607 4.44801758 -14.36871587 5 -18 5 C-18 5.66 -18 6.32 -18 7 C-21.3 7.33 -24.6 7.66 -28 8 C-26.34258936 4.68517872 -22.69354386 4.15311633 -19.375 2.9375 C-18.67503906 2.66873047 -17.97507813 2.39996094 -17.25390625 2.12304688 C-11.69867956 0.056585 -5.84283726 -2.10342141 0 0 Z " fill="#ACADD7" transform="translate(226,128)"/>
<path d="M0 0 C4.50744942 2.64567683 6.11995232 4.23721254 8 9 C9.2684375 9.495 9.2684375 9.495 10.5625 10 C11.7690625 10.495 11.7690625 10.495 13 11 C13.36871088 12.65919896 13.69595322 14.32774271 14 16 C15.5185482 18.17300669 17.21282236 20.02952209 19 22 C14.7936195 20.39756933 12.18479822 17.26602216 9.25 14 C8.74339844 13.4534375 8.23679688 12.906875 7.71484375 12.34375 C4 8.25842318 4 8.25842318 4 6 C3.34 6 2.68 6 2 6 C0 3 0 3 0 0 Z " fill="#C4C3E7" transform="translate(147,321)"/>
<path d="M0 0 C11.62128035 0.03736746 21.20863951 2.99912145 32 7 C32 7.33 32 7.66 32 8 C26.05868623 8.31270072 22.44831067 7.67275618 17 5 C13.25064104 3.32798857 9.74194799 2.49876123 5.6875 1.875 C4.61886719 1.70742187 3.55023438 1.53984375 2.44921875 1.3671875 C1.64097656 1.24601562 0.83273437 1.12484375 0 1 C0 0.67 0 0.34 0 0 Z " fill="#9E9FD7" transform="translate(260,125)"/>
<path d="M0 0 C0.33 0.66 0.66 1.32 1 2 C-3.35452911 8.12355656 -7.72135278 12.84141548 -14 17 C-14 15.02 -14 13.04 -14 11 C-11.35261084 9.5393715 -10.10551666 9 -7 9 C-6.74605469 8.43410156 -6.49210937 7.86820312 -6.23046875 7.28515625 C-5.88628906 6.55167969 -5.54210937 5.81820313 -5.1875 5.0625 C-4.68283203 3.96615234 -4.68283203 3.96615234 -4.16796875 2.84765625 C-3 1 -3 1 0 0 Z " fill="#878CD8" transform="translate(352,321)"/>
<path d="M0 0 C0.33 0 0.66 0 1 0 C0.25 7.625 0.25 7.625 -2 11 C-2.39013716 12.9896995 -2.73202649 14.99019869 -3 17 C-3.66 17 -4.32 17 -5 17 C-5 20.63 -5 24.26 -5 28 C-5.33 28 -5.66 28 -6 28 C-7.7465642 16.99664554 -5.29969166 9.68913093 0 0 Z " fill="#9DA0D7" transform="translate(134,203)"/>
<path d="M0 0 C4.31236921 -0.08789715 8.6245045 -0.1406923 12.9375 -0.1875 C14.14986328 -0.21263672 15.36222656 -0.23777344 16.61132812 -0.26367188 C23.77509698 -0.3219139 29.35853783 0.27033756 36 3 C36 3.66 36 4.32 36 5 C32.34109739 4.54263717 28.9976495 3.99934021 25.4375 3 C20.33096709 1.6984973 15.24716473 1.54869925 10 1.375 C9.03449219 1.33632812 8.06898438 1.29765625 7.07421875 1.2578125 C4.7163256 1.16443059 2.35842244 1.07865671 0 1 C0 0.67 0 0.34 0 0 Z " fill="#B8B9DF" transform="translate(240,175)"/>
<path d="M0 0 C0.99 0 1.98 0 3 0 C3 0.66 3 1.32 3 2 C2.34 2 1.68 2 1 2 C0.74089844 2.55816406 0.48179687 3.11632812 0.21484375 3.69140625 C-1.14597196 6.27739367 -2.73580453 8.56244546 -4.4375 10.9375 C-6.78328411 14.21551797 -8.96430179 17.52001437 -11 21 C-12 19 -12 19 -11.0625 15.875 C-10.711875 14.92625 -10.36125 13.9775 -10 13 C-9.34 13 -8.68 13 -8 13 C-7.7834375 11.824375 -7.7834375 11.824375 -7.5625 10.625 C-7 8 -7 8 -6 6 C-5.360625 5.71125 -4.72125 5.4225 -4.0625 5.125 C-1.57998766 3.77090236 -1.03128603 2.57821507 0 0 Z " fill="#AFAFDB" transform="translate(195,196)"/>
<path d="M0 0 C2.78211944 0.37596209 4.5879284 0.67318459 6.8125 2.4375 C8 4 8 4 8 6 C8.66 6 9.32 6 10 6 C10 6.66 10 7.32 10 8 C10.66 8.33 11.32 8.66 12 9 C12.68486725 10.32407669 13.34870203 11.65909241 14 13 C14.97581759 14.35113205 15.97029741 15.68946944 17 17 C16.67 17.66 16.34 18.32 16 19 C14.66081194 17.37982158 13.3288031 15.75370657 12 14.125 C11.2575 13.22007812 10.515 12.31515625 9.75 11.3828125 C8 9 8 9 8 7 C7.34 7 6.68 7 6 7 C6 6.34 6 5.68 6 5 C5.38125 4.731875 4.7625 4.46375 4.125 4.1875 C2 3 2 3 0 0 Z " fill="#B0B1DB" transform="translate(296,191)"/>
<path d="M0 0 C2.36262446 2.99735938 4.24395515 6.0841219 6.0625 9.4375 C6.56910156 10.36433594 7.07570312 11.29117187 7.59765625 12.24609375 C8.89315059 14.79017039 9.98813782 17.33236334 11 20 C7.40311838 18.80103946 6.9353732 17.80949622 4.9375 14.6875 C4.43089844 13.90761719 3.92429688 13.12773437 3.40234375 12.32421875 C0.72155482 7.88112847 -0.24029327 5.28645192 0 0 Z " fill="#BABADD" transform="translate(180,276)"/>
<path d="M0 0 C0.66 0.33 1.32 0.66 2 1 C0.81887248 6.47613669 -0.52664097 9.3094788 -5 13 C-5.66 13 -6.32 13 -7 13 C-7 13.66 -7 14.32 -7 15 C-7.66 15 -8.32 15 -9 15 C-7.94124926 11.59687262 -6.99097846 8.98646769 -5 6 C-4.34 6 -3.68 6 -3 6 C-2.690625 5.38125 -2.38125 4.7625 -2.0625 4.125 C-1.375 2.75 -0.6875 1.375 0 0 Z " fill="#ABAADA" transform="translate(154,167)"/>
<path d="M0 0 C0.99 0 1.98 0 3 0 C2.00956295 4.83628305 1.04301154 9.47618873 -1 14 C-1.66 14 -2.32 14 -3 14 C-3.33 15.32 -3.66 16.64 -4 18 C-5 16 -5 16 -4.51171875 14.08203125 C-4.23972656 13.33308594 -3.96773438 12.58414062 -3.6875 11.8125 C-2.30840569 7.9029574 -1.10501136 3.99504108 0 0 Z " fill="#AAAADB" transform="translate(365,292)"/>
<path d="M0 0 C1.20624074 3.61872223 0.70235768 4.25270198 -0.8125 7.625 C-2.83582314 12.38576032 -4.01814919 16.92710413 -5 22 C-5.33 22 -5.66 22 -6 22 C-6 18.7 -6 15.4 -6 12 C-5.34 12 -4.68 12 -4 12 C-4.0825 11.13375 -4.165 10.2675 -4.25 9.375 C-3.94371259 5.24011993 -2.47891278 3.25357303 0 0 Z " fill="#B7B9D9" transform="translate(182,217)"/>
<path d="M0 0 C2.475 0.495 2.475 0.495 5 1 C5 1.66 5 2.32 5 3 C6.03125 3.061875 7.0625 3.12375 8.125 3.1875 C12.88462827 4.18548657 14.53592963 5.70490867 18 9 C17.01 9.495 17.01 9.495 16 10 C13.40233129 8.80583901 10.93821561 7.55975898 8.4375 6.1875 C7.39045898 5.63352539 7.39045898 5.63352539 6.32226562 5.06835938 C1.13221034 2.26442068 1.13221034 2.26442068 0 0 Z " fill="#BCBCDF" transform="translate(183,356)"/>
<path d="M0 0 C1.485 0.99 1.485 0.99 3 2 C3.34057617 4.79736328 3.34057617 4.79736328 3.29296875 8.3203125 C3.28330078 9.57714844 3.27363281 10.83398438 3.26367188 12.12890625 C3.23853516 13.44761719 3.21339844 14.76632813 3.1875 16.125 C3.17245483 17.46482903 3.15876613 18.80467404 3.14648438 20.14453125 C3.11102872 23.43008842 3.06160849 26.71484582 3 30 C2.67 30 2.34 30 2 30 C1.97494385 29.37544922 1.9498877 28.75089844 1.92407227 28.10742188 C1.80699619 25.23812877 1.68478249 22.36907575 1.5625 19.5 C1.52318359 18.51773438 1.48386719 17.53546875 1.44335938 16.5234375 C1.20239383 10.9626941 0.78078831 5.51144691 0 0 Z " fill="#B3B3E0" transform="translate(322,230)"/>
<path d="M0 0 C4.30764815 1.56641751 8.06171464 3.68336156 12 6 C12 6.66 12 7.32 12 8 C12.66 8 13.32 8 14 8 C13.67 8.66 13.34 9.32 13 10 C12.01 9.67 11.02 9.34 10 9 C9.67 8.34 9.34 7.68 9 7 C6.88672575 6.09274566 6.88672575 6.09274566 4.4375 5.375 C3.19806641 4.98441406 3.19806641 4.98441406 1.93359375 4.5859375 C1.29550781 4.39257812 0.65742188 4.19921875 0 4 C0 2.68 0 1.36 0 0 Z " fill="#A8AADC" transform="translate(315,143)"/>
<path d="M0 0 C2.64 0 5.28 0 8 0 C4.83525695 3.25516428 1.67247209 6.32008793 -2 9 C-2.66 9 -3.32 9 -4 9 C-4 8.01 -4 7.02 -4 6 C-3.01 5.67 -2.02 5.34 -1 5 C-0.67 3.35 -0.34 1.7 0 0 Z " fill="#A4A6DB" transform="translate(202,187)"/>
<path d="M0 0 C-1.9668026 1.9668026 -3.5444659 2.9371637 -6 4.1875 C-6.70125 4.55230469 -7.4025 4.91710937 -8.125 5.29296875 C-8.74375 5.52628906 -9.3625 5.75960937 -10 6 C-10.66 5.67 -11.32 5.34 -12 5 C-12 4.01 -12 3.02 -12 2 C-7.92816411 -1.45489106 -5.05691853 -1.09070792 0 0 Z " fill="#A7A8E1" transform="translate(222,181)"/>
<path d="M0 0 C-1.24196122 1.15454162 -2.49392845 2.29832562 -3.75 3.4375 C-4.44609375 4.07558594 -5.1421875 4.71367187 -5.859375 5.37109375 C-7.98792725 6.99081325 -9.39023405 7.58267256 -12 8 C-12.33 7.01 -12.66 6.02 -13 5 C-11.35 4.67 -9.7 4.34 -8 4 C-8 2.68 -8 1.36 -8 0 C-4.71303767 -0.79953138 -3.28976808 -1.09658936 0 0 Z " fill="#ACAED9" transform="translate(329,348)"/>
<path d="M0 0 C0.99 0 1.98 0 3 0 C3.33 2.97 3.66 5.94 4 9 C4.66 9 5.32 9 6 9 C6 10.98 6 12.96 6 15 C3.045111 11.4541332 0.54065015 7.36218967 -1 3 C-0.67 2.01 -0.34 1.02 0 0 Z " fill="#A7A7DB" transform="translate(314,209)"/>
<path d="M0 0 C2.9375 0.8125 2.9375 0.8125 6 2 C6.33 2.99 6.66 3.98 7 5 C7.9590625 5.2165625 7.9590625 5.2165625 8.9375 5.4375 C11 6 11 6 12.25 8.0625 C12.4975 8.701875 12.745 9.34125 13 10 C10.0280615 8.87548273 7.66559313 7.77706209 5 6 C5 5.34 5 4.68 5 4 C4.360625 3.896875 3.72125 3.79375 3.0625 3.6875 C2.381875 3.460625 1.70125 3.23375 1 3 C0.67 2.01 0.34 1.02 0 0 Z " fill="#AEAFD9" transform="translate(166,343)"/>
<path d="M0 0 C0.33 0 0.66 0 1 0 C0.42351925 7.35012956 -1.71046164 14.01424576 -4 21 C-5.2426948 17.2719156 -4.60373206 15.42019819 -3.6875 11.625 C-3.42324219 10.50351562 -3.15898437 9.38203125 -2.88671875 8.2265625 C-2.10166604 5.36993897 -1.16615075 2.71932097 0 0 Z " fill="#B2B1D7" transform="translate(373,270)"/>
<path d="M0 0 C0.89203125 0.00902344 1.7840625 0.01804688 2.703125 0.02734375 C3.37859375 0.03894531 4.0540625 0.05054688 4.75 0.0625 C1.79925888 1.63029517 -1.12119234 2.76324575 -4.3125 3.75 C-5.16972656 4.02199219 -6.02695313 4.29398438 -6.91015625 4.57421875 C-9.25 5.0625 -9.25 5.0625 -12.25 4.0625 C-11.59 4.0625 -10.93 4.0625 -10.25 4.0625 C-9.92 3.0725 -9.59 2.0825 -9.25 1.0625 C-6.21826719 -0.13243974 -3.22540573 -0.04243955 0 0 Z " fill="#B1B2D6" transform="translate(234.25,175.9375)"/>
<path d="M0 0 C0.66 0.33 1.32 0.66 2 1 C0.68 3.64 -0.64 6.28 -2 9 C-3.65 9 -5.3 9 -7 9 C-6.21654285 7.82780457 -5.42297164 6.66236332 -4.625 5.5 C-4.18414062 4.8503125 -3.74328125 4.200625 -3.2890625 3.53125 C-2.65097656 2.77328125 -2.65097656 2.77328125 -2 2 C-1.34 2 -0.68 2 0 2 C0 1.34 0 0.68 0 0 Z " fill="#9A9DD7" transform="translate(302,302)"/>
<path d="M0 0 C2.5497815 4.88529565 4 9.45157389 4 15 C3.01 15 2.02 15 1 15 C-0.03590199 9.94997778 -0.10251672 5.12583611 0 0 Z " fill="#B4B3DA" transform="translate(176,261)"/>
<path d="M0 0 C0.99 0.33 1.98 0.66 3 1 C1.78065514 5.03321763 0.44045073 8.54269479 -2 12 C-2.66 12 -3.32 12 -4 12 C-4 10.02 -4 8.04 -4 6 C-3.01 6 -2.02 6 -1 6 C-0.67 4.02 -0.34 2.04 0 0 Z " fill="#AEADDA" transform="translate(357,309)"/>
<path d="M0 0 C-1.65 0.33 -3.3 0.66 -5 1 C-5 1.99 -5 2.98 -5 4 C-8.3 4.33 -11.6 4.66 -15 5 C-13.61147985 2.22295969 -12.03211518 1.96617263 -9.1875 0.8125 C-7.87845703 0.26529297 -7.87845703 0.26529297 -6.54296875 -0.29296875 C-3.85198664 -1.04115271 -2.584628 -0.9458895 0 0 Z " fill="#BBBADD" transform="translate(213,131)"/>
<path d="M0 0 C0.33 0.66 0.66 1.32 1 2 C-1.31 4.97 -3.62 7.94 -6 11 C-6.33 10.34 -6.66 9.68 -7 9 C-6.328125 7.08984375 -6.328125 7.08984375 -5.25 4.9375 C-4.90453125 4.22464844 -4.5590625 3.51179688 -4.203125 2.77734375 C-3 1 -3 1 0 0 Z " fill="#ACADD7" transform="translate(352,321)"/>
<path d="M0 0 C1.36207958 2.72415916 0.86166193 4.12779357 0 7 C-3 9 -3 9 -6 9 C-4.47291037 5.56404834 -2.40072955 2.88087546 0 0 Z " fill="#AAACDA" transform="translate(310,293)"/>
<path d="M0 0 C1.98 0 3.96 0 6 0 C6 0.66 6 1.32 6 2 C6.99 2 7.98 2 9 2 C9.33 3.32 9.66 4.64 10 6 C5.56909529 4.79157144 3.01887244 3.48331435 0 0 Z " fill="#B0B2D9" transform="translate(283,183)"/>
<path d="M0 0 C2.12038635 2.61514317 4.13091744 5.19637616 6 8 C5.67 8.99 5.34 9.98 5 11 C5 10.34 5 9.68 5 9 C3.68 8.67 2.36 8.34 1 8 C0.67 5.36 0.34 2.72 0 0 Z " fill="#ACAED9" transform="translate(356,183)"/>
<path d="M0 0 C0.99 0.495 0.99 0.495 2 1 C3.33350067 5.44500224 4.29175731 9.3318831 4 14 C0.8105004 9.2157506 -0.26863974 5.77575443 0 0 Z " fill="#9796D2" transform="translate(127,272)"/>
<path d="M0 0 C1.72357119 2.58535679 2.44735018 4.03811614 3.1875 6.9375 C3.36667969 7.60652344 3.54585938 8.27554688 3.73046875 8.96484375 C4.03268678 11.24680888 3.68756692 12.82026659 3 15 C-0.16727335 9.8531808 -0.35050464 5.841744 0 0 Z " fill="#B1B2E0" transform="translate(370,214)"/>
<path d="M0 0 C0.66 0.33 1.32 0.66 2 1 C1.4375 2.9375 1.4375 2.9375 0 5 C-3.625 5.75 -3.625 5.75 -7 6 C-7 5.34 -7 4.68 -7 4 C-1.7265625 0.77734375 -1.7265625 0.77734375 0 0 Z " fill="#AFAFD8" transform="translate(180,145)"/>
<path d="M0 0 C1.485 0.99 1.485 0.99 3 2 C3 2.66 3 3.32 3 4 C3.66 4 4.32 4 5 4 C5 4.66 5 5.32 5 6 C5.66 6 6.32 6 7 6 C7 6.66 7 7.32 7 8 C3.76912579 7.44295272 1.97638863 6.66812465 0 4 C0 2.68 0 1.36 0 0 Z " fill="#A2A4D8" transform="translate(191,296)"/>
<path d="M0 0 C2.26562673 2.26562673 2.94462749 3.84160705 3.09765625 7.04296875 C3.06510417 9.02864583 3.03255208 11.01432292 3 13 C-0.01111938 8.48332093 -0.10067926 5.3360009 0 0 Z " fill="#8C90D2" transform="translate(371,224)"/>
<path d="M0 0 C0.33 0.66 0.66 1.32 1 2 C0.67 2.66 0.34 3.32 0 4 C0.66 4 1.32 4 2 4 C1.6875 5.9375 1.6875 5.9375 1 8 C0.01 8.33 -0.98 8.66 -2 9 C-2.25 3.375 -2.25 3.375 0 0 Z " fill="#9D9FDF" transform="translate(140,188)"/>
<path d="M0 0 C0.66 0 1.32 0 2 0 C3.38938077 1.96147874 4.7260411 3.96166576 6 6 C5.67 6.66 5.34 7.32 5 8 C3.02 7.01 1.04 6.02 -1 5 C-0.67 3.35 -0.34 1.7 0 0 Z " fill="#A6A9DA" transform="translate(347,171)"/>
<path d="M0 0 C0 0.66 0 1.32 0 2 C-0.66 2 -1.32 2 -2 2 C-2 2.99 -2 3.98 -2 5 C-3.98 5 -5.96 5 -8 5 C-3.16129032 0 -3.16129032 0 0 0 Z " fill="#B6B8DF" transform="translate(293,311)"/>
<path d="M0 0 C2.27795022 2.27795022 3.05219877 3.93787293 4 7 C3.625 9.3125 3.625 9.3125 3 11 C3 10.34 3 9.68 3 9 C2.34 9 1.68 9 1 9 C0.67 6.03 0.34 3.06 0 0 Z " fill="#AFB0DC" transform="translate(366,203)"/>
<path d="M0 0 C5.78461538 3.44615385 5.78461538 3.44615385 6.875 6.25 C6.936875 7.11625 6.936875 7.11625 7 8 C3.34683329 6.75023244 2.21934164 6.32901247 0 3 C0 2.01 0 1.02 0 0 Z " fill="#B1B1E0" transform="translate(147,321)"/>
<path d="M0 0 C1.22589844 0.29197266 1.22589844 0.29197266 2.4765625 0.58984375 C3.41628906 0.82380859 3.41628906 0.82380859 4.375 1.0625 C4.375 1.3925 4.375 1.7225 4.375 2.0625 C3.116875 2.10375 1.85875 2.145 0.5625 2.1875 C-0.14519531 2.21070313 -0.85289062 2.23390625 -1.58203125 2.2578125 C-3.625 2.0625 -3.625 2.0625 -6.625 0.0625 C-3.99249612 -1.25375194 -2.82320944 -0.68563658 0 0 Z " fill="#8E92D3" transform="translate(232.625,371.9375)"/>
<path d="M0 0 C2.52259061 1.97420135 2.9929808 2.96745642 3.6875 6.1875 C3.790625 7.115625 3.89375 8.04375 4 9 C3.01 8.67 2.02 8.34 1 8 C0.67 5.36 0.34 2.72 0 0 Z " fill="#B5B6DA" transform="translate(362,194)"/>
<path d="M0 0 C7.50769231 0.61538462 7.50769231 0.61538462 10 2.5625 C10.33 3.036875 10.66 3.51125 11 4 C7.0507432 3.44894091 3.65079826 2.61064629 0 1 C0 0.67 0 0.34 0 0 Z " fill="#B5B1DE" transform="translate(203,366)"/>
<path d="M0 0 C3.14958831 3.42346555 3.56179109 6.44262737 4 11 C1.38726012 9.69363006 1.02763876 8.71590242 0 6 C-0.125 2.75 -0.125 2.75 0 0 Z " fill="#A9A8D6" transform="translate(180,276)"/>
<path d="M0 0 C-5.41538462 4.06153846 -5.41538462 4.06153846 -8.375 3.75 C-8.91125 3.5025 -9.4475 3.255 -10 3 C-3.375 -1.125 -3.375 -1.125 0 0 Z " fill="#BEBDDD" transform="translate(198,137)"/>
</svg>
