<?xml version="1.0" encoding="UTF-8"?>
<svg version="1.1" xmlns="http://www.w3.org/2000/svg" width="500" height="500">
<path d="M0 0 C1.16627426 0.00323273 1.16627426 0.00323273 2.35610962 0.00653076 C26.35338839 0.11345866 45.49343738 4.91266593 66.15136719 17.25048828 C67.81086508 18.2372045 69.48688506 19.19598712 71.1640625 20.15234375 C76.29366084 23.10728139 76.29366084 23.10728139 77.9375 24.3125 C77.9375 24.9725 77.9375 25.6325 77.9375 26.3125 C78.5975 26.3125 79.2575 26.3125 79.9375 26.3125 C79.9375 26.9725 79.9375 27.6325 79.9375 28.3125 C80.494375 28.55355469 81.05125 28.79460937 81.625 29.04296875 C84.43407342 30.5851121 86.56448949 32.47265053 88.9375 34.625 C89.783125 35.38425781 90.62875 36.14351562 91.5 36.92578125 C93.88815211 39.26418019 95.9783803 41.60510541 97.9375 44.3125 C97.9375 44.9725 97.9375 45.6325 97.9375 46.3125 C98.5975 46.3125 99.2575 46.3125 99.9375 46.3125 C101.59931285 48.50900948 103.12590722 50.69527043 104.625 53 C105.07198242 53.68408936 105.51896484 54.36817871 105.97949219 55.07299805 C124.29344929 83.434652 131.06498417 116.9267682 124.9375 150.3125 C123.36575227 157.11766305 121.23371156 163.72219827 118.9375 170.3125 C118.61910156 171.27285156 118.30070313 172.23320312 117.97265625 173.22265625 C115.01780798 181.37912683 110.27910675 188.83528837 105.9375 196.3125 C105.2775 196.3125 104.6175 196.3125 103.9375 196.3125 C103.69257813 197.02792969 103.44765625 197.74335938 103.1953125 198.48046875 C98.1637958 209.80919424 85.29497987 222.4819884 73.9375 227.6875 C73.2775 227.89375 72.6175 228.1 71.9375 228.3125 C71.9375 228.9725 71.9375 229.6325 71.9375 230.3125 C69.59375 231.8984375 69.59375 231.8984375 66.4375 233.6875 C64.90609375 234.56535156 64.90609375 234.56535156 63.34375 235.4609375 C34.4622376 251.16029172 -1.15206159 256.36936977 -33 247 C-35.70531982 246.15239575 -38.38643383 245.24799647 -41.0625 244.3125 C-42.23683594 243.90773438 -43.41117187 243.50296875 -44.62109375 243.0859375 C-51.81617231 240.45875923 -58.46023295 237.18498356 -65.0625 233.3125 C-65.990625 232.79945313 -66.91875 232.28640625 -67.875 231.7578125 C-68.9578125 231.04238281 -68.9578125 231.04238281 -70.0625 230.3125 C-70.0625 229.6525 -70.0625 228.9925 -70.0625 228.3125 C-71.0834375 227.9721875 -71.0834375 227.9721875 -72.125 227.625 C-80.65348226 223.81440154 -86.63631634 216.8634447 -92.875 210.125 C-93.62813477 209.32545898 -93.62813477 209.32545898 -94.39648438 208.50976562 C-98.0625 204.54448342 -98.0625 204.54448342 -98.0625 202.3125 C-98.7225 202.3125 -99.3825 202.3125 -100.0625 202.3125 C-101.578125 200.0390625 -101.578125 200.0390625 -103.3125 196.9375 C-105.50785916 193.04675996 -107.73948039 189.21404819 -110.125 185.4375 C-125.76144056 159.53047515 -128.64866684 123.52634459 -122.1015625 94.13671875 C-118.15711915 79.61938779 -111.98975729 66.46348909 -103.0625 54.3125 C-102.01957741 52.33454336 -101.00267941 50.34130819 -100.0625 48.3125 C-99.4025 48.3125 -98.7425 48.3125 -98.0625 48.3125 C-97.79155518 47.7155835 -97.52061035 47.11866699 -97.24145508 46.50366211 C-96.07813082 44.34155086 -94.94323546 42.96156014 -93.19921875 41.25390625 C-92.64169922 40.70283203 -92.08417969 40.15175781 -91.50976562 39.58398438 C-90.92904297 39.02001953 -90.34832031 38.45605469 -89.75 37.875 C-89.18087891 37.31490234 -88.61175781 36.75480469 -88.02539062 36.17773438 C-86.90323518 35.07361587 -85.77908879 33.97151669 -84.65283203 32.87158203 C-83.18650593 31.43406922 -81.73510644 29.98137256 -80.28515625 28.52734375 C-76.07092427 24.32792454 -71.6694104 21.42456705 -66.44140625 18.65625 C-63.95203904 17.29797497 -63.95203904 17.29797497 -61.31640625 15.41015625 C-57.49526508 12.94682755 -53.58942811 11.08231455 -49.4375 9.25 C-48.64206787 8.89856934 -47.84663574 8.54713867 -47.02709961 8.18505859 C-40.82651931 5.5121676 -34.71054758 3.54895216 -28.0625 2.3125 C-26.97666626 2.06415405 -26.97666626 2.06415405 -25.86889648 1.81079102 C-17.27236935 -0.01330461 -8.74161307 -0.04333899 0 0 Z M-22.0625 54.3125 C-23.1865625 54.7146875 -24.310625 55.116875 -25.46875 55.53125 C-34.08773524 58.9038964 -40.93053066 63.47239936 -48.0625 69.3125 C-48.71734375 69.78042969 -49.3721875 70.24835938 -50.046875 70.73046875 C-62.88918992 80.30329524 -69.74187018 99.31127154 -73.0625 114.3125 C-75.11012451 137.54137453 -69.27711382 154.77746474 -56.3828125 173.7890625 C-55.72925781 174.54316406 -55.72925781 174.54316406 -55.0625 175.3125 C-54.4025 175.3125 -53.7425 175.3125 -53.0625 175.3125 C-53.0625 175.9725 -53.0625 176.6325 -53.0625 177.3125 C-52.4025 177.3125 -51.7425 177.3125 -51.0625 177.3125 C-51.0625 177.9725 -51.0625 178.6325 -51.0625 179.3125 C-47.57430401 182.21719261 -43.79584615 184.73400226 -40.0625 187.3125 C-39.38445312 187.79460937 -38.70640625 188.27671875 -38.0078125 188.7734375 C-22.33572214 199.33360139 -2.89113689 201.61799518 15.48193359 198.94189453 C29.03717725 196.18960441 43.04975848 188.99097715 52.9375 179.3125 C52.9375 178.6525 52.9375 177.9925 52.9375 177.3125 C53.5975 177.3125 54.2575 177.3125 54.9375 177.3125 C56.2981009 175.82613242 56.2981009 175.82613242 57.5625 173.9375 C58.00851562 173.31101562 58.45453125 172.68453125 58.9140625 172.0390625 C60.10746969 170.36027357 60.10746969 170.36027357 59.9375 168.3125 C60.5975 168.3125 61.2575 168.3125 61.9375 168.3125 C70.8567134 154.34718076 75.33437349 141.64141672 75.4375 124.9375 C75.44716797 123.45854248 75.44716797 123.45854248 75.45703125 121.94970703 C75.20788093 107.66908129 70.15178662 94.82803656 61.9375 83.3125 C61.32003906 82.39339844 60.70257813 81.47429687 60.06640625 80.52734375 C59.44636719 79.61082031 58.82632813 78.69429687 58.1875 77.75 C57.61515625 76.90308594 57.0428125 76.05617188 56.453125 75.18359375 C55.95296875 74.56613281 55.4528125 73.94867188 54.9375 73.3125 C54.2775 73.3125 53.6175 73.3125 52.9375 73.3125 C52.9375 72.6525 52.9375 71.9925 52.9375 71.3125 C52.2775 71.3125 51.6175 71.3125 50.9375 71.3125 C50.9375 70.6525 50.9375 69.9925 50.9375 69.3125 C48.38317524 67.42832128 45.68881501 65.83421589 42.98046875 64.1796875 C41.16243252 63.0641274 39.36415999 61.91357098 37.61328125 60.6953125 C21.06970705 49.5507756 -3.512073 47.43425179 -22.0625 54.3125 Z " fill="#828AE6" transform="translate(249.0625,124.6875)"/>
<path d="M0 0 C2.30585112 0.01070791 4.61092066 0.00005626 6.91674805 -0.01269531 C15.42878575 -0.01954687 23.51233152 0.47475995 31.87573242 2.26074219 C31.87573242 2.59074219 31.87573242 2.92074219 31.87573242 3.26074219 C31.09069336 3.3703125 30.3056543 3.47988281 29.49682617 3.59277344 C20.54009366 4.94452571 14.20566463 6.05416657 8.23510742 13.24902344 C4.81413352 18.3116716 3.47567794 22.11845858 3.56323242 28.26074219 C3.56709961 29.43636719 3.5709668 30.61199219 3.57495117 31.82324219 C3.98911769 36.55657384 5.28626232 41.23267759 7.87573242 45.26074219 C9.62440725 46.34505313 9.62440725 46.34505313 11.87573242 47.26074219 C13.13205563 47.95779893 14.38170513 48.66697086 15.62573242 49.38574219 C16.69823242 50.00449219 17.77073242 50.62324219 18.87573242 51.26074219 C18.87573242 51.59074219 18.87573242 51.92074219 18.87573242 52.26074219 C18.12066406 52.24503174 17.3655957 52.22932129 16.58764648 52.21313477 C13.10042086 52.15000671 9.61331609 52.11150721 6.12573242 52.07324219 C4.93850586 52.04810547 3.7512793 52.02296875 2.52807617 51.99707031 C-17.24845139 51.83496763 -34.8279104 59.2129981 -48.96411133 73.03808594 C-49.67696289 73.7715625 -50.38981445 74.50503906 -51.12426758 75.26074219 C-52.11426758 74.76574219 -52.11426758 74.76574219 -53.12426758 74.26074219 C-52.62926758 73.16761719 -52.13426758 72.07449219 -51.62426758 70.94824219 C-49.23799636 64.55076267 -48.96607798 58.01144249 -51.62426758 51.69824219 C-52.11926758 50.89386719 -52.61426758 50.08949219 -53.12426758 49.26074219 C-53.12426758 48.60074219 -53.12426758 47.94074219 -53.12426758 47.26074219 C-53.78426758 47.26074219 -54.44426758 47.26074219 -55.12426758 47.26074219 C-55.45426758 46.27074219 -55.78426758 45.28074219 -56.12426758 44.26074219 C-57.6482054 42.85296568 -57.6482054 42.85296568 -59.49926758 41.63574219 C-60.10512695 41.21035156 -60.71098633 40.78496094 -61.33520508 40.34667969 C-67.32095801 36.71340607 -76.6851496 37.43784447 -83.42114258 38.68652344 C-88.28756678 40.50585175 -91.7257449 44.49034468 -95.12426758 48.26074219 C-95.12426758 45.26074219 -95.12426758 45.26074219 -93.91845703 43.71435547 C-93.36375732 43.17536621 -92.80905762 42.63637695 -92.23754883 42.08105469 C-91.6284668 41.48164063 -91.01938477 40.88222656 -90.3918457 40.26464844 C-89.42408203 39.33458984 -89.42408203 39.33458984 -88.43676758 38.38574219 C-87.49800781 37.46728516 -87.49800781 37.46728516 -86.5402832 36.53027344 C-85.31000412 35.32704761 -84.0768249 34.12677902 -82.84057617 32.9296875 C-81.31600776 31.44719111 -79.81049847 29.94515093 -78.30786133 28.44042969 C-74.11129559 24.25137122 -69.71306396 21.36321755 -64.50317383 18.60449219 C-62.01380661 17.24621715 -62.01380661 17.24621715 -59.37817383 15.35839844 C-55.55703266 12.89506974 -51.65119569 11.03055674 -47.49926758 9.19824219 C-46.70383545 8.84681152 -45.90840332 8.49538086 -45.08886719 8.13330078 C-38.88828689 5.46040979 -32.77231516 3.49719435 -26.12426758 2.26074219 C-25.404729 2.09445313 -24.68519043 1.92816406 -23.94384766 1.75683594 C-15.9764553 0.05422751 -8.10518814 -0.04469931 0 0 Z " fill="#FABE64" transform="translate(247.124267578125,124.7392578125)"/>
<path d="M0 0 C0 0.66 0 1.32 0 2 C-3.81893362 5.5725508 -7.6744975 8.53010272 -13 9 C-13.66 9.33 -14.32 9.66 -15 10 C-16.52017837 10.04462909 -18.04216797 10.03904545 -19.5625 10 C-21.04118221 9.96214574 -22.52155788 9.95370827 -24 10 C-24.33 10.33 -24.66 10.66 -25 11 C-26.36197484 11.02885064 -27.72559924 10.98677866 -29.0859375 10.9140625 C-29.92954834 10.87104004 -30.77315918 10.82801758 -31.64233398 10.78369141 C-32.54411377 10.73132324 -33.44589355 10.67895508 -34.375 10.625 C-35.28515869 10.5739209 -36.19531738 10.5228418 -37.13305664 10.47021484 C-38.94028896 10.36611568 -40.74734592 10.25892025 -42.55419922 10.1484375 C-44.56808925 10.02621299 -46.58279522 9.91750904 -48.59765625 9.8125 C-53.57724402 9.48372392 -56.85998734 9.0109183 -61 6 C-61.70125 5.855625 -62.4025 5.71125 -63.125 5.5625 C-65.74330033 4.7770099 -66.55467108 3.24025983 -68 1 C-65.47848461 1.55396929 -63.16756961 2.30369769 -60.734375 3.19140625 C-42.70499098 9.57450872 -23.74693607 9.0053695 -6 2 C-4.84757812 1.42378906 -4.84757812 1.42378906 -3.671875 0.8359375 C-2 0 -2 0 0 0 Z " fill="#888CD4" transform="translate(285,316)"/>
<path d="M0 0 C0.33 0 0.66 0 1 0 C3.82921419 21.55814451 4.74737266 44.58946379 -4 65 C-5.16896267 61.49311199 -4.52546992 59.46569386 -3.71582031 55.94189453 C0.40488074 37.6030721 -0.15939011 18.70085716 0 0 Z " fill="#9D9FD8" transform="translate(373,226)"/>
<path d="M0 0 C0.66 0.33 1.32 0.66 2 1 C1.01 1.33 0.02 1.66 -1 2 C-1.268125 2.61746094 -1.53625 3.23492187 -1.8125 3.87109375 C-3.53968461 6.96752669 -5.81049876 7.62492432 -9 9.0625 C-13.74058961 11.12105438 -13.74058961 11.12105438 -17 15 C-18.66279327 16.0064275 -20.32983484 17.00585407 -22 18 C-23.32 19.32 -24.64 20.64 -26 22 C-19.73 22.33 -13.46 22.66 -7 23 C-7 23.66 -7 24.32 -7 25 C-8.21816406 24.96519531 -9.43632812 24.93039063 -10.69140625 24.89453125 C-12.31509028 24.86637488 -13.93878935 24.83907671 -15.5625 24.8125 C-16.36236328 24.78736328 -17.16222656 24.76222656 -17.98632812 24.73632812 C-24.44628376 24.65722663 -29.08570231 25.5996878 -34.21484375 29.82421875 C-35.06755859 30.74654297 -35.06755859 30.74654297 -35.9375 31.6875 C-36.52402344 32.31011719 -37.11054688 32.93273437 -37.71484375 33.57421875 C-38.13894531 34.04472656 -38.56304687 34.51523438 -39 35 C-39 32 -39 32 -37.79418945 30.45361328 C-37.23948975 29.91462402 -36.68479004 29.37563477 -36.11328125 28.8203125 C-35.1996582 27.92119141 -35.1996582 27.92119141 -34.26757812 27.00390625 C-33.62240234 26.38386719 -32.97722656 25.76382813 -32.3125 25.125 C-31.37374023 24.20654297 -31.37374023 24.20654297 -30.41601562 23.26953125 C-29.18573654 22.06630542 -27.95255732 20.86603684 -26.71630859 19.66894531 C-25.19174018 18.18644892 -23.68623089 16.68440874 -22.18359375 15.1796875 C-17.93730149 10.94099147 -13.4699745 8.07042519 -8.2265625 5.23828125 C-5.36285861 3.64565997 -2.69294002 1.86434309 0 0 Z " fill="#D8BDA2" transform="translate(191,138)"/>
<path d="M0 0 C0.33 0 0.66 0 1 0 C1.28875 0.9075 1.5775 1.815 1.875 2.75 C3.28852278 7.60654013 3.28852278 7.60654013 6.6875 11 C7.450625 11.33 8.21375 11.66 9 12 C10.25632321 12.69705675 11.50597271 13.40622868 12.75 14.125 C13.8225 14.74375 14.895 15.3625 16 16 C16 16.33 16 16.66 16 17 C3.13 16.505 3.13 16.505 -10 16 C-10 15.34 -10 14.68 -10 14 C-3.375 11.125 -3.375 11.125 0 10 C0 6.7 0 3.4 0 0 Z " fill="#F8BE67" transform="translate(250,160)"/>
<path d="M0 0 C-0.99 0.66 -1.98 1.32 -3 2 C-3.495 1.01 -3.495 1.01 -4 0 C-7.04657391 -0.85698913 -10.11720638 -1.47498345 -13.21484375 -2.12109375 C-16 -3 -16 -3 -18 -6 C-21.24311137 -7.2523622 -24.55515118 -7.16596969 -28 -7.1875 C-29.03125 -7.20167969 -30.0625 -7.21585938 -31.125 -7.23046875 C-34.0178751 -6.99856708 -35.50384665 -6.37791905 -38 -5 C-39.7015625 -4.7834375 -39.7015625 -4.7834375 -41.4375 -4.5625 C-45.05508195 -3.99130285 -46.95350972 -2.91493675 -50 -1 C-50.66 -1.33 -51.32 -1.66 -52 -2 C-50.99323603 -2.97310317 -49.96861297 -3.92773578 -48.9375 -4.875 C-48.08478516 -5.67550781 -48.08478516 -5.67550781 -47.21484375 -6.4921875 C-32.63211623 -16.41975861 -13.30956079 -7.8896881 0 0 Z " fill="#9891C7" transform="translate(308,138)"/>
<path d="M0 0 C4.50744942 2.64567683 6.11995232 4.23721254 8 9 C9.64363134 9.72159424 11.31050386 10.39351421 13 11 C13.33 11.99 13.66 12.98 14 14 C14.66 14.33 15.32 14.66 16 15 C16 15.66 16 16.32 16 17 C16.66 17 17.32 17 18 17 C19.79967022 19.20312274 21.40981752 21.51277536 23.05078125 23.8359375 C25.23777779 26.26398576 26.96897105 26.91245473 30 28 C31.3125 30.125 31.3125 30.125 32 32 C22.36315712 28.78771904 15.89316685 21.05533642 9.1875 13.8125 C8.68541016 13.27947266 8.18332031 12.74644531 7.66601562 12.19726562 C4 8.23198342 4 8.23198342 4 6 C3.34 6 2.68 6 2 6 C0 3 0 3 0 0 Z " fill="#A7A9DB" transform="translate(147,321)"/>
<path d="M0 0 C2.475 0.495 2.475 0.495 5 1 C6.80679587 5.62369023 7.21839082 9.42528653 7.125 14.375 C7.10695312 15.62023437 7.08890625 16.86546875 7.0703125 18.1484375 C7.04710937 19.08945313 7.02390625 20.03046875 7 21 C7.99 21 8.98 21 10 21 C10 20.34 10 19.68 10 19 C11.98 18.67 13.96 18.34 16 18 C16 17.34 16 16.68 16 16 C18.8125 14.4375 18.8125 14.4375 22 13 C22.99 13.33 23.98 13.66 25 14 C24.32195312 14.40089844 23.64390625 14.80179688 22.9453125 15.21484375 C15.9315084 19.49889861 9.9340003 24.32344006 4 30 C3.34 29.67 2.68 29.34 2 29 C2.495 27.906875 2.99 26.81375 3.5 25.6875 C5.88627122 19.29002048 6.1581896 12.75070031 3.5 6.4375 C3.005 5.633125 2.51 4.82875 2 4 C2 3.34 2 2.68 2 2 C1.34 2 0.68 2 0 2 C0 1.34 0 0.68 0 0 Z " fill="#F1BD80" transform="translate(192,170)"/>
<path d="M0 0 C0.7399118 -0.0033284 1.47982361 -0.0066568 2.24215698 -0.01008606 C3.80368432 -0.01512801 5.36522234 -0.01749523 6.92675781 -0.01733398 C9.27688116 -0.01950556 11.62652291 -0.03764891 13.9765625 -0.05664062 C22.57692099 -0.08769501 30.72966502 0.34426006 39.1796875 2.16796875 C39.1796875 2.49796875 39.1796875 2.82796875 39.1796875 3.16796875 C34.5596875 3.82796875 29.9396875 4.48796875 25.1796875 5.16796875 C25.1796875 4.17796875 25.1796875 3.18796875 25.1796875 2.16796875 C12.3096875 2.16796875 -0.5603125 2.16796875 -13.8203125 2.16796875 C-13.8203125 1.83796875 -13.8203125 1.50796875 -13.8203125 1.16796875 C-9.19220308 0.26583387 -4.70066995 0.00750537 0 0 Z " fill="#EDC58E" transform="translate(239.8203125,124.83203125)"/>
<path d="M0 0 C4.30764815 1.56641751 8.06171464 3.68336156 12 6 C12 6.66 12 7.32 12 8 C12.66 8 13.32 8 14 8 C14 8.66 14 9.32 14 10 C14.82757813 10.35191406 14.82757813 10.35191406 15.671875 10.7109375 C18.59325764 12.32848158 20.79574497 14.36450195 23.25 16.625 C24.14203125 17.44226563 25.0340625 18.25953125 25.953125 19.1015625 C26.96632813 20.04128906 26.96632813 20.04128906 28 21 C27.67 21.66 27.34 22.32 27 23 C26.525625 22.4225 26.05125 21.845 25.5625 21.25 C22.09260912 18.20326654 18.25300723 16.70847299 14 15 C14 14.01 14 13.02 14 12 C13.34 12 12.68 12 12 12 C9.875 10.125 9.875 10.125 8 8 C8 7.34 8 6.68 8 6 C5.69 5.67 3.38 5.34 1 5 C1 4.01 1 3.02 1 2 C0.34 1.67 -0.32 1.34 -1 1 C-0.67 0.67 -0.34 0.34 0 0 Z " fill="#A4A5DC" transform="translate(315,143)"/>
<path d="M0 0 C2.54188941 0.57062823 4.93373854 1.31695712 7.40625 2.15625 C18.64175155 5.90419241 29.19254824 6.86568566 41 7 C41 7.33 41 7.66 41 8 C36.9615943 8.0744389 32.92345707 8.12873729 28.88452148 8.16479492 C27.51205483 8.17983432 26.13963586 8.20027133 24.76733398 8.22631836 C22.78911344 8.26291221 20.81053486 8.27816698 18.83203125 8.29296875 C17.64327393 8.3086792 16.4545166 8.32438965 15.22973633 8.34057617 C11.69315222 7.96764286 9.90015669 6.98404743 7 5 C6.29875 4.855625 5.5975 4.71125 4.875 4.5625 C2.25669967 3.7770099 1.44532892 2.24025983 0 0 Z " fill="#AEADDD" transform="translate(217,317)"/>
<path d="M0 0 C0.33 0.66 0.66 1.32 1 2 C0.07292092 3.8198219 -0.85959518 5.63703935 -1.81640625 7.44140625 C-3.6939186 11.50005506 -4.83992235 15.75576224 -6.0703125 20.046875 C-6.85763807 22.54779152 -7.74338533 24.70918033 -9 27 C-9.26618595 20.04958914 -8.6120509 13.76485645 -7 7 C-6.01 6.67 -5.02 6.34 -4 6 C-3.67 4.35 -3.34 2.7 -3 1 C-2.01 0.67 -1.02 0.34 0 0 Z " fill="#ACACDC" transform="translate(185,212)"/>
<path d="M0 0 C2.37570543 -0.0816082 4.74855841 -0.14077222 7.125 -0.1875 C7.79015625 -0.21263672 8.4553125 -0.23777344 9.140625 -0.26367188 C16.32176519 -0.36927688 20.68120558 2.46338123 26 7 C25.67 7.99 25.34 8.98 25 10 C24.01 9.67 23.02 9.34 22 9 C22 8.01 22 7.02 22 6 C18.7 6 15.4 6 12 6 C12.33 4.35 12.66 2.7 13 1 C8.71 1 4.42 1 0 1 C0 0.67 0 0.34 0 0 Z M20 9 C22 10 22 10 22 10 Z " fill="#8A8CD3" transform="translate(166,162)"/>
<path d="M0 0 C0.66 0.33 1.32 0.66 2 1 C1.01 1.33 0.02 1.66 -1 2 C-1.268125 2.61746094 -1.53625 3.23492187 -1.8125 3.87109375 C-3.53968461 6.96752669 -5.81049876 7.62492432 -9 9.0625 C-13.74058961 11.12105438 -13.74058961 11.12105438 -17 15 C-21.44444444 18 -21.44444444 18 -24 18 C-24 17.34 -24 16.68 -24 16 C-19.25457022 11.54625148 -13.81068889 8.16592639 -8.0859375 5.1328125 C-5.25641962 3.59618294 -2.64587093 1.8317568 0 0 Z " fill="#EED2A3" transform="translate(191,138)"/>
<path d="M0 0 C0.66 0 1.32 0 2 0 C1.86754078 6.22558325 -0.40819627 9.29813169 -4.40625 13.984375 C-6.19146367 16.00713576 -6.19146367 16.00713576 -7 19 C-7.99 19 -8.98 19 -10 19 C-10.33 19.66 -10.66 20.32 -11 21 C-10.45123056 16.83973439 -9.12652406 14.40314289 -6.625 11.0625 C-4.00784683 7.46727316 -1.8132859 4.0532273 0 0 Z " fill="#A8A8DA" transform="translate(149,173)"/>
<path d="M0 0 C9.94737236 1.15460572 19.56709271 4.57884531 28 10 C27.01 10.66 26.02 11.32 25 12 C24.67 11.34 24.34 10.68 24 10 C20.95342609 9.14301087 17.88279362 8.52501655 14.78515625 7.87890625 C12 7 12 7 10 4 C7.59027402 2.98675674 7.59027402 2.98675674 4.875 2.3125 C3.96492188 2.06113281 3.05484375 1.80976563 2.1171875 1.55078125 C1.41851562 1.36902344 0.71984375 1.18726563 0 1 C0 0.67 0 0.34 0 0 Z " fill="#B9B7DC" transform="translate(280,128)"/>
<path d="M0 0 C4.1214767 3.75400238 6.69321511 7.5058553 9.25 12.4375 C9.600625 13.08009766 9.95125 13.72269531 10.3125 14.38476562 C12.35346856 18.25083107 13.53646375 21.58958887 14 26 C13.34 26 12.68 26 12 26 C11.71125 25.030625 11.4225 24.06125 11.125 23.0625 C10.35785318 19.89335797 10.35785318 19.89335797 8 19 C7.40644386 16.35139573 7.25790731 13.70802678 7 11 C6.34 11 5.68 11 5 11 C1.14950521 8.43300347 0.90493151 4.24621709 0 0 Z " fill="#B5B6DC" transform="translate(353,179)"/>
<path d="M0 0 C2.49498754 2.49498754 2.35223401 3.41420382 2.4375 6.875 C2.26137196 16.46139787 -2.13946195 24.63246645 -8 32 C-8.33 30.68 -8.66 29.36 -9 28 C-8.34 28 -7.68 28 -7 28 C-7 26.68 -7 25.36 -7 24 C-6.01 23.67 -5.02 23.34 -4 23 C-0.29605681 15.59211361 0.5783493 8.16115117 0 0 Z " fill="#9E92B2" transform="translate(196,178)"/>
<path d="M0 0 C-6.61172464 3.92995969 -12.38355798 6.75140295 -20 8 C-18.875 6.0625 -18.875 6.0625 -17 4 C-13.8125 3.25 -13.8125 3.25 -11 3 C-11 2.34 -11 1.68 -11 1 C-4.03571429 -1.27678571 -4.03571429 -1.27678571 0 0 Z " fill="#B6B5DF" transform="translate(312,360)"/>
<path d="M0 0 C-3.36027208 1.83212879 -6.78070477 2.95066515 -10.4375 4.0625 C-12.10619141 4.57490234 -12.10619141 4.57490234 -13.80859375 5.09765625 C-16.53317292 5.8680085 -19.21607021 6.49525011 -22 7 C-21.31640625 5.109375 -21.31640625 5.109375 -20 3 C-13.62802576 0.08087334 -6.89776155 -0.33923417 0 0 Z " fill="#EDCEA0" transform="translate(239,176)"/>
<path d="M0 0 C-5.90749507 3.54449704 -14.51550751 6.78880324 -21.3984375 5.578125 C-21.92695313 5.38734375 -22.45546875 5.1965625 -23 5 C-20.96123051 4.18025737 -18.91883925 3.3695193 -16.875 2.5625 C-15.73804688 2.11003906 -14.60109375 1.65757812 -13.4296875 1.19140625 C-8.8003295 -0.41674203 -4.74582927 -1.64278706 0 0 Z " fill="#EFD09F" transform="translate(225,128)"/>
<path d="M0 0 C-1.45365269 1.17249353 -2.91307419 2.33783816 -4.375 3.5 C-5.59316406 4.47453125 -5.59316406 4.47453125 -6.8359375 5.46875 C-9 7 -9 7 -11 7 C-11 7.66 -11 8.32 -11 9 C-12.32 9.33 -13.64 9.66 -15 10 C-15 9.01 -15 8.02 -15 7 C-14.01 7 -13.02 7 -12 7 C-12 6.34 -12 5.68 -12 5 C-11.34 5 -10.68 5 -10 5 C-10.33 4.01 -10.66 3.02 -11 2 C-9.54494642 1.47007308 -8.08581873 0.9513211 -6.625 0.4375 C-5.40683594 0.00244141 -5.40683594 0.00244141 -4.1640625 -0.44140625 C-2 -1 -2 -1 0 0 Z " fill="#A9A9D8" transform="translate(332,346)"/>
<path d="M0 0 C0 0.66 0 1.32 0 2 C-2.88827336 4.67956363 -5.34334483 5.50039576 -9.1875 6.125 C-12.39244831 6.44294355 -12.39244831 6.44294355 -15 8 C-17.67058851 8.14115161 -20.32432238 8.04247107 -23 8 C-19.305626 5.96335792 -15.3725972 4.72791212 -11.375 3.4375 C-0.79190962 0 -0.79190962 0 0 0 Z " fill="#AAAADA" transform="translate(285,316)"/>
<path d="M0 0 C0.66 0 1.32 0 2 0 C1.31238981 3.65564909 -0.25449545 6.51867272 -2.0625 9.75 C-2.61035156 10.73484375 -3.15820312 11.7196875 -3.72265625 12.734375 C-4.14417969 13.48203125 -4.56570313 14.2296875 -5 15 C-5.66 15 -6.32 15 -7 15 C-6.125 10.25 -6.125 10.25 -5 8 C-4.34 8 -3.68 8 -3 8 C-3 6.35 -3 4.7 -3 3 C-2.01 2.67 -1.02 2.34 0 2 C0 1.34 0 0.68 0 0 Z " fill="#ADABD7" transform="translate(360,306)"/>
<path d="M0 0 C0.99 0.33 1.98 0.66 3 1 C3 2.32 3 3.64 3 5 C3.66 5 4.32 5 5 5 C7.45029331 10.71735105 8.33266291 14.79029227 8 21 C7.67 21 7.34 21 7 21 C6.61908203 19.67935547 6.61908203 19.67935547 6.23046875 18.33203125 C5.88628906 17.17058594 5.54210937 16.00914062 5.1875 14.8125 C4.85105469 13.66394531 4.51460938 12.51539063 4.16796875 11.33203125 C3.07919676 8.2259359 1.68841592 5.80112556 0 3 C0 2.01 0 1.02 0 0 Z " fill="#B4B5DC" transform="translate(315,213)"/>
<path d="M0 0 C0.66 0 1.32 0 2 0 C3.29243536 4.1196377 4.26252625 7.66831683 4 12 C3.67 12 3.34 12 3 12 C2.67 16.29 2.34 20.58 2 25 C1.67 25 1.34 25 1 25 C0.67 16.75 0.34 8.5 0 0 Z " fill="#AAAEDE" transform="translate(323,234)"/>
<path d="M0 0 C0.88150202 2.38005546 1.02525724 3.86288926 0.5625 6.375 C-1.774074 10.30044432 -5.26111569 12.46973178 -9 15 C-8.34 13.35 -7.68 11.7 -7 10 C-6.34 10 -5.68 10 -5 10 C-4.731875 9.0925 -4.46375 8.185 -4.1875 7.25 C-3.10423706 4.28528037 -2.01640543 2.3830246 0 0 Z " fill="#B6B8DF" transform="translate(316,283)"/>
<path d="M0 0 C2.475 0.495 2.475 0.495 5 1 C5.33 1.99 5.66 2.98 6 4 C6.721875 3.87625 7.44375 3.7525 8.1875 3.625 C11.45013736 4.06001831 11.8041996 4.55561151 13.8125 7 C14.534375 7.99 15.25625 8.98 16 10 C10.15549417 8.46197215 4.87288478 5.5439162 0 2 C0 1.34 0 0.68 0 0 Z " fill="#B9BADE" transform="translate(179,353)"/>
<path d="M0 0 C0.33 0 0.66 0 1 0 C1.1875 3.375 1.1875 3.375 1 7 C0.01 7.66 -0.98 8.32 -2 9 C-3.22844823 11.4060889 -3.22844823 11.4060889 -4.1875 14.125 C-4.53167969 15.03507813 -4.87585938 15.94515625 -5.23046875 16.8828125 C-5.48441406 17.58148438 -5.73835937 18.28015625 -6 19 C-7.33067733 15.96391436 -6.92852495 14.79291171 -5.8203125 11.58203125 C-5.26690884 10.32032386 -4.70137738 9.06387934 -4.125 7.8125 C-3.84269531 7.17119141 -3.56039062 6.52988281 -3.26953125 5.86914062 C-1.17994048 1.17994048 -1.17994048 1.17994048 0 0 Z " fill="#B7B7DE" transform="translate(137,194)"/>
<path d="M0 0 C0.99 0.33 1.98 0.66 3 1 C3.6875 3.0625 3.6875 3.0625 4 5 C4.66 5 5.32 5 6 5 C7.38938077 6.96147874 8.7260411 8.96166576 10 11 C9.67 11.66 9.34 12.32 9 13 C3.22439893 10.54229742 3.22439893 10.54229742 2.25 8.1875 C2.1675 7.465625 2.085 6.74375 2 6 C1.34490497 3.99617991 0.68025637 1.99541868 0 0 Z " fill="#AAABD9" transform="translate(343,166)"/>
<path d="M0 0 C0.33 0 0.66 0 1 0 C0.42351925 7.35012956 -1.71046164 14.01424576 -4 21 C-5.2426948 17.2719156 -4.60373206 15.42019819 -3.6875 11.625 C-3.42324219 10.50351562 -3.15898437 9.38203125 -2.88671875 8.2265625 C-2.10166604 5.36993897 -1.16615075 2.71932097 0 0 Z " fill="#B0B1D9" transform="translate(373,270)"/>
<path d="M0 0 C2.89051392 4.33577089 4.28598744 9.10282126 6 14 C6.433125 15.175625 6.86625 16.35125 7.3125 17.5625 C8 20 8 20 7 22 C-0.36483254 6.20215311 -0.36483254 6.20215311 0 0 Z " fill="#C9C8DD" transform="translate(128,280)"/>
<path d="M0 0 C0.33 0.66 0.66 1.32 1 2 C-1.31 4.97 -3.62 7.94 -6 11 C-7.33332095 8.3333581 -6.67102033 6.83319697 -6 4 C-5.34 4 -4.68 4 -4 4 C-4 3.01 -4 2.02 -4 1 C-2.68 0.67 -1.36 0.34 0 0 Z " fill="#A7A8D8" transform="translate(352,321)"/>
<path d="M0 0 C1.22156872 3.66470616 0.62833432 4.63237688 -0.8125 8.125 C-1.16957031 9.01445312 -1.52664063 9.90390625 -1.89453125 10.8203125 C-3 13 -3 13 -5 14 C-4.67 11.03 -4.34 8.06 -4 5 C-3.34 5 -2.68 5 -2 5 C-1.34 3.35 -0.68 1.7 0 0 Z " fill="#AAACDC" transform="translate(367,292)"/>
<path d="M0 0 C1.46300982 0.93018526 2.92025579 1.86944027 4.375 2.8125 C5.18710938 3.33457031 5.99921875 3.85664063 6.8359375 4.39453125 C9 6 9 6 11 9 C6.545 8.01 6.545 8.01 2 7 C1.34 4.69 0.68 2.38 0 0 Z " fill="#B7B8DF" transform="translate(199,304)"/>
<path d="M0 0 C-2.60417425 2.60417425 -4.4033416 3.14988074 -8 4 C-11.03829496 3.87608911 -14.00109999 3.49315245 -17 3 C-17 2.67 -17 2.34 -17 2 C-5.47835991 -0.29612756 -5.47835991 -0.29612756 0 0 Z " fill="#A1A1D8" transform="translate(291,368)"/>
<path d="M0 0 C0 0.33 0 0.66 0 1 C-12.87 0.505 -12.87 0.505 -26 0 C-26 -0.33 -26 -0.66 -26 -1 C-22.79273298 -1.2276125 -19.5843177 -1.42860225 -16.375 -1.625 C-15.47136719 -1.68945312 -14.56773437 -1.75390625 -13.63671875 -1.8203125 C-8.60433074 -2.11417457 -4.72809683 -2.05774314 0 0 Z " fill="#EBCBA6" transform="translate(266,176)"/>
<path d="M0 0 C5.9782058 1.11458074 8.94612259 2.18602057 13 7 C9.34899606 7 7.89878202 5.9552415 4.8125 4.0625 C3.46091797 3.24458984 3.46091797 3.24458984 2.08203125 2.41015625 C1.39496094 1.94480469 0.70789063 1.47945312 0 1 C0 0.67 0 0.34 0 0 Z " fill="#B4B6DA" transform="translate(283,183)"/>
<path d="M0 0 C2.37570543 -0.0816082 4.74855841 -0.14077222 7.125 -0.1875 C7.79015625 -0.21263672 8.4553125 -0.23777344 9.140625 -0.26367188 C13.86902292 -0.33320714 16.95121479 0.59721625 21 3 C18.13822943 4.43088528 16.06624227 3.59991697 13 3 C13 2.34 13 1.68 13 1 C8.71 1 4.42 1 0 1 C0 0.67 0 0.34 0 0 Z " fill="#9B90BB" transform="translate(166,162)"/>
<path d="M0 0 C2.74277578 3.19990508 4.6302836 6.00499382 6 10 C5.01 10.33 4.02 10.66 3 11 C-1.06153846 4.6 -1.06153846 4.6 -0.75 1.5625 C-0.5025 1.046875 -0.255 0.53125 0 0 Z " fill="#A2A1D9" transform="translate(137,301)"/>
<path d="M0 0 C0.66 0.33 1.32 0.66 2 1 C1.01 1.33 0.02 1.66 -1 2 C-1.433125 2.928125 -1.433125 2.928125 -1.875 3.875 C-3.38066201 6.71902824 -5.13246422 7.6379205 -8 9 C-8.66 8.67 -9.32 8.34 -10 8 C-6.91367389 4.7373124 -4.06516496 1.97764782 0 0 Z " fill="#F0CA91" transform="translate(191,138)"/>
<path d="M0 0 C1.65 0.33 3.3 0.66 5 1 C3.02 3.31 1.04 5.62 -1 8 C-2 4 -2 4 -1.0625 1.75 C-0.711875 1.1725 -0.36125 0.595 0 0 Z " fill="#868CD8" transform="translate(340,330)"/>
<path d="M0 0 C4.08889201 2.22222392 5.7411657 3.29408826 7.375 7.75 C7.58125 8.8225 7.7875 9.895 8 11 C6 9.625 6 9.625 4 8 C4 7.34 4 6.68 4 6 C3.34 6 2.68 6 2 6 C0 3 0 3 0 0 Z " fill="#B9BBE4" transform="translate(147,321)"/>
<path d="M0 0 C-1.79090758 1.1470194 -3.58274997 2.29257935 -5.375 3.4375 C-6.87160156 4.39462891 -6.87160156 4.39462891 -8.3984375 5.37109375 C-11 7 -11 7 -13 8 C-13 6.68 -13 5.36 -13 4 C-11.68 4 -10.36 4 -9 4 C-9 3.34 -9 2.68 -9 2 C-3.375 -1.125 -3.375 -1.125 0 0 Z " fill="#EFCC9D" transform="translate(217,184)"/>
<path d="M0 0 C2.475 0.495 2.475 0.495 5 1 C5 1.66 5 2.32 5 3 C5.9590625 3.3403125 5.9590625 3.3403125 6.9375 3.6875 C9 5 9 5 9.75 7.625 C9.87375 8.800625 9.87375 8.800625 10 10 C9.34 9.67 8.68 9.34 8 9 C8 8.34 8 7.68 8 7 C7.34 7 6.68 7 6 7 C6 6.34 6 5.68 6 5 C5.34 5 4.68 5 4 5 C4 4.34 4 3.68 4 3 C2.68 2.34 1.36 1.68 0 1 C0 0.67 0 0.34 0 0 Z " fill="#A6A8D7" transform="translate(296,191)"/>
<path d="M0 0 C0.66 0.99 1.32 1.98 2 3 C3.32 2.34 4.64 1.68 6 1 C5.07347299 2.17539996 4.13336613 3.34010577 3.1875 4.5 C2.66542969 5.1496875 2.14335937 5.799375 1.60546875 6.46875 C0 8 0 8 -3 8 C-2.01 5.36 -1.02 2.72 0 0 Z " fill="#E4CAAA" transform="translate(197,191)"/>
<path d="M0 0 C-2.85584773 1.90389849 -4.9311762 2.69462177 -8.1875 3.625 C-9.08855469 3.88539063 -9.98960937 4.14578125 -10.91796875 4.4140625 C-11.94857422 4.70410156 -11.94857422 4.70410156 -13 5 C-13 4.34 -13 3.68 -13 3 C-12.34 3 -11.68 3 -11 3 C-11 2.34 -11 1.68 -11 1 C-3.57142857 -1.42857143 -3.57142857 -1.42857143 0 0 Z " fill="#9FA1D6" transform="translate(312,360)"/>
<path d="M0 0 C0.33 0 0.66 0 1 0 C1.33951619 1.56116819 1.67132544 3.12401338 2 4.6875 C2.185625 5.55761719 2.37125 6.42773438 2.5625 7.32421875 C2.98972047 9.93712964 3.07616201 12.35813038 3 15 C-0.62632404 9.56051394 -1.27607312 6.50797293 0 0 Z " fill="#9796D5" transform="translate(128,271)"/>
<path d="M0 0 C2 1.375 2 1.375 4 3 C4 3.66 4 4.32 4 5 C-1.28 5 -6.56 5 -12 5 C-12 4.67 -12 4.34 -12 4 C-7.71 4 -3.42 4 1 4 C0.67 2.68 0.34 1.36 0 0 Z " fill="#E8BF83" transform="translate(256,170)"/>
<path d="M0 0 C0.33 0 0.66 0 1 0 C1.25532751 3.06393013 1.21861333 4.63233212 -0.375 7.3125 C-1.179375 8.1478125 -1.179375 8.1478125 -2 9 C-2.66 9 -3.32 9 -4 9 C-4 9.66 -4 10.32 -4 11 C-4.66 11 -5.32 11 -6 11 C-5.34 8.69 -4.68 6.38 -4 4 C-3.01 4 -2.02 4 -1 4 C-0.67 2.68 -0.34 1.36 0 0 Z " fill="#9A9DDA" transform="translate(323,272)"/>
<path d="M0 0 C0 3.39593478 -0.52165948 4.06619881 -2.5 6.6875 C-2.9640625 7.31011719 -3.428125 7.93273437 -3.90625 8.57421875 C-4.2671875 9.04472656 -4.628125 9.51523438 -5 10 C-5.33 8.68 -5.66 7.36 -6 6 C-5.34 6 -4.68 6 -4 6 C-4 4.68 -4 3.36 -4 2 C-2.68 1.34 -1.36 0.68 0 0 Z " fill="#AFB0D7" transform="translate(193,200)"/>
<path d="M0 0 C0 0.66 0 1.32 0 2 C-0.66 2 -1.32 2 -2 2 C-2 2.99 -2 3.98 -2 5 C-3.98 5 -5.96 5 -8 5 C-3.16129032 0 -3.16129032 0 0 0 Z " fill="#B6B4E0" transform="translate(293,311)"/>
<path d="M0 0 C0.66 0.33 1.32 0.66 2 1 C-1.44615385 6.78461538 -1.44615385 6.78461538 -4.25 7.875 C-4.8275 7.91625 -5.405 7.9575 -6 8 C-4.7260411 5.96166576 -3.38938077 3.96147874 -2 2 C-1.34 2 -0.68 2 0 2 C0 1.34 0 0.68 0 0 Z " fill="#A6A7D6" transform="translate(302,302)"/>
<path d="M0 0 C6.52307692 1.35384615 6.52307692 1.35384615 8.9375 4.625 C9.288125 5.40875 9.63875 6.1925 10 7 C5.56541027 5.6062718 3.12621626 3.39417765 0 0 Z " fill="#B5B5DC" transform="translate(169,346)"/>
<path d="M0 0 C2.62374802 5.24749603 3.09534716 8.08847633 3 14 C2.67 14 2.34 14 2 14 C0.4087311 9.126739 -0.21192221 5.19209404 0 0 Z " fill="#A6A6D9" transform="translate(320,220)"/>
<path d="M0 0 C2.97 0 5.94 0 9 0 C9.33 0.99 9.66 1.98 10 3 C3.375 2.25 3.375 2.25 0 0 Z " fill="#B5B4D9" transform="translate(266,177)"/>
<path d="M0 0 C2.475 0.495 2.475 0.495 5 1 C5 3.31 5 5.62 5 8 C2 4.25 2 4.25 2 2 C1.34 2 0.68 2 0 2 C0 1.34 0 0.68 0 0 Z " fill="#E2B986" transform="translate(192,170)"/>
<path d="M0 0 C1.65 0 3.3 0 5 0 C5.66 1.98 6.32 3.96 7 6 C4.50638429 4.79618552 2.31856917 3.54571278 0 2 C0 1.34 0 0.68 0 0 Z " fill="#9A90BD" transform="translate(255,168)"/>
<path d="M0 0 C0.33 0.99 0.66 1.98 1 3 C1.66 3 2.32 3 3 3 C2.67 4.32 2.34 5.64 2 7 C1.01 7 0.02 7 -1 7 C-2 4 -2 4 -1.0625 1.8125 C-0.5365625 0.9153125 -0.5365625 0.9153125 0 0 Z " fill="#F2BD71" transform="translate(250,137)"/>
<path d="M0 0 C1.65 0 3.3 0 5 0 C4.01 0.495 4.01 0.495 3 1 C3 1.66 3 2.32 3 3 C1.35 3.33 -0.3 3.66 -2 4 C-1.34 2.68 -0.68 1.36 0 0 Z " fill="#F1CA8E" transform="translate(219,179)"/>
<path d="M0 0 C0.33 0 0.66 0 1 0 C1.28875 0.9075 1.5775 1.815 1.875 2.75 C2.76531776 5.32202908 3.71494413 7.61346766 5 10 C2.525 9.01 2.525 9.01 0 8 C0 5.36 0 2.72 0 0 Z " fill="#F0C079" transform="translate(250,160)"/>
<path d="M0 0 C2.475 0.99 2.475 0.99 5 2 C5 2.66 5 3.32 5 4 C5.66 4 6.32 4 7 4 C6.67 4.66 6.34 5.32 6 6 C3.5625 5.25 3.5625 5.25 1 4 C0.1875 1.875 0.1875 1.875 0 0 Z " fill="#BABAE4" transform="translate(322,147)"/>
</svg>
